<svg t="1621489440420" class="icon" viewBox="0 0 1024 1024" version="1.1" xmlns="http://www.w3.org/2000/svg" p-id="2400" width="200" height="200"><path d="M900.87 928.51H122.42C54.87 928.51 0 873.64 0 806.09V359.33c0-67.55 54.87-122.43 122.42-122.43h172.19l20.82-78.14c10.1-37.8 44.32-64.1 83.44-64.15h234.44c39.07 0.02 73.27 26.23 83.45 63.96l20.81 78.15H901.06c67.55 0 122.42 54.88 122.42 122.43v446.94c-0.19 67.54-55.06 122.42-122.61 122.42zM122.42 312.59c-25.73 0-46.74 21-46.74 46.74v446.93C75.68 832 96.69 853 122.42 853H901.06c25.74 0 46.74-21 46.74-46.74V359.33c0-25.74-21-46.74-46.74-46.74H679.29l-35.76-134.15a10.68 10.68 0 0 0-10.22-7.95H398.87c-4.73 0-9.08 3.22-10.22 7.95l-35.77 134.34H122.42v-0.19z m389.22 407.2c-93.86 0-170.3-76.45-170.3-170.3 0-93.85 76.45-170.3 170.3-170.3 93.85 0 170.29 76.44 170.29 170.3 0.01 93.86-76.44 170.3-170.29 170.3z m0-264.9c-52.23 0-94.61 42.38-94.61 94.61s42.39 94.61 94.61 94.61 94.61-42.38 94.61-94.61-42.38-94.61-94.61-94.61z m0 0" p-id="2401"></path></svg>