<svg t="1621407339769" class="icon" viewBox="0 0 1024 1024" version="1.1" xmlns="http://www.w3.org/2000/svg" p-id="2354" width="200" height="200"><path d="M65.290005 512c0 51.938929 42.104957 94.04491 94.04491 94.04491s94.04491-42.104957 94.044909-94.04491-42.104957-94.04491-94.044909-94.04491-94.04491 42.104957-94.04491 94.04491zM417.95509 512c0 51.938929 42.104957 94.04491 94.04491 94.04491 51.938929 0 94.04491-42.104957 94.04491-94.04491s-42.104957-94.04491-94.04491-94.04491c-51.939953 0-94.04491 42.104957-94.04491 94.04491zM770.620176 512c0 51.938929 42.104957 94.04491 94.044909 94.04491s94.04491-42.104957 94.04491-94.04491-42.104957-94.04491-94.04491-94.04491-94.04491 42.104957-94.044909 94.04491z" fill="" p-id="2355"></path></svg>