<?xml version="1.0" encoding="utf-8"?>
<!-- Generator: Adobe Illustrator 25.0.0, SVG Export Plug-In . SVG Version: 6.00 Build 0)  -->
<svg version="1.1" id="图层_1" xmlns="http://www.w3.org/2000/svg" xmlns:xlink="http://www.w3.org/1999/xlink" x="0px" y="0px"
	 viewBox="0 0 600 600" style="enable-background:new 0 0 600 600;" xml:space="preserve">
<style type="text/css">
	.st0{fill:url(#SVGID_1_);stroke:#FDD483;stroke-width:2;stroke-linecap:round;stroke-linejoin:round;stroke-miterlimit:10;}
	.st1{fill:url(#SVGID_2_);stroke:#FDD483;stroke-width:2;stroke-linecap:round;stroke-linejoin:round;stroke-miterlimit:10;}
	.st2{fill:url(#SVGID_3_);stroke:#FDD483;stroke-width:2;stroke-linecap:round;stroke-linejoin:round;stroke-miterlimit:10;}
	.st3{fill:url(#SVGID_4_);stroke:#FDD483;stroke-width:2;stroke-linecap:round;stroke-linejoin:round;stroke-miterlimit:10;}
	.st4{fill:url(#SVGID_5_);stroke:#FDD483;stroke-width:2;stroke-linecap:round;stroke-linejoin:round;stroke-miterlimit:10;}
	.st5{fill:url(#SVGID_6_);stroke:#FDD483;stroke-width:2;stroke-linecap:round;stroke-linejoin:round;stroke-miterlimit:10;}
	.st6{fill:url(#SVGID_7_);stroke:#FDD483;stroke-width:2;stroke-linecap:round;stroke-linejoin:round;stroke-miterlimit:10;}
	.st7{fill:url(#SVGID_8_);stroke:#FDD483;stroke-width:2;stroke-linecap:round;stroke-linejoin:round;stroke-miterlimit:10;}
	.st8{fill:url(#SVGID_9_);stroke:#FDD483;stroke-width:2;stroke-linecap:round;stroke-linejoin:round;stroke-miterlimit:10;}
	.st9{fill:url(#SVGID_10_);stroke:#FDD483;stroke-width:2;stroke-linecap:round;stroke-linejoin:round;stroke-miterlimit:10;}
	.st10{fill:url(#SVGID_11_);stroke:#FDD483;stroke-width:2;stroke-linecap:round;stroke-linejoin:round;stroke-miterlimit:10;}
	.st11{fill:url(#SVGID_12_);stroke:#FDD483;stroke-width:2;stroke-linecap:round;stroke-linejoin:round;stroke-miterlimit:10;}
	.st12{fill:none;stroke:#FDD483;stroke-width:2;stroke-linecap:round;stroke-linejoin:round;stroke-miterlimit:10;}
	.st13{fill:url(#SVGID_13_);stroke:#FDD483;stroke-width:2;stroke-linecap:round;stroke-linejoin:round;stroke-miterlimit:10;}
	.st14{fill:url(#SVGID_14_);stroke:#FDD483;stroke-width:2;stroke-linecap:round;stroke-linejoin:round;stroke-miterlimit:10;}
	.st15{fill:url(#SVGID_15_);stroke:#FDD483;stroke-width:2;stroke-linecap:round;stroke-linejoin:round;stroke-miterlimit:10;}
	.st16{fill:url(#SVGID_16_);stroke:#FDD483;stroke-width:2;stroke-linecap:round;stroke-linejoin:round;stroke-miterlimit:10;}
	.st17{fill:url(#SVGID_17_);stroke:#FDD483;stroke-width:2;stroke-linecap:round;stroke-linejoin:round;stroke-miterlimit:10;}
	.st18{fill:url(#SVGID_18_);stroke:#FDD483;stroke-width:2;stroke-linecap:round;stroke-linejoin:round;stroke-miterlimit:10;}
	.st19{fill:url(#SVGID_19_);stroke:#EF7659;stroke-width:2;stroke-linecap:round;stroke-linejoin:round;stroke-miterlimit:10;}
	.st20{fill:#FFEAE0;stroke:#F77B5C;stroke-width:2;stroke-linecap:round;stroke-linejoin:round;stroke-miterlimit:10;}
	.st21{fill:url(#SVGID_20_);stroke:#EF7659;stroke-width:2;stroke-linecap:round;stroke-linejoin:round;stroke-miterlimit:10;}
	
		.st22{display:none;fill:url(#SVGID_21_);stroke:url(#SVGID_22_);stroke-width:2;stroke-linecap:round;stroke-linejoin:round;stroke-miterlimit:10;}
	.st23{fill:url(#SVGID_23_);}
	.st24{fill:#7A2C29;}
	.st25{fill:url(#SVGID_24_);}
	.st26{fill:url(#SVGID_25_);}
	.st27{fill:url(#SVGID_26_);}
	.st28{fill:url(#SVGID_27_);}
	.st29{fill:url(#SVGID_28_);}
	.st30{fill:url(#SVGID_29_);}
	.st31{fill:url(#SVGID_30_);}
	.st32{fill:url(#SVGID_31_);}
	.st33{fill:url(#SVGID_32_);}
	.st34{fill:url(#SVGID_33_);}
	.st35{fill:url(#SVGID_34_);}
	.st36{fill:url(#SVGID_35_);}
	.st37{fill:url(#SVGID_36_);}
	.st38{fill:url(#SVGID_37_);}
	.st39{fill:url(#SVGID_38_);}
	.st40{fill:#FDD483;}
	.st41{fill:url(#SVGID_39_);}
	.st42{fill:url(#SVGID_40_);}
	.st43{fill:url(#SVGID_41_);}
	.st44{fill:url(#SVGID_42_);}
	.st45{fill:url(#SVGID_43_);}
	.st46{fill:#EF7659;}
	.st47{fill:#F9A16D;}
	.st48{fill:#FFED91;}
	.st49{fill:url(#SVGID_44_);}
	.st50{fill:url(#SVGID_45_);}
	.st51{fill:url(#SVGID_46_);}
	.st52{fill:url(#SVGID_47_);}
	.st53{fill:#FFEAE0;}
	.st54{fill:#F77B5C;}
	.st55{fill:url(#SVGID_48_);}
	.st56{fill:url(#SVGID_49_);}
	.st57{fill:url(#SVGID_50_);}
	.st58{fill:url(#SVGID_51_);}
	.st59{fill:url(#SVGID_52_);}
	.st60{fill:#E46F54;}
	.st61{fill:url(#SVGID_53_);}
	.st62{fill:url(#SVGID_54_);}
	.st63{fill:url(#SVGID_55_);}
	.st64{fill:url(#SVGID_56_);}
	.st65{fill:url(#SVGID_57_);}
	.st66{fill:#EBAA61;}
	.st67{fill:#42D4EB;}
	.st68{fill:#1D5C8C;}
	.st69{fill:#FFFFFF;}
	.st70{fill:url(#SVGID_58_);}
	.st71{fill:url(#SVGID_59_);}
	.st72{fill:url(#SVGID_60_);}
	.st73{fill:url(#SVGID_61_);}
	.st74{fill:url(#SVGID_62_);}
	.st75{fill:url(#SVGID_63_);}
	.st76{fill:#F87E5D;}
	.st77{fill:#873530;}
	.st78{fill:url(#SVGID_64_);}
	.st79{fill:#3F554A;}
	.st80{fill:url(#SVGID_65_);}
	.st81{fill:url(#SVGID_66_);}
</style>
<g id="马_1_">
	<g>
		
			<linearGradient id="SVGID_1_" gradientUnits="userSpaceOnUse" x1="295.1076" y1="-326.8448" x2="390.7161" y2="-326.8448" gradientTransform="matrix(0.9587 -0.2844 0.2844 0.9587 -29.4505 590.1927)">
			<stop  offset="0.1616" style="stop-color:#ED6640"/>
			<stop  offset="1" style="stop-color:#FFCB61"/>
		</linearGradient>
		<path class="st0" d="M257.4,183.27c-39.63-15.48-67.02-13.35-75.72-11.38c-11.2,2.53-23.06,9.83-21.57,18.47
			c-0.77-1.22-1.22-2.63-1.34-4.24c-1.16-15.34,23.41-20.15,50.15-21.48C235.65,163.31,251.13,173.57,257.4,183.27z"/>
		
			<linearGradient id="SVGID_2_" gradientUnits="userSpaceOnUse" x1="298.5018" y1="-361.5789" x2="398.0831" y2="-361.5789" gradientTransform="matrix(0.9587 -0.2844 0.2844 0.9587 -29.4505 590.1927)">
			<stop  offset="0.1616" style="stop-color:#CE2F2C"/>
			<stop  offset="1" style="stop-color:#FFA861"/>
		</linearGradient>
		<path class="st1" d="M251.98,139.09c0.22,0.74-8.33-5.55-23.46-0.25c-6.52,2.28-10.93,7.5-15.64,13.2
			c-19.73,13.24-36.99,16.66-47.9,12.85c-10.32-3.6-16.22-10.12-10.4-22.02c2.34-0.94,4.69-1.31,6.74-0.89
			c2.83,6.65,9.21,12.13,21.95,7.73c13.67-4.72,23.96-15.07,36.36-18.31C232.03,128.17,245.19,127.47,251.98,139.09z"/>
		
			<linearGradient id="SVGID_3_" gradientUnits="userSpaceOnUse" x1="287.6986" y1="-358.1886" x2="356.9141" y2="-358.1886" gradientTransform="matrix(0.9587 -0.2844 0.2844 0.9587 -29.4505 590.1927)">
			<stop  offset="0" style="stop-color:#F87E5D"/>
			<stop  offset="1" style="stop-color:#FFED91"/>
		</linearGradient>
		<path class="st2" d="M212.88,152.04c-6.23,7.53-13.01,15.92-25.91,19.46c-22.66,6.23-40.57,2.11-43.75-10.98
			c-2.12-7.15,4.5-14.89,11.36-17.65c-5.82,11.9,0.07,18.42,10.4,22.02C175.89,168.71,193.15,165.28,212.88,152.04z"/>
		
			<linearGradient id="SVGID_4_" gradientUnits="userSpaceOnUse" x1="310.3428" y1="-363.9584" x2="398.2887" y2="-363.9584" gradientTransform="matrix(0.9587 -0.2844 0.2844 0.9587 -29.4505 590.1927)">
			<stop  offset="0.1616" style="stop-color:#ED6640"/>
			<stop  offset="1" style="stop-color:#FFCB61"/>
		</linearGradient>
		<path class="st3" d="M251.98,139.09c-6.79-11.62-19.94-10.92-32.35-7.69c-12.4,3.24-22.7,13.59-36.36,18.31
			c-12.74,4.4-19.12-1.08-21.95-7.73c0.01,0,0.01,0,0.02,0c8.12,1.66,24.85,0.58,38.09-7.35c13.24-7.94,27.79-11.45,39.64-9.34
			C250.91,127.41,251.76,138.36,251.98,139.09z"/>
		
			<linearGradient id="SVGID_5_" gradientUnits="userSpaceOnUse" x1="296.2102" y1="-382.3922" x2="378.4301" y2="-382.3922" gradientTransform="matrix(0.9587 -0.2844 0.2844 0.9587 -29.4505 590.1927)">
			<stop  offset="0.1616" style="stop-color:#CE2F2C"/>
			<stop  offset="1" style="stop-color:#FFA861"/>
		</linearGradient>
		<path class="st4" d="M153.97,125.66c11.01-4.87,14.6-2.73,21.63-5.61c7.02-2.89,18.39-11.07,30.13-11.34s17.8,3.54,18.84,7.06
			c1.36,4.59,0.42,8.07-2.54,11.36c1.62-4.49-0.36-11.25-7.81-9.71c-26.91,5.58-25.52,22.72-40.9,27.73s-26.62,0.32-27.9-7.32
			S153.97,125.66,153.97,125.66z"/>
		
			<linearGradient id="SVGID_6_" gradientUnits="userSpaceOnUse" x1="287.6759" y1="-439.8352" x2="342.9344" y2="-439.8352" gradientTransform="matrix(0.9587 -0.2844 0.2844 0.9587 -29.4505 590.1927)">
			<stop  offset="0.1616" style="stop-color:#ED6640"/>
			<stop  offset="1" style="stop-color:#FFCB61"/>
		</linearGradient>
		<path class="st5" d="M171.33,61.14c1.36,5.47-3.26,13.12-8.25,16.19c-6.09,3.74-13.66,3.07-23.56,3.78
			c-6.84,0.5-13.16,8.32-12.93,17.06c-0.45-0.28-0.89-0.61-1.33-1c-5.54-4.91,0.68-20.29,10.83-21.45
			c13.26-1.53,21.76,5.57,29.25-3.06c6.64-7.65,5.12-13.55,5.12-13.55c0.02,0.03,0.05,0.07,0.06,0.11
			C170.66,59.47,171,60.15,171.33,61.14z"/>
		
			<linearGradient id="SVGID_7_" gradientUnits="userSpaceOnUse" x1="292.6911" y1="-396.0971" x2="343.3166" y2="-396.0971" gradientTransform="matrix(0.9587 -0.2844 0.2844 0.9587 -29.4505 590.1927)">
			<stop  offset="0.1616" style="stop-color:#CE2F2C"/>
			<stop  offset="1" style="stop-color:#FFA861"/>
		</linearGradient>
		<path class="st6" d="M189.05,119.53c-6.59,6.34-15.57,11.35-32.21,11.98c-17.69,0.67-22.89-9.98-18.95-16.1
			c2.49,2.16,12.23,9.96,23.74,10.67C172.8,126.77,182.26,124.77,189.05,119.53z"/>
		
			<linearGradient id="SVGID_8_" gradientUnits="userSpaceOnUse" x1="299.6508" y1="-402.1713" x2="373.8729" y2="-402.1713" gradientTransform="matrix(0.9587 -0.2844 0.2844 0.9587 -29.4505 590.1927)">
			<stop  offset="0.1616" style="stop-color:#CE2F2C"/>
			<stop  offset="1" style="stop-color:#FFA861"/>
		</linearGradient>
		<path class="st7" d="M213.98,96.12c-2.27,5.44-9.45,7.71-16.04,13.76c-10.08,6.01-23.74,9.26-33.26,4.91
			c-5.48-2.5-19.2-2.49-23.3-2.43c0.18-0.08,0.35-0.16,0.53-0.24c25.2-10.44,43.19-5.12,52.78-7.07
			C203.31,103.29,210.22,98.84,213.98,96.12z"/>
		
			<linearGradient id="SVGID_9_" gradientUnits="userSpaceOnUse" x1="295.4359" y1="-398.3616" x2="354.5769" y2="-398.3616" gradientTransform="matrix(0.9587 -0.2844 0.2844 0.9587 -29.4505 590.1927)">
			<stop  offset="0" style="stop-color:#F87E5D"/>
			<stop  offset="1" style="stop-color:#FFED91"/>
		</linearGradient>
		<path class="st8" d="M197.94,109.88c-1.16,1.06-2.3,2.25-3.4,3.59c-1.7,2.08-3.49,4.13-5.49,6.05
			c-6.79,5.25-16.25,7.25-27.42,6.55c-11.51-0.72-21.25-8.51-23.74-10.67c0.8-1.25,1.97-2.31,3.49-3.05
			c4.1-0.06,17.82-0.07,23.3,2.43C174.19,119.14,187.86,115.9,197.94,109.88z"/>
		
			<linearGradient id="SVGID_10_" gradientUnits="userSpaceOnUse" x1="289.7453" y1="-414.2627" x2="330.4929" y2="-414.2627" gradientTransform="matrix(0.9587 -0.2844 0.2844 0.9587 -29.4505 590.1927)">
			<stop  offset="0.1616" style="stop-color:#CE2F2C"/>
			<stop  offset="1" style="stop-color:#FFA861"/>
		</linearGradient>
		<path class="st9" d="M169.56,98.92c-8,3.64-13.18,9.47-18.2,11.5c-5.43,2.2-15.23,1.73-21.64-2.51
			C134.23,100.28,157.73,98.03,169.56,98.92z"/>
		
			<linearGradient id="SVGID_11_" gradientUnits="userSpaceOnUse" x1="286.3106" y1="-425.8723" x2="380.757" y2="-425.8723" gradientTransform="matrix(0.9587 -0.2844 0.2844 0.9587 -29.4505 590.1927)">
			<stop  offset="0.1616" style="stop-color:#CE2F2C"/>
			<stop  offset="1" style="stop-color:#FFA861"/>
		</linearGradient>
		<path class="st10" d="M215.26,76.23c-12.68,15.79-16.12,19.15-32.49,19.63c-1.33,0.04-2.59,0.14-3.81,0.32l-0.01,0
			c-9.03-1.24-18.3-4.83-28.55-6.88c-12.93-2.59-22.34,4.44-25.2,13.93c-0.25-0.42-0.47-0.86-0.67-1.32
			c-4.12-9.58,0.23-16.48,6.95-18.48c12.38-4.47,30.34-1.28,40.6,3.44C182.35,91.61,202.73,86.36,215.26,76.23z"/>
		
			<linearGradient id="SVGID_12_" gradientUnits="userSpaceOnUse" x1="286.7396" y1="-423.2021" x2="340.2723" y2="-423.2021" gradientTransform="matrix(0.9587 -0.2844 0.2844 0.9587 -29.4505 590.1927)">
			<stop  offset="0" style="stop-color:#F87E5D"/>
			<stop  offset="1" style="stop-color:#FFED91"/>
		</linearGradient>
		<path class="st11" d="M178.95,96.18c-3.54,0.48-6.64,1.48-9.39,2.74c-11.83-0.88-35.33,1.36-39.84,8.98
			c-1.86-1.23-3.43-2.78-4.52-4.67c2.86-9.48,12.27-16.52,25.2-13.93C160.65,91.35,169.92,94.94,178.95,96.18z"/>
		<path class="st12" d="M145.38,135.39c0.69,4.65,10.19,10.1,21.96,6.61c13.58-4.03,25.33-23.8,40.83-28.39
			c11.77-3.49,15.77,1.09,16.88,4.29"/>
		
			<linearGradient id="SVGID_13_" gradientUnits="userSpaceOnUse" x1="296.9406" y1="-325.4821" x2="372.7369" y2="-325.4821" gradientTransform="matrix(0.9587 -0.2844 0.2844 0.9587 -29.4505 590.1927)">
			<stop  offset="0.1616" style="stop-color:#CE2F2C"/>
			<stop  offset="1" style="stop-color:#FFA861"/>
		</linearGradient>
		<path class="st13" d="M237.67,179.98c-13.52,0.04-23.45,5.62-40.11,11.14c-17.16,5.68-29.4,5.95-35.13,1.71
			c6.55-9.77,20.98-16.63,41.11-15.87C220.82,177.62,229.99,179.04,237.67,179.98z"/>
		
			<linearGradient id="SVGID_14_" gradientUnits="userSpaceOnUse" x1="295.4234" y1="-324.8311" x2="390.7161" y2="-324.8311" gradientTransform="matrix(0.9587 -0.2844 0.2844 0.9587 -29.4505 590.1927)">
			<stop  offset="0" style="stop-color:#F87E5D"/>
			<stop  offset="1" style="stop-color:#FFED91"/>
		</linearGradient>
		<path class="st14" d="M257.4,183.27c-7.7-2.35-14.03-3.31-19.69-3.29c-0.01,0-0.02,0-0.04-0.01c-7.68-0.93-16.85-2.36-34.14-3.02
			c-20.13-0.76-34.56,6.1-41.11,15.87c-0.96-0.7-1.74-1.52-2.31-2.47l0-0.01c-1.49-8.64,10.38-15.94,21.57-18.47
			C190.37,169.93,217.76,167.79,257.4,183.27z"/>
		
			<linearGradient id="SVGID_15_" gradientUnits="userSpaceOnUse" x1="304.3263" y1="-314.7474" x2="381.1053" y2="-314.7474" gradientTransform="matrix(0.9587 -0.2844 0.2844 0.9587 -29.4505 590.1927)">
			<stop  offset="0.1616" style="stop-color:#ED6640"/>
			<stop  offset="1" style="stop-color:#FFCB61"/>
		</linearGradient>
		<path class="st15" d="M248.83,188.17c-24.52-7.13-39.73-3.42-50.31,2.12c-8.43,4.42-18.17,8.71-26.51,8.9
			c1.43-0.73,2.78-1.47,4.02-2.23c12.71-7.78,20.52-13.3,39.1-14C233.12,182.28,247.92,187.82,248.83,188.17z"/>
		
			<linearGradient id="SVGID_16_" gradientUnits="userSpaceOnUse" x1="277.4191" y1="-302.6354" x2="381.1053" y2="-302.6354" gradientTransform="matrix(0.9587 -0.2844 0.2844 0.9587 -29.4505 590.1927)">
			<stop  offset="0.1616" style="stop-color:#CE2F2C"/>
			<stop  offset="1" style="stop-color:#FFA861"/>
		</linearGradient>
		<path class="st16" d="M248.83,188.18c-0.67-0.04-9.06-0.38-21.51,6.4c-4.72,2.56-7.89,6.48-11.33,10.92
			c-0.33,0.43-0.67,0.87-1.02,1.32c-0.02,0.01-0.03,0.03-0.05,0.05c-7.81,9.2-30.01,19.33-45.95,20.2
			c-15.07,0.82-21.98-7.19-19.67-16.53c2.2-1.52,4.8-2.92,7.57-4.27c3.14,5.31,10.35,10.29,26.83,2.84
			c20.68-9.34,28.24-19.87,45.08-20.72C244.57,187.6,248.41,188.11,248.83,188.18z"/>
		
			<linearGradient id="SVGID_17_" gradientUnits="userSpaceOnUse" x1="269.7148" y1="-298.7774" x2="343.2876" y2="-298.7774" gradientTransform="matrix(0.9587 -0.2844 0.2844 0.9587 -29.4505 590.1927)">
			<stop  offset="0.1616" style="stop-color:#ED6640"/>
			<stop  offset="1" style="stop-color:#FFCB61"/>
		</linearGradient>
		<path class="st17" d="M214.93,206.87c-5.79,7.48-12.83,16.19-29.28,22.52c-27.46,10.55-39.66,3.78-42.73-6.57
			c-1.49-5.01,1.48-8.91,6.39-12.27c-2.32,9.34,4.6,17.35,19.67,16.53C184.92,226.21,207.11,216.07,214.93,206.87z"/>
		
			<linearGradient id="SVGID_18_" gradientUnits="userSpaceOnUse" x1="287.8074" y1="-311.8964" x2="381.1345" y2="-311.8964" gradientTransform="matrix(0.9587 -0.2844 0.2844 0.9587 -29.4505 590.1927)">
			<stop  offset="0" style="stop-color:#F87E5D"/>
			<stop  offset="1" style="stop-color:#FFED91"/>
		</linearGradient>
		<path class="st18" d="M248.86,188.18c-0.01,0-0.01,0-0.03,0c-0.42-0.07-4.26-0.58-20.04,0.21c-16.83,0.86-24.4,11.38-45.08,20.72
			c-16.48,7.45-23.69,2.46-26.83-2.84c4.96-2.43,10.44-4.69,15.13-7.09c8.34-0.19,18.08-4.48,26.51-8.9
			c10.58-5.54,25.78-9.25,50.31-2.12C248.84,188.18,248.85,188.18,248.86,188.18z"/>
	</g>
	
		<linearGradient id="SVGID_19_" gradientUnits="userSpaceOnUse" x1="171.4026" y1="-156.8508" x2="171.4026" y2="-205.8189" gradientTransform="matrix(0.991 -0.1342 0.1342 0.991 -52.7119 280.4647)">
		<stop  offset="0.1667" style="stop-color:#F77B5C"/>
		<stop  offset="1" style="stop-color:#FADFD2"/>
	</linearGradient>
	<path class="st19" d="M102,96.75c-2.17,1.85-4.81,3.82-7.86,5.55c-12.14-22.41-9.63-42.26,1.09-49.56
		C91.08,63.98,89.6,85.84,102,96.75z"/>
	<path class="st20" d="M142.3,69.43c-0.54,6.84-3.32,17.24-4.57,21.67c-0.32-0.09-0.62-0.18-0.93-0.26
		c-6.31-1.76-10.04-2.07-10.04-2.07c4.33-6.44,3.81-10.27,2.6-19.21c-1.06-7.8,2.13-14.18,1.98-19.44c-0.02-0.78-0.12-1.53-0.3-2.25
		C137.21,55.49,143.01,60.56,142.3,69.43z"/>
	
		<linearGradient id="SVGID_20_" gradientUnits="userSpaceOnUse" x1="219.3891" y1="-160.0724" x2="219.3891" y2="-205.8189" gradientTransform="matrix(0.991 -0.1342 0.1342 0.991 -52.7119 280.4647)">
		<stop  offset="0.1667" style="stop-color:#F77B5C"/>
		<stop  offset="1" style="stop-color:#FADFD2"/>
	</linearGradient>
	<path class="st21" d="M145.08,75.23c-3.81,10.27-5.55,11.81-2.86,17.29c-1.6-0.55-3.11-1.02-4.5-1.42
		c1.25-4.43,4.03-14.84,4.57-21.67c0.71-8.87-5.09-13.94-11.26-21.56C141.1,51.07,148.89,64.96,145.08,75.23z"/>
	<path class="st20" d="M108.71,89.91c0,0-2.07,2.72-5.77,6.02c-0.3,0.27-0.62,0.55-0.95,0.82c-12.4-10.9-10.91-32.76-6.78-44.02
		c-0.07,2.21,0.12,4.79,1.39,7.76c0.97,2.3,2.6,4.83,5.24,7.59C107.91,74.42,108.9,76.88,108.71,89.91z"/>
	<path class="st20" d="M95.22,52.73l1.39,7.76C95.34,57.52,95.16,54.93,95.22,52.73z"/>
	<path class="st20" d="M131.34,50.12l-0.3-2.25C131.23,48.6,131.32,49.35,131.34,50.12z"/>
	
		<linearGradient id="SVGID_21_" gradientUnits="userSpaceOnUse" x1="112.2436" y1="285.4942" x2="112.2436" y2="249.0694" gradientTransform="matrix(0.991 -0.1342 0.1342 0.991 -52.7119 280.4647)">
		<stop  offset="0.0445" style="stop-color:#F77B5C"/>
		<stop  offset="0.5119" style="stop-color:#FFEAE0"/>
	</linearGradient>
	
		<linearGradient id="SVGID_22_" gradientUnits="userSpaceOnUse" x1="112.2436" y1="286.4942" x2="112.2436" y2="248.0694" gradientTransform="matrix(0.991 -0.1342 0.1342 0.991 -52.7119 280.4647)">
		<stop  offset="0.1247" style="stop-color:#7A2C29"/>
		<stop  offset="0.9555" style="stop-color:#F77B5C"/>
	</linearGradient>
	<path class="st22" d="M100.09,511.11c6.41,8.89,15.33,21.98,4.5,33.2s-22.62-4.31-24.65-9.45
		C77.91,529.72,100.09,511.11,100.09,511.11z"/>
	<g>
		
			<linearGradient id="SVGID_23_" gradientUnits="userSpaceOnUse" x1="213.8155" y1="225.0647" x2="213.8155" y2="199.1672" gradientTransform="matrix(0.9838 -0.1791 0.1791 0.9838 -73.6239 368.4138)">
			<stop  offset="0.0445" style="stop-color:#DE5454"/>
			<stop  offset="1" style="stop-color:#8F4B36"/>
		</linearGradient>
		<path class="st23" d="M177.14,525.2c6.49,3.62,12.29,9.42,5.85,22.31c-3.38,6.77-12.89,4.51-18.04-3.87
			C157.52,531.58,177.14,525.2,177.14,525.2z"/>
		<path class="st24" d="M176.63,552.12c-4.4,0-9.16-3.16-12.23-8.15c-1.83-2.98-2.25-5.9-1.23-8.68c2.57-7,13.31-10.57,13.77-10.71
			c0.17-0.05,0.36-0.04,0.51,0.05c5.94,3.31,13.03,9.32,6.11,23.16c-1.33,2.66-3.65,4.2-6.53,4.32
			C176.89,552.12,176.76,552.12,176.63,552.12z M177.07,525.9c-1.65,0.59-10.55,4-12.7,9.84c-0.88,2.39-0.5,4.93,1.12,7.56
			c2.88,4.68,7.51,7.72,11.48,7.53c2.43-0.11,4.31-1.36,5.44-3.61C188.67,534.68,182.93,529.23,177.07,525.9z"/>
	</g>
	<g>
		
			<linearGradient id="SVGID_24_" gradientUnits="userSpaceOnUse" x1="192.0866" y1="218.1087" x2="192.0866" y2="-0.9353" gradientTransform="matrix(0.9838 -0.1791 0.1791 0.9838 -73.6239 368.4138)">
			<stop  offset="0.0445" style="stop-color:#F77B5C"/>
			<stop  offset="0.7969" style="stop-color:#F9CEBE"/>
		</linearGradient>
		<path class="st25" d="M94.71,336.81c-6.34,15.56-4.34,30.5,1.15,45.15c5.49,14.65,19.6,35.73,20.99,50.54
			c1.39,14.81,4.79,15.5,9.74,21.15c3.16,3.6,19.72,30.36,27.39,51.33c1.27,3.49,0.27,8.63,1.29,11.6c2.46,7.17,6.5,7.02,6.44,10.31
			c-0.18,10.27,2.03,24.61,12.24,16.75c8.38-6.44,9.09-15.94,2.58-18.69c-5.21-2.19-6.86-3.09-9.02-4.51
			c-2.1-1.38,0.37-4.97-1.93-9.02c-1.83-3.23-2.85-4.45-3.87-6.44c-8.12-15.9-19.78-51.12-18.87-55.6
			c1.38-6.8-5.99-17.86-11.41-22.79c-5.42-4.93,6.62-57.74,2.28-77.71L94.71,336.81z"/>
		
			<linearGradient id="SVGID_25_" gradientUnits="userSpaceOnUse" x1="192.0891" y1="218.7528" x2="192.0891" y2="-1.5795" gradientTransform="matrix(0.9838 -0.1791 0.1791 0.9838 -73.6239 368.4138)">
			<stop  offset="0.1247" style="stop-color:#7A2C29"/>
			<stop  offset="0.7742" style="stop-color:#B75342"/>
		</linearGradient>
		<path class="st26" d="M168.73,546.54c-0.77,0-1.5-0.17-2.17-0.51c-5.2-2.62-5.56-14.27-5.48-19.16c0.02-1.21-0.64-1.84-1.73-2.88
			c-1.39-1.33-3.29-3.14-4.68-7.2c-0.51-1.5-0.55-3.42-0.58-5.45c-0.03-2.16-0.07-4.4-0.71-6.13
			c-7.71-21.08-24.33-47.78-27.27-51.13c-0.84-0.96-1.63-1.77-2.4-2.55c-3.68-3.76-6.34-6.48-7.51-18.97
			c-0.88-9.36-6.86-21.18-12.65-32.6c-3.25-6.41-6.32-12.47-8.3-17.77c-6.45-17.2-6.82-31.7-1.15-45.62
			c0.13-0.31,0.47-0.47,0.79-0.37l39.01,12.06c0.22,0.07,0.39,0.25,0.44,0.48c2.24,10.32,0.17,29.18-1.66,45.83
			c-1.59,14.43-3.23,29.36-0.82,31.54c2.94,2.67,6.15,6.83,8.39,10.86c1.93,3.47,4.05,8.47,3.22,12.54
			c-0.87,4.3,10.6,39.11,18.81,55.18c0.51,1,1.01,1.79,1.65,2.79c0.61,0.96,1.3,2.05,2.2,3.63c1.28,2.26,1.19,4.34,1.12,6.02
			c-0.07,1.52-0.07,2.34,0.61,2.78c2.2,1.44,3.87,2.33,8.92,4.45c2.65,1.11,4.31,3.31,4.68,6.18c0.59,4.57-2.14,9.78-7.11,13.61
			C172.28,545.74,170.4,546.54,168.73,546.54z M95.09,337.6c-5.31,13.44-4.86,27.48,1.38,44.13c1.96,5.23,5.01,11.26,8.25,17.64
			c5.84,11.53,11.88,23.46,12.78,33.07c1.13,12.03,3.52,14.48,7.14,18.18c0.78,0.79,1.58,1.61,2.44,2.6
			c2.97,3.38,19.75,30.32,27.51,51.54c0.71,1.94,0.75,4.29,0.78,6.56c0.03,1.93,0.06,3.75,0.51,5.05c1.29,3.76,2.99,5.39,4.35,6.69
			c1.16,1.11,2.16,2.06,2.13,3.84c-0.13,7.47,1.06,16.12,4.77,17.98c1.67,0.84,3.83,0.25,6.44-1.75c4.62-3.55,7.15-8.31,6.62-12.42
			c-0.31-2.4-1.7-4.23-3.9-5.16c-5.14-2.16-6.86-3.08-9.12-4.57c-1.32-0.87-1.26-2.35-1.19-3.92c0.07-1.59,0.15-3.39-0.95-5.32
			c-0.88-1.55-1.56-2.62-2.17-3.57c-0.63-0.99-1.17-1.84-1.71-2.9c-7.9-15.47-19.93-51.07-18.93-56.02
			c1.27-6.27-5.67-17.15-11.22-22.18c-2.75-2.5-1.64-14.03,0.41-32.64c1.8-16.35,3.83-34.85,1.76-45.05L95.09,337.6z"/>
	</g>
	<g>
		
			<linearGradient id="SVGID_26_" gradientUnits="userSpaceOnUse" x1="210.5174" y1="261.7141" x2="210.5174" y2="232.3768" gradientTransform="matrix(0.991 -0.1342 0.1342 0.991 -52.7119 280.4647)">
			<stop  offset="0.0445" style="stop-color:#DE5454"/>
			<stop  offset="1" style="stop-color:#8F4B36"/>
		</linearGradient>
		<path class="st27" d="M179.06,500.77c3.44,6.63,6.4,11.54,12.94,10.65s10.54-13.58,5.15-20.62c-5.39-7.03-11.24-8.16-11.24-8.16
			L179.06,500.77z"/>
		<path class="st24" d="M190.49,512.17c-5.75,0-8.65-4.66-11.99-11.11c-0.08-0.16-0.1-0.35-0.03-0.52l6.85-18.13
			c0.11-0.29,0.42-0.46,0.72-0.4c0.25,0.05,6.15,1.26,11.63,8.4c3.4,4.44,3.12,10.82,1.33,15.16c-1.52,3.68-4.1,6.11-6.91,6.49
			C191.53,512.14,191,512.17,190.49,512.17z M179.77,500.73c3.45,6.61,6.2,10.87,12.15,10.06c2.35-0.32,4.55-2.45,5.89-5.7
			c1.65-4,1.93-9.85-1.16-13.88c-4.24-5.54-8.82-7.32-10.33-7.78L179.77,500.73z"/>
	</g>
	<g>
		
			<linearGradient id="SVGID_27_" gradientUnits="userSpaceOnUse" x1="273.4541" y1="282.6134" x2="273.4541" y2="252.5612" gradientTransform="matrix(0.991 -0.1342 0.1342 0.991 -52.7119 280.4647)">
			<stop  offset="0.0445" style="stop-color:#DE5454"/>
			<stop  offset="1" style="stop-color:#8F4B36"/>
		</linearGradient>
		<path class="st28" d="M259.3,493.07c7.19,7.57,8.43,10.34,6.8,15.13c-1.36,3.98-5.14,14.97-13.53,16.11
			c-8.39,1.14-9.02-5.8-11.6-16.11C238.17,497,259.3,493.07,259.3,493.07z"/>
		<path class="st24" d="M250.88,525.07c-6.54,0-7.92-5.79-9.77-13.58c-0.24-1-0.49-2.05-0.76-3.14c-0.59-2.37-0.23-4.62,1.09-6.67
			c4.29-6.68,17.2-9.15,17.75-9.25c0.22-0.04,0.43,0.03,0.58,0.19c7.38,7.76,8.67,10.71,6.94,15.78
			c-5.24,15.34-11.87,16.24-14.05,16.54C252.02,525.03,251.43,525.07,250.88,525.07z M259.08,493.77
			c-2.06,0.44-12.94,2.97-16.56,8.61c-1.12,1.74-1.43,3.65-0.93,5.66c0.27,1.09,0.52,2.14,0.76,3.15
			c2.06,8.65,3.2,13.42,10.12,12.48c8.03-1.09,11.78-12.07,13.01-15.68C267.02,503.52,265.88,500.96,259.08,493.77z"/>
	</g>
	<g>
		
			<linearGradient id="SVGID_28_" gradientUnits="userSpaceOnUse" x1="292.9326" y1="269.8702" x2="292.9326" y2="108.3599" gradientTransform="matrix(0.991 -0.1342 0.1342 0.991 -52.7119 280.4647)">
			<stop  offset="0.0445" style="stop-color:#F77B5C"/>
			<stop  offset="1" style="stop-color:#F9B8A3"/>
		</linearGradient>
		<path class="st29" d="M257.72,347.76c0,0,0.04,21.7,11.46,29.26c11.43,7.56,31.71,13.26,23.22,27.41
			c-8.49,14.15-42.96,58.14-43.06,72.19c-0.1,13.67,8.94,10.94,10.47,18.1c1.76,8.21-11.77,28.14-19.49,9.61
			c-6.44-15.46-5.18-19.17-4.51-21.91c2.23-9.15,27.06-53.48,32.22-74.74c-19.33-8.38-46.06-24.14-48.37-36.31
			C235.91,361.89,257.72,347.76,257.72,347.76z"/>
		<path class="st24" d="M248.25,512.63c-4.44,0-7.19-4.87-8.51-8.05c-6.32-15.16-5.29-19.3-4.61-22.04l0.07-0.27
			c0.9-3.68,5.21-12.6,10.68-23.88c8.1-16.73,18.16-37.5,21.41-50.33c-10.78-4.71-21.76-10.74-30.18-16.58
			c-10.91-7.56-16.99-14.29-18.07-19.99c-0.05-0.27,0.07-0.54,0.31-0.68c16.06-9.37,37.82-23.46,38.04-23.6
			c0.2-0.13,0.45-0.14,0.66-0.03c0.21,0.11,0.34,0.33,0.34,0.57c0,0.21,0.17,21.45,11.18,28.72c2.45,1.62,5.26,3.13,8.23,4.72
			c7.5,4.02,15.26,8.18,16.95,14.34c0.8,2.89,0.22,5.91-1.77,9.22c-2.35,3.93-6.69,10.13-11.72,17.31
			c-13.16,18.81-31.18,44.58-31.25,54.55c-0.06,7.87,2.94,10,5.83,12.05c1.95,1.38,3.96,2.81,4.63,5.91
			c1.18,5.5-3.98,15.78-10.18,17.72C249.56,512.53,248.89,512.63,248.25,512.63z M220.39,371.7c1.25,5.21,7.26,11.67,17.45,18.73
			c8.49,5.88,19.59,11.96,30.46,16.67c0.29,0.13,0.44,0.44,0.37,0.74c-3.13,12.92-13.39,34.1-21.63,51.12
			c-5.22,10.77-9.72,20.07-10.59,23.62l-0.07,0.27c-0.64,2.58-1.61,6.47,4.55,21.23c1.65,3.95,4.54,8.38,8.97,6.99
			c5.55-1.74,10.36-11.29,9.3-16.22c-0.56-2.61-2.21-3.78-4.11-5.13c-3.02-2.14-6.44-4.56-6.38-13.11
			c0.08-10.38,18.23-36.33,31.48-55.28c5.01-7.17,9.34-13.35,11.67-17.24c1.8-3,2.33-5.69,1.63-8.22
			c-1.55-5.63-9.06-9.65-16.32-13.55c-2.87-1.54-5.84-3.13-8.34-4.78c-4.81-3.18-8.37-9.36-10.29-17.86
			c-1.06-4.69-1.35-8.83-1.43-10.77C252.75,351.74,234.48,363.45,220.39,371.7z"/>
	</g>
	<g>
		
			<linearGradient id="SVGID_29_" gradientUnits="userSpaceOnUse" x1="262.0183" y1="302.1065" x2="262.0183" y2="277.466" gradientTransform="matrix(0.991 -0.1342 0.1342 0.991 -52.7119 280.4647)">
			<stop  offset="0.0445" style="stop-color:#DE5454"/>
			<stop  offset="1" style="stop-color:#8F4B36"/>
		</linearGradient>
		<path class="st30" d="M257.15,518.49c0,0,3.25,10.12,1.92,14.21c-1.32,4.08-10.97,15.89-21.66,11.71s-0.96-22.68-0.96-22.68
			L257.15,518.49z"/>
		<path class="st24" d="M242.04,545.94c-1.64,0-3.26-0.31-4.86-0.93c-2.3-0.9-3.9-2.49-4.73-4.74c-2.65-7.11,3.19-18.37,3.44-18.84
			c0.09-0.18,0.27-0.31,0.47-0.34l20.69-3.24c0.31-0.05,0.62,0.14,0.71,0.44c0.14,0.42,3.29,10.37,1.92,14.6
			c-0.97,2.99-5.51,8.8-11.19,11.49C246.32,545.42,244.16,545.94,242.04,545.94z M236.89,522.32c-0.89,1.79-5.46,11.53-3.23,17.51
			c0.71,1.91,2.02,3.21,4,3.99c3.3,1.29,6.76,1.09,10.3-0.58c5.54-2.63,9.73-8.29,10.51-10.73c1.08-3.33-1.13-11.18-1.76-13.28
			L236.89,522.32z"/>
	</g>
	<g>
		<g>
			
				<linearGradient id="SVGID_30_" gradientUnits="userSpaceOnUse" x1="3091.7139" y1="-7.9677" x2="3232.1738" y2="-7.9677" gradientTransform="matrix(-1.1453 0.1551 0.1342 0.991 4021.9895 -271.4646)">
				<stop  offset="0.1616" style="stop-color:#CE2F2C"/>
				<stop  offset="1" style="stop-color:#FFA861"/>
			</linearGradient>
			<path class="st31" d="M446.37,168.34c18.14-0.49,30.08,6.2,32.44,22.4s-10.73,45.53-54.03,53.37s-45.33-15.51-65.63-22.61
				c-20.3-7.09-40.35-2.68-40.35-2.68s17.16-8.95,63.65,6.76C445.32,246.82,446.37,168.34,446.37,168.34z"/>
			
				<linearGradient id="SVGID_31_" gradientUnits="userSpaceOnUse" x1="3161.9441" y1="28.8251" x2="3161.9441" y2="-44.7596" gradientTransform="matrix(-1.1453 0.1551 0.1342 0.991 4021.9895 -271.4646)">
				<stop  offset="0" style="stop-color:#FDD483"/>
				<stop  offset="1" style="stop-color:#FFED91"/>
			</linearGradient>
			<path class="st32" d="M408.71,246.35c-17.74,0-25.96-7.07-33.97-13.96c-4.8-4.13-9.33-8.03-15.8-10.28
				c-19.88-6.95-39.8-2.7-39.99-2.66c-0.32,0.07-0.63-0.11-0.74-0.41c-0.11-0.3,0.02-0.64,0.31-0.79
				c0.71-0.37,17.93-8.89,64.15,6.72c16.54,5.59,30.23,4.67,40.68-2.72c11.27-7.97,16.75-22.18,19.37-32.69
				c2.85-11.45,3.01-21.13,3.01-21.23c0.01-0.35,0.28-0.63,0.63-0.64c19.66-0.53,30.8,7.19,33.1,22.95
				c2.61,17.89-12.59,46.5-54.56,54.09C418.72,245.86,413.38,246.35,408.71,246.35z M341.66,217.18c5.54,0.49,11.62,1.59,17.7,3.71
				c6.69,2.34,11.32,6.31,16.21,10.52c9.89,8.51,20.12,17.3,49.09,12.06c41.12-7.44,56.04-35.26,53.51-52.64
				c-2.16-14.84-12.66-22.2-31.18-21.86c-0.2,5.08-2.3,39.75-22.91,54.33c-10.8,7.64-24.88,8.62-41.84,2.89
				C364.47,220.19,351.1,217.87,341.66,217.18z"/>
		</g>
		<g>
			
				<linearGradient id="SVGID_32_" gradientUnits="userSpaceOnUse" x1="3124.8596" y1="-45.567" x2="3203.2605" y2="-45.567" gradientTransform="matrix(-1.1453 0.1551 0.1342 0.991 4021.9895 -271.4646)">
				<stop  offset="0" style="stop-color:#FFA861"/>
				<stop  offset="0.8384" style="stop-color:#CE2F2C"/>
			</linearGradient>
			<path class="st33" d="M344.79,157.5c7.68,19.51,26.46,20.18,41.63,23.05c5.36,1.01,10.25,2.29,14.05,4.78
				c12.98,4.76,20.26,11.5,17.95,20.27c-1.77,6.76-6.39,13.24-11.32,18.47c-2.76,2.94-5.63,5.49-8.15,7.47
				c2.2-0.15,4.51-0.36,6.97-0.63c1.42-0.15,2.8-0.35,4.14-0.6c3.85-0.67,7.37-1.67,10.61-2.93c40.43-18.79,13.84-54.24-11.31-55.01
				c-11.05-0.33-20.66-1.68-28.6-3.71c-13.43-3.44-22.15-8.83-25.07-14.62c-1.85-3.65-1.54-7.14,0.45-10.68
				c0.11-6.96,6.27-13.91,11.65-17.53c6.52-4.41,14.17-4.21,15.99,0.13c3.05-3.04-4.62-8.56-12.44-7.5
				C349.02,121.49,339.49,144.04,344.79,157.5z"/>
			
				<linearGradient id="SVGID_33_" gradientUnits="userSpaceOnUse" x1="3164.0618" y1="13.1258" x2="3164.0618" y2="-104.2594" gradientTransform="matrix(-1.1453 0.1551 0.1342 0.991 4021.9895 -271.4646)">
				<stop  offset="0" style="stop-color:#FDD483"/>
				<stop  offset="1" style="stop-color:#FFED91"/>
			</linearGradient>
			<path class="st34" d="M398.96,232.19c-0.26,0-0.51-0.16-0.6-0.41c-0.1-0.26-0.02-0.56,0.2-0.74c1.96-1.55,4.96-4.09,8.08-7.41
				c4.04-4.29,9.26-10.93,11.16-18.2c2.59-9.85-8.12-16.04-17.55-19.5c-0.05-0.02-0.09-0.04-0.13-0.07
				c-3.94-2.58-9.19-3.82-13.81-4.69c-1.81-0.34-3.64-0.65-5.57-0.97c-13.9-2.33-29.65-4.96-36.54-22.48
				c-2.75-6.99-1.62-16.18,2.96-24c5.19-8.86,13.76-14.51,24.12-15.91c5.87-0.8,11.96,2.04,13.48,5.12c0.64,1.29,0.46,2.52-0.5,3.48
				c-0.15,0.15-0.37,0.22-0.58,0.18c-0.21-0.04-0.39-0.19-0.47-0.38c-0.52-1.23-1.61-2.13-3.17-2.6c-3.28-0.98-7.94,0.1-11.87,2.75
				c-5.58,3.76-11.26,10.48-11.37,17.01c0,0.11-0.03,0.21-0.08,0.3c-1.99,3.55-2.13,6.75-0.44,10.08
				c2.94,5.82,11.93,11.03,24.66,14.28c8.34,2.13,17.91,3.37,28.46,3.69c14.72,0.45,29.51,12.29,32.29,25.85
				c1.45,7.07,0.69,20.43-20.73,30.38c-3.41,1.33-7.03,2.33-10.78,2.98c-1.32,0.25-2.69,0.44-4.18,0.61
				c-2.37,0.26-4.73,0.48-6.99,0.63C398.99,232.19,398.97,232.19,398.96,232.19z M400.76,184.75c14.2,5.23,20.53,12.49,18.29,21.01
				c-1.97,7.53-7.33,14.35-11.47,18.75c-2.41,2.57-4.75,4.68-6.61,6.23c1.61-0.13,3.24-0.29,4.89-0.47c1.46-0.16,2.8-0.35,4.09-0.59
				c3.67-0.64,7.2-1.61,10.5-2.9c20.57-9.56,21.34-22.24,19.97-28.94c-2.67-13.02-16.9-24.39-31.06-24.82
				c-10.64-0.32-20.31-1.58-28.74-3.72c-13.09-3.35-22.38-8.8-25.49-14.95c-1.85-3.65-1.72-7.3,0.39-11.15
				c0.2-6.95,6.12-13.98,11.93-17.89c4.23-2.86,9.32-4,12.96-2.92c1.49,0.44,2.65,1.23,3.41,2.29c0.07-0.35,0-0.74-0.21-1.16
				c-1.15-2.31-6.44-5.18-12.15-4.41c-9.96,1.35-18.19,6.78-23.18,15.29c-4.39,7.48-5.49,16.24-2.88,22.87c0,0,0,0,0,0
				c6.63,16.83,22,19.41,35.56,21.68c1.94,0.32,3.77,0.63,5.59,0.98C391.26,180.8,396.64,182.07,400.76,184.75z"/>
		</g>
		<g>
			
				<linearGradient id="SVGID_34_" gradientUnits="userSpaceOnUse" x1="3112.0554" y1="-35.0196" x2="3193.5786" y2="-35.0196" gradientTransform="matrix(-1.1453 0.1551 0.1342 0.991 4021.9895 -271.4646)">
				<stop  offset="0.1616" style="stop-color:#CE2F2C"/>
				<stop  offset="1" style="stop-color:#FFA861"/>
			</linearGradient>
			<path class="st35" d="M355.7,154.05c2.92,5.79,11.64,11.18,25.07,14.62c7.94,2.02,17.55,3.37,28.6,3.71
				c25.14,0.77,51.74,36.21,11.31,55.01c26.99-10.55,33.98-39.83,31.27-59.79c-3.14-23.2-37.24-31.38-50.94-19.51
				c-7.41,6.42-17.2,9.27-25.69,9.11c-7.21-0.13-13.5-2.4-16.66-6.49c-1.82-2.34-2.54-4.83-2.51-7.33
				C354.17,146.91,353.85,150.4,355.7,154.05z"/>
			
				<linearGradient id="SVGID_35_" gradientUnits="userSpaceOnUse" x1="3152.8176" y1="11.5816" x2="3152.8176" y2="-81.6201" gradientTransform="matrix(-1.1453 0.1551 0.1342 0.991 4021.9895 -271.4646)">
				<stop  offset="0" style="stop-color:#FDD483"/>
				<stop  offset="1" style="stop-color:#FFED91"/>
			</linearGradient>
			<path class="st36" d="M420.68,228.02c-0.25,0-0.49-0.15-0.59-0.39c-0.14-0.32,0.01-0.69,0.32-0.84
				c20.61-9.58,21.38-22.25,20.01-28.96c-2.67-13.02-16.9-24.39-31.06-24.82c-10.64-0.32-20.31-1.58-28.74-3.72
				c-13.09-3.35-22.38-8.8-25.49-14.95c-1.87-3.7-1.72-7.39,0.47-11.29c0.14-0.26,0.45-0.38,0.73-0.31
				c0.29,0.08,0.48,0.34,0.48,0.63c-0.04,2.52,0.76,4.85,2.37,6.92c2.92,3.78,8.96,6.12,16.16,6.24c9.13,0.17,18.59-3.18,25.26-8.95
				c7.18-6.22,19.98-7.37,31.87-2.88c11.42,4.32,18.76,12.62,20.14,22.79c2.98,22-5.66,50.31-31.68,60.48
				C420.84,228.01,420.76,228.02,420.68,228.02z M355.72,145.84c-0.97,2.72-0.79,5.28,0.55,7.92c0,0,0,0,0,0
				c2.94,5.82,11.93,11.03,24.66,14.28c8.34,2.13,17.91,3.37,28.46,3.69c14.72,0.45,29.51,12.29,32.29,25.85
				c0.83,4.04,0.94,10.13-3.11,16.46c11.22-12.91,14.81-31.17,12.75-46.37c-1.31-9.69-8.35-17.62-19.32-21.76
				c-11.27-4.26-23.84-3.17-30.57,2.65c-6.91,5.98-16.67,9.45-26.13,9.27c-7.7-0.14-13.95-2.59-17.16-6.74
				C356.89,149.47,356.08,147.71,355.72,145.84z"/>
		</g>
		<g>
			
				<linearGradient id="SVGID_36_" gradientUnits="userSpaceOnUse" x1="3209.4697" y1="-35.9592" x2="3258.2776" y2="-35.9592" gradientTransform="matrix(-1.1453 0.1551 0.1342 0.991 4021.9895 -271.4646)">
				<stop  offset="0" style="stop-color:#F87E5D"/>
				<stop  offset="1" style="stop-color:#FFED91"/>
			</linearGradient>
			<path class="st37" d="M286.71,206.06l7.28,6.47c1.98-21.22,17-25.43,29.17-21.59c9,2.85,15.3,6.08,19.54,8.82
				c-0.59-0.89-1.1-1.7-1.51-2.4c-4.31-7.29-9.3-18.97-26.44-18.07S283.01,188.5,286.71,206.06z"/>
			
				<linearGradient id="SVGID_37_" gradientUnits="userSpaceOnUse" x1="3233.874" y1="-20.139" x2="3233.874" y2="-51.7852" gradientTransform="matrix(-1.1453 0.1551 0.1342 0.991 4021.9895 -271.4646)">
				<stop  offset="0" style="stop-color:#FDD483"/>
				<stop  offset="1" style="stop-color:#FFED91"/>
			</linearGradient>
			<path class="st38" d="M293.99,213.17c-0.15,0-0.31-0.06-0.43-0.16l-7.28-6.47c-0.1-0.09-0.17-0.21-0.2-0.35
				c-1.4-6.66-0.32-12.37,3.21-16.96c4.79-6.23,13.82-9.99,25.43-10.6c16.05-0.83,21.75,9.15,25.9,16.43
				c0.39,0.68,0.76,1.33,1.13,1.95c0.44,0.75,0.95,1.55,1.49,2.38c0.17,0.25,0.14,0.59-0.08,0.81c-0.21,0.22-0.55,0.25-0.81,0.09
				c-5.24-3.39-11.77-6.33-19.39-8.75c-6.86-2.17-13.69-1.48-18.74,1.87c-5.44,3.61-8.76,10.24-9.59,19.16
				c-0.02,0.24-0.18,0.45-0.41,0.54C294.15,213.16,294.07,213.17,293.99,213.17z M287.3,205.72l6.19,5.49
				c1.06-8.7,4.51-15.21,10.03-18.87c5.38-3.57,12.61-4.31,19.84-2.02c6.63,2.1,12.45,4.6,17.34,7.44
				c-0.02-0.03-0.03-0.06-0.05-0.09c-0.37-0.63-0.75-1.29-1.14-1.97c-4.21-7.39-9.45-16.59-24.71-15.79
				c-11.07,0.58-19.99,4.26-24.48,10.09C287.05,194.25,286.04,199.54,287.3,205.72z"/>
		</g>
		<g>
			
				<linearGradient id="SVGID_38_" gradientUnits="userSpaceOnUse" x1="3118.7524" y1="23.3048" x2="3249.5884" y2="23.3048" gradientTransform="matrix(-1.1453 0.1551 0.1342 0.991 4021.9895 -271.4646)">
				<stop  offset="0" style="stop-color:#FFED91"/>
				<stop  offset="1" style="stop-color:#F87E5D"/>
			</linearGradient>
			<path class="st39" d="M297.03,208.02c0,0,2.02,2.52,4.86,5.82c12.88-3.13,27.59-3.46,40.93,8.86c13,12.03,9.16,29.9,6.76,39.07
				c5.85,16.56,18.51,32.89,43.8,31.82c35.54-1.5,55.56-26.51,62.38-40.29c-14.56,10.42-40.46,22.63-61.68,16.19
				c-21.18-6.44-27.77-17.5-31.2-43.8c-4.2-4.67-8.5-8.91-13.34-11.9C320.7,195.98,297.03,208.02,297.03,208.02z"/>
			<path class="st40" d="M391.01,294.29c-25.24,0-36.78-17.42-42.04-32.3c-0.04-0.12-0.05-0.25-0.02-0.38
				c2.93-11.18,5.44-27.33-6.57-38.44c-14.21-13.13-29.83-11.26-40.34-8.71c-0.24,0.06-0.48-0.02-0.64-0.21
				c-2.81-3.28-4.85-5.82-4.87-5.84c-0.12-0.15-0.17-0.35-0.13-0.54c0.04-0.19,0.16-0.35,0.34-0.44c0.24-0.12,24.33-12,53.14,5.8
				c5.29,3.27,9.79,7.91,13.48,12.02c0.09,0.1,0.14,0.22,0.16,0.35c3.53,27.07,10.71,37.18,30.74,43.27
				c20.02,6.08,45.43-4.87,61.11-16.09c0.24-0.17,0.57-0.16,0.79,0.03c0.23,0.19,0.29,0.51,0.16,0.78
				c-8.86,17.9-30.65,39.29-62.93,40.65C392.6,294.27,391.79,294.29,391.01,294.29z M350.25,261.75
				c5.31,14.89,17.06,32.31,43.1,31.2c30.33-1.28,51.24-20.56,60.62-37.62c-16.03,10.84-40.52,20.72-60.08,14.78
				c-20.59-6.26-28-16.58-31.62-44.14c-3.61-4-7.98-8.49-13.07-11.63c-25.38-15.68-46.95-7.87-51.14-6.08
				c0.74,0.91,2.22,2.71,4.06,4.86c22.3-5.29,34.15,2.65,41.13,9.11C355.71,233.74,353.24,250.25,350.25,261.75z"/>
		</g>
		<g>
			
				<linearGradient id="SVGID_39_" gradientUnits="userSpaceOnUse" x1="3061.1685" y1="21.0662" x2="3195.1785" y2="21.0662" gradientTransform="matrix(-1.1453 0.1551 0.1342 0.991 4021.9895 -271.4646)">
				<stop  offset="0.1616" style="stop-color:#CE2F2C"/>
				<stop  offset="1" style="stop-color:#FFA861"/>
			</linearGradient>
			<path class="st41" d="M362.88,225.69c3.43,26.3,10.02,37.36,31.2,43.8c21.22,6.44,47.11-5.76,61.68-16.19
				c0.25-0.49,0.48-0.96,0.68-1.41c1.48-3.23,2.94-6.46,4.54-9.58c5.04-9.83,11.32-18.54,22.79-22.71
				c14.87-5.39,35.15,8.43,35.78,8.86c-0.29-0.56-9.67-18.13-33.78-15.35c-17.82,2.05-24.37,16.37-25.31,18.65
				c0.77-2.68,6.07-23.08-12.17-30.21c3.82,12.41,2.41,25.88-4.14,36.42c-5.61,9.04-14.99,15.94-28.09,18.24
				C389.36,260.92,376.71,241.01,362.88,225.69z"/>
			<path class="st40" d="M406.62,271.9c-4.38,0-8.66-0.55-12.73-1.79c-20.64-6.27-28.03-16.63-31.65-44.34
				c-0.04-0.28,0.11-0.55,0.37-0.67c0.26-0.12,0.56-0.06,0.75,0.15c1.76,1.95,3.52,4,5.24,5.99c11.99,13.95,24.4,28.37,47.36,24.34
				c12.13-2.13,21.69-8.34,27.65-17.95c6.43-10.35,7.91-23.43,4.07-35.89c-0.07-0.24,0-0.49,0.18-0.66
				c0.18-0.17,0.44-0.22,0.67-0.13c14.28,5.59,14.5,19.22,13.48,26.48c3.29-5.28,10.44-13.43,23.69-14.95
				c24.59-2.83,34.03,14.94,34.42,15.7c0.14,0.26,0.07,0.58-0.15,0.78c-0.22,0.2-0.55,0.22-0.79,0.05
				c-0.84-0.58-20.7-14.03-35.19-8.79c-11.87,4.3-18,13.73-22.44,22.39c-1.49,2.91-2.89,5.97-4.25,8.94l-0.28,0.61
				c-0.21,0.46-0.44,0.93-0.69,1.43c-0.05,0.09-0.12,0.17-0.2,0.23C443.38,262.96,424.25,271.9,406.62,271.9z M363.81,227.69
				c3.63,25.51,10.95,35.25,30.46,41.18c19.96,6.06,45.29-4.81,60.99-16c0.22-0.43,0.42-0.84,0.6-1.24l0.28-0.62
				c1.36-2.98,2.77-6.05,4.27-8.99c4.55-8.88,10.86-18.56,23.15-23.02c12.23-4.43,27.91,3.78,33.91,7.38
				c-3.45-4.76-13.03-14.76-31.61-12.62c-17.2,1.98-23.67,15.55-24.79,18.25c-0.13,0.32-0.49,0.48-0.81,0.36
				c-0.32-0.11-0.5-0.46-0.41-0.79c1.05-3.63,5.35-21.73-10.55-28.92c3.45,12.42,1.8,25.34-4.59,35.64
				c-6.16,9.93-16.03,16.34-28.53,18.54c-23.68,4.16-36.33-10.55-48.55-24.77C366.37,230.64,365.09,229.15,363.81,227.69z"/>
		</g>
		<g>
			
				<linearGradient id="SVGID_40_" gradientUnits="userSpaceOnUse" x1="3206.459" y1="8.3331" x2="3246.0991" y2="8.3331" gradientTransform="matrix(-1.1453 0.1551 0.1342 0.991 4021.9895 -271.4646)">
				<stop  offset="0.1616" style="stop-color:#CE2F2C"/>
				<stop  offset="1" style="stop-color:#FFA861"/>
			</linearGradient>
			<path class="st42" d="M301.89,213.84c6.28,7.32,16.55,18.49,17.66,14.6c1.61-5.65,24.42-7.03,25.7,12.23
				c0.41,6.02,1.66,13.59,4.33,21.11c2.4-9.17,6.25-27.05-6.76-39.07C329.48,210.38,314.77,210.72,301.89,213.84z"/>
			<path class="st40" d="M349.58,262.42c-0.27,0-0.52-0.17-0.61-0.43c-2.99-8.42-4.02-16.22-4.36-21.28
				c-0.86-12.8-11.19-14.88-14.33-15.21c-5.27-0.56-9.56,1.2-10.11,3.12c-0.19,0.66-0.62,1.1-1.21,1.23
				c-0.88,0.19-3.54,0.78-17.56-15.58c-0.15-0.17-0.19-0.4-0.12-0.62c0.07-0.21,0.24-0.38,0.46-0.43
				c22.55-5.48,34.49,2.52,41.52,9.01c12.52,11.58,9.96,28.21,6.95,39.71c-0.07,0.27-0.31,0.47-0.6,0.48
				C349.6,262.42,349.59,262.42,349.58,262.42z M328.26,224.1c0.7,0,1.43,0.04,2.16,0.12c3.4,0.36,14.56,2.61,15.48,16.41
				c0.42,6.3,1.69,12.92,3.59,18.87c2.65-11.03,4.16-25.9-7.11-36.32c-13.76-12.71-28.83-11.36-39.31-8.95
				c9.51,11,14.31,14.64,15.61,14.36c0.06-0.01,0.17-0.04,0.25-0.32C319.64,225.77,323.55,224.1,328.26,224.1z"/>
		</g>
		<g>
			
				<linearGradient id="SVGID_41_" gradientUnits="userSpaceOnUse" x1="3144.4045" y1="-14.3334" x2="3252.7195" y2="-14.3334" gradientTransform="matrix(-1.1453 0.1551 0.1342 0.991 4021.9895 -271.4646)">
				<stop  offset="0" style="stop-color:#FFA861"/>
				<stop  offset="0.8384" style="stop-color:#CE2F2C"/>
			</linearGradient>
			<path class="st43" d="M293.99,212.53l4.55,4.05l8.98,7.98c0,0,23.77-7.16,38.95-4.29c13.06,2.46,18.63,11.78,44.93,11.56
				c2.34-0.01,4.87-0.11,7.56-0.29c2.52-1.98,5.38-4.53,8.15-7.47c4.93-5.24,9.55-11.72,11.32-18.47
				c2.3-8.77-4.98-15.51-17.95-20.27c2.46,1.61,4.44,3.71,5.8,6.56c3.19,6.7,0.35,13.43-5.55,18.76c-3.82,3.46-8.93,6.33-14.49,8.23
				c-2.89,0.99-5.91,1.72-8.95,2.13c-12.33,1.67-22.79-6.76-29.49-14.54c-2.08-2.41-3.79-4.74-5.1-6.71
				c-4.24-2.74-10.55-5.97-19.54-8.82C310.99,187.1,295.97,191.3,293.99,212.53z"/>
			<path class="st40" d="M390.5,232.48c-16.63,0-24.85-3.83-32.12-7.22c-3.87-1.8-7.53-3.51-12.03-4.36
				c-14.84-2.8-38.41,4.2-38.64,4.28c-0.21,0.06-0.45,0.01-0.61-0.14l-13.53-12.03c-0.15-0.14-0.23-0.34-0.21-0.54
				c0.87-9.33,4.39-16.29,10.16-20.12c5.38-3.57,12.61-4.31,19.84-2.02c7.73,2.45,14.36,5.44,19.7,8.89
				c0.07,0.05,0.14,0.11,0.19,0.19c1.48,2.24,3.23,4.54,5.05,6.65c11.62,13.5,22.14,15.24,28.91,14.32c2.97-0.4,5.94-1.11,8.83-2.1
				c5.52-1.89,10.59-4.77,14.27-8.1c3.65-3.3,9.2-10.03,5.4-18.01c-1.25-2.6-3.07-4.66-5.57-6.3c-0.27-0.18-0.37-0.54-0.22-0.83
				c0.15-0.29,0.49-0.43,0.8-0.32c14.25,5.23,20.6,12.5,18.36,21.03c-1.97,7.53-7.33,14.35-11.47,18.75
				c-3.17,3.37-6.22,5.96-8.22,7.54c-0.1,0.08-0.23,0.13-0.36,0.14c-2.7,0.18-5.26,0.27-7.6,0.29
				C391.1,232.47,390.8,232.48,390.5,232.48z M338.23,218.94c2.92,0,5.75,0.2,8.36,0.7c4.65,0.88,8.38,2.62,12.33,4.45
				c7.28,3.39,15.52,7.25,32.48,7.1c2.26-0.01,4.72-0.1,7.32-0.27c1.97-1.56,4.89-4.05,7.92-7.28c4.04-4.29,9.26-10.93,11.16-18.2
				c2.25-8.54-5.52-14.34-13.77-17.98c1.15,1.22,2.08,2.6,2.83,4.15c3.09,6.47,1.06,13.41-5.7,19.52c-3.86,3.5-8.95,6.39-14.72,8.37
				c-2.97,1.02-6.02,1.74-9.07,2.16c-7.09,0.96-18.07-0.82-30.06-14.76c-1.82-2.11-3.57-4.41-5.07-6.66
				c-5.22-3.36-11.71-6.28-19.28-8.67c-6.85-2.16-13.69-1.48-18.74,1.87c-5.37,3.57-8.67,10.08-9.56,18.84l13.02,11.57
				C310.22,223.1,325.06,218.94,338.23,218.94z"/>
		</g>
	</g>
	<g>
		
			<linearGradient id="SVGID_42_" gradientUnits="userSpaceOnUse" x1="262.5128" y1="287.0282" x2="262.5128" y2="-118.836" gradientTransform="matrix(0.991 -0.1342 0.1342 0.991 -52.7119 280.4647)">
			<stop  offset="0.0445" style="stop-color:#F77B5C"/>
			<stop  offset="0.5119" style="stop-color:#FFEAE0"/>
		</linearGradient>
		<path class="st44" d="M342.47,274.56c1.03,46.23-15.73,56.75-22.08,91.63c-5.22,28.67-26.25,51.02-26.25,51.02l0,0
			c1.83,6.21,0.67,12.91-3.13,18.15c-5.44,7.49-13.1,17.9-16.53,21.94c-5.61,6.61-19.73,44.35-19.97,52.19
			c-0.24,7.83,3.52,9.27,2.58,10.95c-1.4,2.51-2.9,10.59-15.46,9.02c-10.31-1.29-3.87-12.24-1.29-19.33
			c2.61-7.17,14.17-25.77,19.43-39.51c2.58-6.73,9.64-24.62,16-35.24c6.36-10.62,2.54-26.5,6.74-37.77
			c3.04-8.15-2.74-41.62-1.59-56.3c-15.49,14.41-38.44,26.37-54.77,32.22c-30.66,10.98-49.91,6.62-88.92-5.15
			c-39-11.78-51.73-32.15-52.08-58.76c-0.35-26.61,11.3-50.95,14.2-80.37c2.89-29.42,2-68.77-0.12-89.29
			c0,0,61.81,51.18,66.11,52.68c2.74,0.96,14.05,6.48,25.77,17.09c9.86-0.09,12.94-2.61,25.51-9.6c12.3-6.84,31.01-15.9,57.03-10.98
			C299.68,194.09,341.44,228.33,342.47,274.56z"/>
		
			<linearGradient id="SVGID_43_" gradientUnits="userSpaceOnUse" x1="262.508" y1="287.6791" x2="262.508" y2="-119.4807" gradientTransform="matrix(0.991 -0.1342 0.1342 0.991 -52.7119 280.4647)">
			<stop  offset="0.1247" style="stop-color:#7A2C29"/>
			<stop  offset="0.9555" style="stop-color:#F77B5C"/>
		</linearGradient>
		<path class="st45" d="M244.69,530.31c-0.97,0-2.02-0.07-3.16-0.21c-2.66-0.33-4.48-1.33-5.44-2.96
			c-2.01-3.44,0.26-8.96,2.27-13.83c0.5-1.21,0.97-2.35,1.35-3.4c1.15-3.16,3.98-8.44,7.25-14.55c4.32-8.08,9.23-17.23,12.19-24.96
			c2.73-7.12,9.75-24.82,16.05-35.34c3.47-5.79,3.85-13.37,4.21-20.7c0.29-5.85,0.59-11.9,2.48-16.96c1.64-4.39,0.58-17-0.44-29.19
			c-0.77-9.23-1.57-18.75-1.28-25.33c-16.27,14.67-39.01,25.97-53.81,31.27c-30.22,10.82-48.49,7.18-89.32-5.14
			c-18.93-5.72-32.29-13.58-40.85-24.03c-7.68-9.37-11.5-20.93-11.69-35.34c-0.2-14.89,3.3-28.9,7.01-43.74
			c2.91-11.65,5.92-23.7,7.2-36.7c2.78-28.27,2.12-67.53-0.12-89.16c-0.03-0.26,0.11-0.51,0.34-0.63c0.23-0.12,0.51-0.1,0.71,0.07
			c17.17,14.21,62.47,51.37,65.91,52.57c2.38,0.83,13.7,6.15,25.8,17.05c8.29-0.12,11.7-2.04,20.68-7.12
			c1.3-0.73,2.71-1.53,4.27-2.4c14.55-8.09,32.75-15.72,57.46-11.05c14.06,2.66,30.97,13.16,44.14,27.41
			c15.79,17.09,24.75,37.9,25.21,58.61c0.63,28.52-5.38,43.29-11.74,58.93c-3.89,9.55-7.91,19.43-10.35,32.83
			c-4.89,26.83-23.77,48.42-26.16,51.07c1.73,6.26,0.49,13.1-3.33,18.36c-5.68,7.82-13.16,17.97-16.56,21.98
			c-5.76,6.79-19.59,44.26-19.82,51.79c-0.14,4.6,1.13,6.87,1.97,8.37c0.57,1.02,1.07,1.91,0.53,2.88c-0.17,0.31-0.35,0.72-0.56,1.2
			C255.77,524.96,253.44,530.31,244.69,530.31z M280.92,340.68c0.1,0,0.19,0.02,0.28,0.06c0.24,0.12,0.38,0.37,0.36,0.63
			c-0.51,6.47,0.35,16.77,1.19,26.73c1.08,12.9,2.1,25.08,0.36,29.74c-1.82,4.88-2.1,10.56-2.4,16.58
			c-0.37,7.49-0.75,15.24-4.39,21.3c-6.25,10.43-13.24,28.04-15.96,35.13c-2.99,7.81-7.91,17-12.25,25.11
			c-3.25,6.07-6.06,11.31-7.17,14.38c-0.39,1.08-0.87,2.24-1.37,3.46c-1.89,4.59-4.03,9.79-2.35,12.69
			c0.75,1.28,2.21,2.04,4.48,2.33c10.42,1.31,12.79-4.13,14.21-7.38c0.22-0.51,0.41-0.95,0.62-1.31c0.18-0.32,0.01-0.67-0.52-1.62
			c-0.86-1.53-2.29-4.08-2.13-9.04c0.23-7.65,14.28-45.69,20.13-52.59c3.37-3.98,10.84-14.11,16.5-21.91
			c3.66-5.04,4.79-11.61,3.03-17.59c-0.06-0.22-0.01-0.46,0.15-0.62c0.21-0.22,20.96-22.55,26.08-50.69
			c2.46-13.53,6.51-23.47,10.42-33.08c6.31-15.51,12.28-30.16,11.65-58.42c-0.45-20.39-9.28-40.91-24.86-57.76
			c-12.99-14.05-29.63-24.4-43.43-27.02c-24.31-4.6-42.26,2.93-56.6,10.91c-1.56,0.87-2.97,1.66-4.26,2.4
			c-9.28,5.24-12.75,7.2-21.55,7.29c0,0,0,0-0.01,0c-0.16,0-0.31-0.06-0.43-0.17c-12.01-10.87-23.21-16.14-25.55-16.96
			c-4.07-1.43-56.19-44.43-65.1-51.8c2.12,21.98,2.69,60.17-0.03,87.85c-1.29,13.1-4.31,25.19-7.23,36.89
			c-3.68,14.75-7.16,28.69-6.97,43.41c0.39,29.55,16.31,47.49,51.62,58.15c40.53,12.24,58.66,15.86,88.51,5.16
			c15.04-5.39,38.36-17.02,54.55-32.08C280.6,340.74,280.76,340.68,280.92,340.68z"/>
	</g>
	<g>
		<path class="st46" d="M210,233.54c-0.22,0-0.44-0.12-0.56-0.32c-14.48-25.19-39.01-38.11-44.31-39.96
			c-0.34-0.12-0.51-0.48-0.4-0.82c0.12-0.34,0.49-0.51,0.82-0.4c5.39,1.88,30.33,15,45,40.53c0.18,0.31,0.07,0.7-0.24,0.88
			C210.22,233.51,210.11,233.54,210,233.54z"/>
	</g>
	<g>
		<path class="st47" d="M177.18,198.93c-3.53,4.94-14.17,15.59-14.17,23.2c0,8.38-5.8,13.53-13.53,16.11
			c-16.58,5.53-28.99,1.1-40.59-9.66c-3.8-3.53-6.6-7.07-8.65-10.24c0.2-3.07,0.37-6.21,0.5-9.38c6.63,12.48,15.79,23,41.01,18.34
			c11.88-2.19,20.72-11.27,21.91-21.26c0.61-5.17,2.21-9.36,3.84-12.46C169.01,194.26,173.96,196.35,177.18,198.93z"/>
		<path class="st48" d="M135.84,240.96c-9.63,0-18.35-3.97-27.17-12.16c-3.39-3.15-6.32-6.62-8.7-10.31
			c-0.04-0.06-0.06-0.13-0.05-0.2c0.2-3.04,0.37-6.19,0.5-9.37c0.01-0.15,0.11-0.27,0.25-0.3c0.15-0.03,0.29,0.03,0.36,0.16
			c6.01,11.32,14.61,22.98,40.67,18.17c11.35-2.09,20.45-10.92,21.65-20.98c0.53-4.45,1.83-8.68,3.87-12.57
			c0.08-0.15,0.27-0.21,0.42-0.14c0.19,0.09,0.42,0.2,0.71,0.32c2.01,0.91,6.19,2.81,9.05,5.09c0.13,0.11,0.16,0.3,0.06,0.44
			c-0.81,1.13-1.97,2.54-3.32,4.17c-4.56,5.52-10.8,13.08-10.8,18.84c0,7.63-4.88,13.46-13.75,16.41
			C144.75,240.15,140.2,240.96,135.84,240.96z M100.56,218.24c2.34,3.61,5.22,7.01,8.54,10.09c12.62,11.72,25.04,14.67,40.27,9.59
			c11-3.67,13.31-10.62,13.31-15.8c0-5.99,6.33-13.65,10.95-19.25c1.24-1.5,2.32-2.81,3.11-3.88c-2.78-2.15-6.74-3.94-8.67-4.82
			c-0.16-0.07-0.3-0.14-0.43-0.2c-1.93,3.75-3.16,7.81-3.66,12.08c-1.23,10.34-10.55,19.4-22.17,21.54
			c-4.2,0.78-7.96,1.13-11.33,1.13c-17.23,0-24.36-9.25-29.47-18.6C100.88,212.88,100.73,215.6,100.56,218.24z"/>
	</g>
	<g>
		<linearGradient id="SVGID_44_" gradientUnits="userSpaceOnUse" x1="194.6934" y1="217.5226" x2="194.6934" y2="209.0944">
			<stop  offset="0.1247" style="stop-color:#7A2C29"/>
			<stop  offset="0.9555" style="stop-color:#F77B5C"/>
		</linearGradient>
		<path class="st49" d="M198.27,217.52c-0.17,0-0.35-0.07-0.48-0.21c-2.21-2.44-4.61-4.82-7.11-7.09c-0.26-0.24-0.28-0.65-0.05-0.91
			c0.24-0.26,0.65-0.28,0.91-0.05c2.54,2.3,4.96,4.71,7.2,7.18c0.24,0.26,0.22,0.67-0.04,0.91
			C198.58,217.47,198.43,217.52,198.27,217.52z"/>
	</g>
	<g>
		
			<linearGradient id="SVGID_45_" gradientUnits="userSpaceOnUse" x1="347.5018" y1="105.6444" x2="347.5018" y2="46.5492" gradientTransform="matrix(0.991 -0.1342 0.1342 0.991 -52.7119 280.4647)">
			<stop  offset="0.1247" style="stop-color:#AA4A3D"/>
			<stop  offset="0.9555" style="stop-color:#F77B5C"/>
		</linearGradient>
		<path class="st50" d="M280.85,341.89c-0.18,0-0.36-0.08-0.49-0.22c-0.23-0.27-0.2-0.68,0.07-0.91
			c12.71-10.95,21.13-21.92,25-32.62c10.4-28.71,16.94-31.42,17.21-31.52c0.34-0.13,0.7,0.05,0.83,0.38
			c0.12,0.33-0.04,0.7-0.37,0.82c-0.12,0.06-6.44,3.1-16.46,30.76c-3.95,10.91-12.49,22.06-25.37,33.16
			C281.15,341.83,281,341.89,280.85,341.89z"/>
	</g>
	<g>
		
			<linearGradient id="SVGID_46_" gradientUnits="userSpaceOnUse" x1="224.7135" y1="256.4846" x2="224.7135" y2="62.6407" gradientTransform="matrix(0.991 -0.1342 0.1342 0.991 -52.7119 280.4647)">
			<stop  offset="0.0445" style="stop-color:#F77B5C"/>
			<stop  offset="0.5119" style="stop-color:#FFEAE0"/>
		</linearGradient>
		<path class="st51" d="M235.82,304.6c-7.12,49.58-14.13,74.4-21.91,80.54c-7.77,6.14-52.19,42.52-61.85,52.83
			c2.58,12.24,22.33,43.71,26.42,45.1c8.3-1.12,10.35-0.66,12.89,6.44c3.22,9.02-5.8,32.22-16.11,3.87
			c-1.6-4.41-4.07,3.66-6.44-9.02c-2.27-12.18-23.22-24.54-28.99-36.08c-4.51-9.02-3.19-11.4,5.65-23
			c8.83-11.6,21.41-33.05,26.48-46.13c-6.21-8.76-15.36-17.42-26.69-38.65"/>
		
			<linearGradient id="SVGID_47_" gradientUnits="userSpaceOnUse" x1="224.7235" y1="257.1316" x2="224.7235" y2="61.9967" gradientTransform="matrix(0.991 -0.1342 0.1342 0.991 -52.7119 280.4647)">
			<stop  offset="0.1247" style="stop-color:#7A2C29"/>
			<stop  offset="0.9555" style="stop-color:#F77B5C"/>
		</linearGradient>
		<path class="st52" d="M185.25,507.68c-2.77,0-6.52-2.86-10.6-14.07c-0.42-1.16-0.69-1.13-1.42-1.03
			c-1.96,0.26-3.57-0.18-5.05-8.09c-1.24-6.66-8.43-13.56-15.39-20.24c-5.65-5.42-10.98-10.54-13.55-15.68
			c-4.72-9.44-3.03-12.2,5.71-23.68c8.2-10.77,20.93-32.07,26.27-45.65c-1.65-2.31-3.48-4.59-5.59-7.21
			c-5.67-7.05-12.72-15.82-20.94-31.23c-0.17-0.31-0.05-0.7,0.26-0.87c0.31-0.17,0.7-0.05,0.87,0.26
			c8.17,15.3,15.18,24.02,20.81,31.03c2.11,2.63,4.11,5.11,5.84,7.55c0.12,0.18,0.15,0.4,0.07,0.61
			c-5.3,13.67-18.26,35.37-26.57,46.29c-8.67,11.39-9.98,13.52-5.58,22.32c2.47,4.94,7.72,9.98,13.29,15.32
			c7.1,6.81,14.44,13.86,15.76,20.93c1.37,7.34,2.61,7.18,3.62,7.05c1.07-0.14,2.08-0.1,2.8,1.87c3.43,9.43,7.21,14.19,10.37,13.05
			c4.07-1.47,6.31-11.48,4.53-16.48c-2.4-6.73-4.19-7.11-12.19-6.02c-0.1,0.01-0.2,0-0.29-0.03c-4.75-1.62-24.33-33.64-26.84-45.58
			c-0.04-0.21,0.02-0.42,0.16-0.57c9.59-10.23,53.9-46.57,61.92-52.9c7.82-6.18,14.71-31.64,21.67-80.13
			c0.05-0.35,0.37-0.59,0.73-0.55c0.35,0.05,0.6,0.38,0.55,0.73c-7.01,48.84-14.05,74.56-22.15,80.95
			c-7.94,6.27-51.55,42.02-61.55,52.52c1.46,6.39,7.38,17.61,12.49,26.09c6.54,10.85,11.66,17.35,13.31,18.16
			c8.33-1.12,10.75-0.55,13.41,6.89c2.03,5.67-0.47,16.38-5.3,18.13C186.23,507.58,185.75,507.68,185.25,507.68z"/>
	</g>
	<g>
		<path class="st53" d="M118.96,83.97c22.3-6.18,39.3,23.43,38.77,31.81c-0.41,6.56-1.52,8.01-1.52,8.01s8.76,35.87,6.31,46.61
			c8.51,19.65,8.03,37.6-9.32,41.58s-18.42-11.2-18.42-11.2s-8.99-3.94-7.82-14.51c-8.49-9.9-11.65-14.03-13.88-20.88
			c-2.23-6.85-11.19-15.39-13.85-25.43c-2.66-10.04-10.47-29.3-5.1-37.67S105.17,87.79,118.96,83.97z"/>
		<path class="st54" d="M147.79,213.29c-3.28,0-6.06-0.83-8.3-2.49c-4.23-3.13-5.14-8.18-5.32-9.6c-1.67-0.88-8.79-5.21-7.88-14.71
			c-8.22-9.59-11.56-13.92-13.83-20.89c-0.94-2.88-3.17-6.18-5.54-9.67c-3.18-4.69-6.78-10-8.32-15.8c-0.5-1.9-1.2-4.16-1.94-6.57
			c-3.2-10.38-7.59-24.59-3.08-31.62c5.74-8.94,11.7-14.85,25.2-18.59l0,0c7.96-2.21,16.17-0.13,23.72,5.99
			c4.49,3.65,8.68,8.7,11.78,14.24c2.69,4.81,4.26,9.5,4.09,12.24c-0.33,5.28-1.11,7.36-1.47,8.07c0.83,3.46,8.52,35.82,6.3,46.45
			c5.84,13.58,6.94,25.23,3.09,32.84c-2.45,4.85-6.81,8.02-12.95,9.43C151.36,213.06,149.51,213.29,147.79,213.29z M118.96,83.97
			l0.17,0.62c-13.1,3.63-18.89,9.36-24.46,18.04c-4.19,6.52,0.1,20.41,3.23,30.54c0.74,2.41,1.45,4.69,1.96,6.62
			c1.48,5.59,5.02,10.8,8.14,15.41c2.42,3.57,4.71,6.94,5.7,9.99c2.22,6.83,5.36,10.86,13.76,20.66c0.12,0.14,0.17,0.31,0.15,0.49
			c-1.1,9.95,7.09,13.69,7.44,13.84c0.22,0.1,0.37,0.31,0.38,0.54c0,0.06,0.47,5.8,4.85,9.04c3.09,2.29,7.4,2.82,12.79,1.58
			c5.75-1.32,9.82-4.26,12.09-8.75c3.69-7.3,2.55-18.64-3.21-31.94c-0.05-0.13-0.07-0.27-0.04-0.4c2.39-10.46-6.22-45.96-6.31-46.31
			c-0.05-0.19,0-0.39,0.11-0.54c0,0,1-1.53,1.39-7.66c0.31-4.89-5.68-17.51-15.39-25.4c-5.03-4.08-13.03-8.39-22.56-5.75
			L118.96,83.97z"/>
	</g>
	<g>
		<linearGradient id="SVGID_48_" gradientUnits="userSpaceOnUse" x1="143.8105" y1="111.9577" x2="138.5265" y2="72.9474">
			<stop  offset="0.1616" style="stop-color:#CE2F2C"/>
			<stop  offset="1" style="stop-color:#FFA861"/>
		</linearGradient>
		<path class="st55" d="M177.16,107.44c-3.55-10.96-18.47-12.85-25.08-12.17c-7.07,0.72-17.08-1.68-24.09-9
			c-6.62-6.9-15.91-5.22-21.78-1.17c1.4-6.21,6.38-10.39,14.34-8.81c8.77,1.74,13.66,8.65,20.25,10.59
			c6.06,1.78,10.06-3.74,23.12,2.72C172.44,93.79,175.94,103.06,177.16,107.44z"/>
		<path class="st40" d="M177.16,108.09c-0.27,0-0.52-0.17-0.61-0.45c-3.37-10.4-17.89-12.39-24.4-11.73
			c-6.64,0.68-17.08-1.32-24.62-9.2c-4.46-4.65-12.67-6.79-20.95-1.09c-0.22,0.15-0.51,0.15-0.73,0c-0.22-0.15-0.33-0.42-0.27-0.68
			c1.63-7.26,7.42-10.83,15.1-9.3c5.06,1,8.93,3.73,12.34,6.13c2.66,1.88,5.18,3.65,7.97,4.47c2.05,0.6,3.89,0.3,6.01-0.04
			c3.87-0.63,8.69-1.41,17.21,2.8c8.88,4.39,12.44,14.23,13.56,18.26c0.09,0.34-0.1,0.69-0.44,0.79
			C177.28,108.08,177.22,108.09,177.16,108.09z M154.7,94.5c3.22,0,7.33,0.49,11.28,1.88c3.33,1.17,6.06,2.82,8.11,4.89
			c-2.01-4.02-5.29-8.55-10.45-11.11c-8.15-4.03-12.55-3.32-16.44-2.68c-2.18,0.35-4.25,0.69-6.58,0.01
			c-2.99-0.88-5.59-2.71-8.35-4.65c-3.47-2.44-7.06-4.97-11.85-5.92c-6.33-1.25-11.22,1.3-13.13,6.72
			c8.4-4.94,16.58-2.59,21.16,2.18c7.22,7.54,17.2,9.45,23.56,8.81C152.81,94.55,153.71,94.5,154.7,94.5z"/>
	</g>
	<g>
		<linearGradient id="SVGID_49_" gradientUnits="userSpaceOnUse" x1="123.0896" y1="126.5954" x2="117.5451" y2="85.6622">
			<stop  offset="0" style="stop-color:#FFED91"/>
			<stop  offset="1" style="stop-color:#F87E5D"/>
		</linearGradient>
		<path class="st56" d="M128.24,125.69c5.53-9.73,4.07-17.49,1.27-22.77c-3.67-6.91-17.22-12.78-26.01-13.26
			c1.97-2.7,6.3-3.58,11.41-2.56c14.91,2.97,20.34,15.59,20.41,23.01c0.07,7.18-6.77,15.3-7.19,15.8c0-0.01,0-0.01,0-0.01
			c0.01-0.02,0.03-0.05,0.04-0.06c0.01-0.02,0.03-0.05,0.03-0.06C128.21,125.75,128.22,125.72,128.24,125.69z"/>
		<path class="st40" d="M128.13,126.56c-0.07,0-0.15-0.01-0.22-0.04c-0.25-0.09-0.42-0.33-0.42-0.6c0-0.12,0.04-0.26,0.1-0.36
			l0.02-0.03c0.01-0.01,0.01-0.03,0.02-0.04c0-0.01,0.05-0.09,0.05-0.1c5.57-9.79,3.76-17.45,1.26-22.15
			c-3.49-6.57-16.79-12.44-25.48-12.92c-0.24-0.01-0.45-0.15-0.55-0.37c-0.1-0.21-0.08-0.46,0.06-0.66
			c2.08-2.85,6.58-3.9,12.06-2.81c15.22,3.03,20.86,15.8,20.93,23.63c0.07,7.47-7.04,15.87-7.34,16.22
			C128.49,126.48,128.31,126.56,128.13,126.56z M128.24,125.69L128.24,125.69L128.24,125.69z M127.58,125.57
			C127.58,125.57,127.58,125.57,127.58,125.57C127.58,125.57,127.58,125.57,127.58,125.57z M127.63,125.48
			c0,0.01-0.01,0.01-0.01,0.02L127.63,125.48z M104.87,89.13c9.13,0.97,21.64,6.78,25.2,13.49c2.11,3.97,3.76,9.92,1.39,17.38
			c1.67-2.88,3.24-6.5,3.21-9.88c-0.07-7.42-5.43-19.5-19.89-22.38C110.49,86.88,106.91,87.41,104.87,89.13z"/>
	</g>
	<g>
		<linearGradient id="SVGID_50_" gradientUnits="userSpaceOnUse" x1="128.1192" y1="125.9261" x2="128.1192" y2="125.9003">
			<stop  offset="0.1616" style="stop-color:#CE2F2C"/>
			<stop  offset="1" style="stop-color:#FFA861"/>
		</linearGradient>
		<path class="st57" d="M128.13,125.9c0,0.01,0,0.01,0,0.01c-0.01,0.01-0.01,0.01-0.01,0.01
			C128.11,125.92,128.12,125.91,128.13,125.9z"/>
		<path class="st40" d="M128.11,126.56c-0.09,0-0.17-0.02-0.25-0.05c-0.23-0.1-0.39-0.33-0.39-0.58c0-0.12,0.04-0.26,0.11-0.36
			c0.15-0.24,0.45-0.36,0.73-0.28c0.28,0.08,0.47,0.33,0.47,0.61v0.01c0,0.18-0.08,0.35-0.21,0.48
			C128.44,126.5,128.28,126.56,128.11,126.56z"/>
	</g>
	<g>
		<linearGradient id="SVGID_51_" gradientUnits="userSpaceOnUse" x1="120.4182" y1="126.6689" x2="115.1911" y2="88.0794">
			<stop  offset="0.1616" style="stop-color:#CE2F2C"/>
			<stop  offset="1" style="stop-color:#FFA861"/>
		</linearGradient>
		<path class="st58" d="M128.28,125.6c0.78-1.57,3.8-8.52-0.31-14.5c-2.96-4.3-9.39-3.88-14.94-4.98c-3.2-0.64-6.11-1.78-7.87-4.66
			c-2.34-3.81-3.11-6.91-2.71-9.26c0.16-0.98,0.52-1.82,1.05-2.55c8.79,0.48,22.34,6.35,26.01,13.26
			C132.3,108.18,133.76,115.92,128.28,125.6z"/>
		<path class="st40" d="M128.28,126.25c-0.1,0-0.21-0.02-0.3-0.08c-0.31-0.16-0.43-0.54-0.27-0.86c0.65-1.31,3.68-8.11-0.26-13.85
			c-2.08-3.03-6.12-3.54-10.39-4.09c-1.37-0.17-2.79-0.36-4.15-0.62c-2.79-0.56-6.26-1.62-8.3-4.95c-2.3-3.76-3.25-7.02-2.8-9.7
			c0.17-1.06,0.57-2.01,1.17-2.82c0.13-0.17,0.33-0.27,0.55-0.26c9.2,0.51,22.8,6.56,26.54,13.6c2.64,4.97,4.57,13.04-1.23,23.3
			C128.72,126.13,128.5,126.25,128.28,126.25z M103.82,90.33c-0.37,0.58-0.61,1.23-0.74,1.98c-0.39,2.33,0.52,5.38,2.63,8.82
			c1.41,2.3,3.63,3.6,7.45,4.36c1.31,0.26,2.71,0.44,4.06,0.61c4.37,0.56,8.88,1.13,11.29,4.64c1.62,2.36,2.18,4.87,2.21,7.16
			c1.5-6.25,0.05-11.25-1.78-14.67C125.49,96.74,112.5,90.95,103.82,90.33z"/>
	</g>
	<g>
		
			<linearGradient id="SVGID_52_" gradientUnits="userSpaceOnUse" x1="-702.9188" y1="-454.0602" x2="-702.9188" y2="-470.3631" gradientTransform="matrix(0.5899 -0.174 0.2294 0.7775 655.6995 429.696)">
			<stop  offset="0.0445" style="stop-color:#DE5454"/>
			<stop  offset="1" style="stop-color:#8F4B36"/>
		</linearGradient>
		<path class="st59" d="M131.58,186.75c2.46-0.86,9.6,8.29,7.89,10.6s-5.61,2.59-7.39-2.29
			C130.21,189.93,130.31,187.2,131.58,186.75z"/>
		<path class="st60" d="M136.41,199.6c-0.2,0-0.39-0.01-0.59-0.04c-1.1-0.16-3.12-0.93-4.34-4.28c-0.99-2.73-2-6.35-1.15-8.15
			c0.23-0.49,0.59-0.83,1.04-0.99c0,0,0,0,0,0c2.35-0.83,6.03,4.05,6.45,4.61c0.86,1.17,3.56,5.12,2.18,6.98
			C139.11,198.92,137.78,199.6,136.41,199.6z M131.79,187.36c-0.05,0.02-0.18,0.06-0.3,0.32c-0.19,0.4-0.65,2.08,1.2,7.16
			c0.74,2.02,1.91,3.24,3.32,3.44c1.1,0.16,2.23-0.34,2.95-1.31c0.45-0.6-0.16-2.72-2.18-5.45
			C134.74,188.75,132.52,187.11,131.79,187.36L131.79,187.36z"/>
	</g>
	<g>
		
			<linearGradient id="SVGID_53_" gradientUnits="userSpaceOnUse" x1="4743.3037" y1="-58.2704" x2="4743.3037" y2="-72.3638" gradientTransform="matrix(-0.6006 0.0813 0.1342 0.991 3019.875 -135.7257)">
			<stop  offset="0.0445" style="stop-color:#DE5454"/>
			<stop  offset="1" style="stop-color:#8F4B36"/>
		</linearGradient>
		<path class="st61" d="M162.36,178.31c-2.28,0.15-4.01,11.98-1.75,13.7c2.26,1.72,5.69-0.77,5.17-6.77
			C165.24,178.94,163.55,178.23,162.36,178.31z"/>
		<path class="st60" d="M162.14,193.18c-0.67,0-1.33-0.22-1.91-0.66c-2.06-1.56-1.34-8.21-0.36-11.49c0.66-2.2,1.46-3.3,2.45-3.37h0
			c2.32-0.14,3.65,2.3,4.11,7.52c0.37,4.27-1.17,6.72-2.74,7.58C163.19,193.04,162.66,193.18,162.14,193.18z M162.5,178.95
			c-0.03,0-0.06,0-0.09,0c0,0,0,0,0,0c-0.12,0.01-0.7,0.45-1.3,2.45c-1.16,3.87-1.21,9.25-0.1,10.09c0.63,0.48,1.36,0.53,2.06,0.15
			c1.16-0.64,2.39-2.68,2.08-6.34C164.89,182.39,164.23,178.95,162.5,178.95z M162.36,178.31L162.36,178.31L162.36,178.31z"/>
	</g>
	<g>
		
			<linearGradient id="SVGID_54_" gradientUnits="userSpaceOnUse" x1="194.7022" y1="-67.5851" x2="194.7022" y2="-69.5222" gradientTransform="matrix(0.991 -0.1342 0.1342 0.991 -52.7119 280.4647)">
			<stop  offset="0.0445" style="stop-color:#DE5454"/>
			<stop  offset="1" style="stop-color:#8F4B36"/>
		</linearGradient>
		<path class="st62" d="M128.98,185.7c1.37-0.3,4.09,1.4,4.09,1.4"/>
		<path class="st60" d="M133.07,187.74c-0.12,0-0.23-0.03-0.34-0.1c-1.04-0.65-2.85-1.48-3.61-1.31c-0.34,0.08-0.69-0.15-0.77-0.49
			c-0.07-0.35,0.15-0.69,0.49-0.77c1.58-0.34,4.27,1.29,4.57,1.48c0.3,0.19,0.39,0.59,0.21,0.89
			C133.5,187.63,133.29,187.74,133.07,187.74z"/>
	</g>
	<g>
		
			<linearGradient id="SVGID_55_" gradientUnits="userSpaceOnUse" x1="226.9288" y1="-71.258" x2="226.9288" y2="-74.743" gradientTransform="matrix(0.991 -0.1342 0.1342 0.991 -52.7119 280.4647)">
			<stop  offset="0.0445" style="stop-color:#DE5454"/>
			<stop  offset="1" style="stop-color:#8F4B36"/>
		</linearGradient>
		<path class="st63" d="M163.65,175.73c-1.56,1.48-1.93,2.58-2.58,3.87"/>
		<path class="st60" d="M161.08,180.24c-0.1,0-0.2-0.02-0.29-0.07c-0.32-0.16-0.45-0.55-0.29-0.86c0.09-0.19,0.18-0.37,0.27-0.55
			c0.53-1.1,1.03-2.14,2.44-3.49c0.26-0.24,0.67-0.24,0.91,0.02c0.25,0.26,0.24,0.67-0.02,0.91c-1.24,1.18-1.67,2.08-2.17,3.11
			c-0.09,0.19-0.18,0.38-0.28,0.57C161.54,180.11,161.31,180.24,161.08,180.24z"/>
	</g>
	<g>
		
			<linearGradient id="SVGID_56_" gradientUnits="userSpaceOnUse" x1="296.0164" y1="35.3042" x2="307.3397" y2="-48.2915" gradientTransform="matrix(0.991 -0.1342 0.1342 0.991 -52.7119 280.4647)">
			<stop  offset="0" style="stop-color:#428C87"/>
			<stop  offset="1" style="stop-color:#79C496"/>
		</linearGradient>
		<path class="st64" d="M299.62,227.25c-4.53,22.19-54.28,45.71-64.96,48.46c-0.87-30.44-23.35-47.55-31.66-53.22
			c-3.79-4.87-7.86-9.11-11.88-12.76c9.86-0.09,12.94-2.61,25.51-9.6c4.98-2.77,11-5.9,18.13-8.32c0.08-0.01,0.17-0.02,0.25-0.02
			C251.46,190.6,273.65,189.16,299.62,227.25z"/>
		
			<linearGradient id="SVGID_57_" gradientUnits="userSpaceOnUse" x1="331.1764" y1="22.1094" x2="264.8946" y2="-50.7689" gradientTransform="matrix(0.991 -0.1342 0.1342 0.991 -52.7119 280.4647)">
			<stop  offset="0" style="stop-color:#0E453F"/>
			<stop  offset="1" style="stop-color:#CB604B"/>
		</linearGradient>
		<path class="st65" d="M234.66,276.36c-0.14,0-0.27-0.04-0.39-0.13c-0.16-0.12-0.25-0.3-0.26-0.5c-0.8-27.79-20-44.95-31.38-52.71
			c-0.06-0.04-0.1-0.08-0.15-0.14c-3.45-4.44-7.42-8.7-11.81-12.68c-0.2-0.18-0.26-0.46-0.17-0.71c0.09-0.25,0.33-0.41,0.6-0.42
			c8.47-0.08,11.86-2,20.93-7.12c1.3-0.73,2.71-1.53,4.27-2.4c4.96-2.76,11.01-5.91,18.23-8.37c0.04-0.01,0.08-0.02,0.12-0.03
			c0.09-0.01,0.19-0.02,0.28-0.02c16.43-1.2,38.92-2.83,65.21,35.74c0.1,0.14,0.13,0.32,0.1,0.49
			c-2.48,12.16-17.93,24.08-30.46,31.94c-14.13,8.87-29.39,15.58-34.97,17.02C234.77,276.35,234.71,276.36,234.66,276.36z
			 M203.44,222.02c11.48,7.84,30.67,25.04,31.83,52.86c11.33-3.41,58.94-26.09,63.66-47.48c-25.8-37.72-47.81-36.12-63.89-34.95
			c-0.06,0-0.11,0.01-0.16,0.01c-7.1,2.42-13.06,5.53-17.95,8.25c-1.56,0.87-2.97,1.66-4.26,2.4c-8.69,4.91-12.29,6.94-19.95,7.25
			C196.67,214.03,200.27,217.95,203.44,222.02z"/>
	</g>
	<g>
		<path class="st66" d="M198.27,216.88c0.07,12.78-2.61,31.38-17.22,40.68c-21.26,13.53-15.65,32.29-35.44,36.08
			s-21.26-7.73-33.5-8.38c-10.07-0.53-18.04-4.99-22.63-8.31c0.71-3.04,1.46-6.1,2.23-9.17c5.97,5.46,13.74,3.85,19.49,5.25
			c13.15,3.2,13.79,14.8,31.84,9c13.21-4.25,13.29-14.34,21.26-23.2c7.97-8.86,29.14-17.69,26.82-49.11
			C193.5,211.9,195.91,214.28,198.27,216.88z"/>
		<path class="st48" d="M138.22,294.74c-7.07,0-11.07-2.49-14.98-4.92c-3.28-2.04-6.38-3.97-11.15-4.22
			c-9.99-0.52-17.91-4.84-22.8-8.37c-0.11-0.08-0.15-0.21-0.13-0.33c0.72-3.09,1.5-6.23,2.23-9.17c0.03-0.11,0.11-0.2,0.22-0.23
			c0.11-0.03,0.23-0.01,0.31,0.07c4.06,3.71,8.89,4.08,13.57,4.44c2.06,0.16,4,0.3,5.78,0.74c4.91,1.19,8.03,3.49,11.05,5.72
			c5.03,3.7,9.37,6.9,20.61,3.29c8.56-2.75,11.46-7.86,14.82-13.78c1.74-3.08,3.55-6.26,6.31-9.32c1.66-1.85,3.94-3.73,6.35-5.72
			c9.38-7.76,22.22-18.39,20.39-43.15c-0.01-0.13,0.06-0.26,0.18-0.31c0.12-0.06,0.26-0.04,0.36,0.05c2.53,2.29,4.95,4.7,7.18,7.16
			c0.05,0.06,0.08,0.14,0.08,0.21c0.14,24.63-9.37,35.87-17.37,40.96c-9.92,6.32-13.94,13.76-17.49,20.33
			c-3.98,7.38-7.43,13.76-18.06,15.8C142.84,294.5,140.39,294.74,138.22,294.74z M89.84,276.82c4.83,3.45,12.56,7.61,22.28,8.12
			c4.94,0.26,8.11,2.23,11.46,4.32c4.99,3.11,10.16,6.33,21.97,4.06c10.33-1.98,13.55-7.93,17.61-15.47
			c3.58-6.64,7.64-14.16,17.71-20.57c7.85-4.99,17.18-16.04,17.07-40.28c-2.02-2.22-4.19-4.4-6.46-6.49
			c1.52,24.52-11.29,35.12-20.68,42.89c-2.49,2.06-4.65,3.84-6.28,5.66c-2.71,3.01-4.5,6.16-6.22,9.21
			c-3.28,5.79-6.38,11.25-15.18,14.08c-11.56,3.72-16.02,0.42-21.19-3.38c-2.97-2.19-6.04-4.45-10.82-5.61
			c-1.73-0.42-3.65-0.57-5.68-0.72c-4.42-0.34-9.4-0.71-13.55-4.25C91.22,271.11,90.51,273.99,89.84,276.82z"/>
	</g>
	<g>
		<g>
			<path class="st67" d="M158.1,121.57c-1.23,1.46-2.98,2.37-4.92,2.37c-1.04,0-2.04-0.26-2.91-0.74c-0.09-0.38-0.16-0.77-0.25-1.16
				c-2.1-9.37,2.41-13.13,4.75-14.19C157.69,110.42,159.94,116.42,158.1,121.57z"/>
			<path class="st68" d="M153.18,124.58c-1.12,0-2.23-0.28-3.22-0.81c-0.16-0.09-0.28-0.24-0.32-0.42c-0.05-0.22-0.1-0.45-0.15-0.67
				c-0.03-0.16-0.07-0.33-0.1-0.49c-2.43-10.89,3.83-14.33,5.11-14.91c0.23-0.1,0.5-0.06,0.69,0.1c3.18,2.78,5.42,9.09,3.52,14.42
				c-0.03,0.07-0.06,0.14-0.11,0.2C157.2,123.63,155.23,124.58,153.18,124.58z M150.83,122.76c0.74,0.35,1.53,0.53,2.35,0.53
				c1.65,0,3.19-0.73,4.35-2.05c1.54-4.48-0.2-9.98-2.88-12.61c-1.63,0.89-6.03,4.21-4.01,13.27c0.04,0.17,0.07,0.34,0.11,0.51
				C150.78,122.53,150.8,122.65,150.83,122.76z M158.1,121.57L158.1,121.57L158.1,121.57z"/>
		</g>
		<path class="st68" d="M157.07,119.15c-0.73,0.93-1.75,1.59-2.96,1.76c-2.4,0.36-4.07-1.33-4.63-3.83
			c0.05-1.43,0.14-2.62,0.55-3.86c0.72-1.17,1.44-2.19,2.82-2.39c1.09-0.16,2.14,0.1,3.03,0.67
			C157.85,113.88,158.5,116.45,157.07,119.15z"/>
		<circle class="st69" cx="152.63" cy="114.31" r="2"/>
		<g>
			<path class="st54" d="M153.29,127.54c-0.05,0-0.1,0-0.15,0c-0.97-0.05-1.92-0.56-2.66-1.45c-0.23-0.27-0.19-0.68,0.08-0.91
				c0.27-0.23,0.68-0.19,0.91,0.08c0.3,0.35,0.92,0.95,1.74,0.99c0.66,0.03,1.33-0.3,2.02-0.97c0.87-0.86,1.72-2.32,2.27-3.92
				c0.78-2.27,1.63-6.72-1.47-11.07c-0.5-0.7-1.07-1.36-1.7-1.97c-0.26-0.25-0.27-0.65-0.02-0.91c0.25-0.26,0.65-0.27,0.91-0.02
				c0.69,0.66,1.32,1.38,1.86,2.15c3.44,4.82,2.5,9.74,1.64,12.24c-0.62,1.8-1.56,3.41-2.58,4.42
				C155.22,127.09,154.27,127.54,153.29,127.54z"/>
		</g>
		<g>
			<path class="st24" d="M152.25,129.12c-0.26,0-0.5-0.16-0.6-0.42c-0.04-0.11-0.27-0.6-0.53-1.14c-0.46-0.99-0.66-1.43-0.74-1.61
				c-0.02-0.04-0.03-0.07-0.04-0.11c-0.28-0.81-0.52-1.65-0.71-2.49c-0.09-0.39-0.18-0.78-0.25-1.18
				c-1.34-6.34-0.26-10.97,3.23-13.75c0.49-0.39,1.03-0.73,1.61-1.02l0.29-0.13c0.01,0,0.02-0.01,0.03-0.01
				c0.23-0.11,0.48-0.2,0.72-0.29c0.34-0.12,0.7,0.06,0.82,0.4c0.12,0.34-0.06,0.7-0.39,0.82c-0.23,0.08-0.45,0.16-0.66,0.26
				c-0.02,0.01-0.04,0.02-0.07,0.03l-0.07,0.03c-0.06,0.03-0.11,0.05-0.16,0.07c-0.46,0.23-0.91,0.51-1.33,0.85
				c-3.07,2.46-4.01,6.66-2.77,12.49c0.08,0.39,0.16,0.77,0.24,1.14c0.19,0.82,0.42,1.63,0.69,2.41c0,0.01,0.01,0.02,0.01,0.02
				c0.07,0.17,0.45,0.98,0.7,1.53c0.37,0.79,0.52,1.12,0.56,1.23c0.13,0.33-0.04,0.7-0.37,0.83
				C152.41,129.1,152.33,129.12,152.25,129.12z"/>
		</g>
	</g>
	<g>
		<g>
			<path class="st67" d="M108.89,131.27c0.09,2.18-0.99,4.54-2.73,5.65c-2.78,1.79-6.73,0.52-8.81-2.83
				c-0.15-0.24-0.27-0.47-0.39-0.71c-0.96-3.47,0.08-7.4,4-9.37C103.73,124.83,106.95,128.05,108.89,131.27z"/>
			<path class="st68" d="M103.34,138.38c-0.47,0-0.96-0.05-1.44-0.16c-2.03-0.46-3.89-1.84-5.1-3.79c-0.16-0.26-0.29-0.51-0.42-0.76
				c-0.02-0.04-0.03-0.08-0.05-0.12c-1.17-4.24,0.53-8.21,4.33-10.12c0.15-0.07,0.31-0.09,0.47-0.04c3.17,0.93,6.46,4.46,8.31,7.55
				c0.06,0.09,0.09,0.2,0.09,0.3c0.11,2.46-1.14,5.02-3.03,6.22C105.57,138.07,104.47,138.38,103.34,138.38z M97.55,133.15
				c0.1,0.2,0.21,0.4,0.34,0.61c1.03,1.65,2.59,2.82,4.29,3.2c1.3,0.29,2.59,0.09,3.62-0.58c1.48-0.95,2.47-2.95,2.44-4.92
				c-1.97-3.22-4.89-5.94-7.24-6.75C97.32,126.69,96.83,130.46,97.55,133.15z"/>
		</g>
		<ellipse class="st68" cx="102.44" cy="130.86" rx="4.51" ry="4.92"/>
		<ellipse class="st69" cx="102.79" cy="129.52" rx="2.23" ry="2.12"/>
		<g>
			<path class="st54" d="M105.15,140.6c-0.27,0-0.51-0.01-0.71-0.03c-3.83-0.29-7.02-3.05-8.11-7.02
				c-1.17-4.24,0.53-8.21,4.33-10.12c0.32-0.16,0.71-0.03,0.87,0.29c0.16,0.32,0.03,0.71-0.29,0.86c-3.92,1.96-4.42,5.87-3.66,8.62
				c0.95,3.44,3.68,5.82,6.97,6.07c1.22,0.09,4.29,0.02,6.42-2.62c0.22-0.28,0.63-0.32,0.91-0.1c0.28,0.22,0.32,0.63,0.1,0.91
				C109.79,140.16,106.84,140.6,105.15,140.6z"/>
		</g>
		<g>
			<path class="st24" d="M112.1,139.58c-0.26,0-0.5-0.15-0.59-0.41c-0.01-0.03-0.04-0.14-0.09-0.33c-1.22-4.71-2.67-7.2-3.68-8.46
				c-1.5-1.87-5.48-6.85-11.09-6.85c-0.36,0-0.64-0.29-0.64-0.64c0-0.36,0.29-0.64,0.64-0.64c6.24,0,10.5,5.32,12.1,7.33
				c1.08,1.36,2.65,4.01,3.92,8.94c0.03,0.11,0.05,0.18,0.06,0.21c0.1,0.33-0.08,0.69-0.4,0.81
				C112.24,139.57,112.17,139.58,112.1,139.58z"/>
		</g>
	</g>
	<g>
		<linearGradient id="SVGID_58_" gradientUnits="userSpaceOnUse" x1="141.7702" y1="109.7988" x2="141.7702" y2="81.5747">
			<stop  offset="0" style="stop-color:#FFA861"/>
			<stop  offset="0.8384" style="stop-color:#CE2F2C"/>
		</linearGradient>
		<path class="st70" d="M177.72,109.8c-0.18-0.51-3.27-8.74-16.23-10.13c-8.98-0.97-13.3,0.07-16.68-0.12
			c-1.6-0.08-3-0.45-4.57-1.42c-0.06-0.03-0.12-0.07-0.17-0.11c-5.62-3.6-8.67-4.07-11.47-3.52c-2.16,0.43-4.16,1.46-7.06,2.13
			c-6.59,1.53-16.44,0.69-15.66-9.22c0.01-0.12,0.02-0.24,0.03-0.37c0.06-0.67,0.17-1.32,0.32-1.95c5.87-4.05,15.16-5.73,21.78,1.17
			c7.01,7.32,17.02,9.72,24.09,9c6.61-0.68,21.53,1.21,25.08,12.17c0.01,0,0.01,0.01,0.01,0.01c0.1,0.33,0.17,0.63,0.24,0.9
			c0.03,0.09,0.04,0.17,0.06,0.26c0.06,0.24,0.11,0.46,0.15,0.64c0.01,0.05,0.03,0.11,0.03,0.16c0.01,0.05,0.03,0.1,0.03,0.15
			c0.01,0.05,0.02,0.1,0.03,0.16C177.71,109.75,177.72,109.77,177.72,109.8z"/>
		<path class="st40" d="M177.72,110.44c-0.27,0-0.51-0.17-0.61-0.43c-0.12-0.34-3.1-8.35-15.69-9.7c-5.89-0.63-9.82-0.39-12.68-0.22
			c-1.5,0.09-2.79,0.17-3.97,0.11c-1.85-0.1-3.31-0.55-4.88-1.52c-0.05-0.03-0.12-0.07-0.19-0.12c-5.53-3.55-8.39-3.94-10.99-3.43
			c-1.03,0.2-2.05,0.56-3.14,0.94c-1.13,0.39-2.41,0.84-3.9,1.19c-4.34,1.01-10.21,1.03-13.66-1.93c-2.12-1.83-3.06-4.51-2.79-7.97
			c0.01-0.12,0.02-0.25,0.03-0.39c0.06-0.66,0.17-1.34,0.33-2.02c0.04-0.16,0.13-0.3,0.26-0.39c8.9-6.14,17.77-3.79,22.61,1.26
			c7.22,7.54,17.2,9.45,23.56,8.81c3.36-0.34,8.79-0.06,13.97,1.75c6.09,2.14,10.16,5.88,11.78,10.82c0.01,0.02,0.02,0.04,0.02,0.07
			l0,0c0.1,0.34,0.18,0.66,0.25,0.94c0.02,0.07,0.04,0.17,0.07,0.26c0.06,0.24,0.11,0.46,0.15,0.64c0.01,0.05,0.03,0.11,0.04,0.17
			c0.01,0.05,0.02,0.11,0.03,0.16c0.01,0.05,0.02,0.11,0.03,0.16c0.01,0.04,0.02,0.11,0.02,0.19c0,0.31-0.23,0.58-0.53,0.63
			C177.79,110.44,177.75,110.44,177.72,110.44z M154.03,98.61c2.09,0,4.57,0.1,7.53,0.42c7.26,0.78,11.52,3.63,13.93,6.19
			c-4.67-8.29-17.37-9.92-23.34-9.31c-6.64,0.68-17.08-1.32-24.62-9.2c-4.42-4.61-12.53-6.76-20.74-1.23
			c-0.11,0.55-0.2,1.09-0.25,1.62c-0.01,0.12-0.02,0.23-0.03,0.34c-0.24,3.04,0.55,5.36,2.35,6.91c3.08,2.65,8.49,2.59,12.53,1.65
			c1.43-0.33,2.62-0.75,3.77-1.15c1.13-0.39,2.2-0.77,3.31-0.99c2.9-0.57,6.04-0.17,11.94,3.61c0.05,0.04,0.1,0.07,0.14,0.09
			c1.4,0.86,2.67,1.26,4.29,1.34c1.11,0.06,2.36-0.02,3.82-0.1C150.13,98.72,151.88,98.61,154.03,98.61z"/>
	</g>
	<g>
		<linearGradient id="SVGID_59_" gradientUnits="userSpaceOnUse" x1="128.1208" y1="125.925" x2="128.1176" y2="125.9014">
			<stop  offset="0.1616" style="stop-color:#CE2F2C"/>
			<stop  offset="1" style="stop-color:#FFA861"/>
		</linearGradient>
		<path class="st71" d="M128.13,125.9c0,0.01,0,0.01,0,0.01c-0.01,0.01-0.01,0.01-0.01,0.01
			C128.11,125.92,128.12,125.91,128.13,125.9z"/>
		<path class="st40" d="M128.11,126.56c-0.09,0-0.17-0.02-0.25-0.05c-0.23-0.1-0.39-0.33-0.39-0.58c0-0.12,0.04-0.26,0.11-0.36
			c0.15-0.24,0.45-0.36,0.73-0.28c0.28,0.08,0.47,0.33,0.47,0.61v0.01c0,0.18-0.08,0.35-0.21,0.48
			C128.44,126.5,128.28,126.56,128.11,126.56z"/>
	</g>
	<g>
		<linearGradient id="SVGID_60_" gradientUnits="userSpaceOnUse" x1="119.2942" y1="180.2421" x2="119.2942" y2="110.1474">
			<stop  offset="0" style="stop-color:#FBA78E"/>
			<stop  offset="1" style="stop-color:#FED8CA"/>
		</linearGradient>
		<path class="st72" d="M136.59,180.24c-0.23,0-0.45-0.12-0.56-0.33c-4.96-8.97-7.96-20.02-10.86-30.71
			c-4.95-18.26-9.63-35.5-23.28-37.77c-0.35-0.06-0.59-0.39-0.53-0.74c0.06-0.35,0.39-0.59,0.74-0.53
			c14.46,2.41,19.25,20.04,24.31,38.71c2.88,10.61,5.86,21.59,10.74,30.42c0.17,0.31,0.06,0.7-0.25,0.88
			C136.8,180.22,136.7,180.24,136.59,180.24z"/>
	</g>
	<g>
		<linearGradient id="SVGID_61_" gradientUnits="userSpaceOnUse" x1="149.5469" y1="173.7989" x2="149.5469" y2="101.6467">
			<stop  offset="0" style="stop-color:#FBA78E"/>
			<stop  offset="1" style="stop-color:#FED8CA"/>
		</linearGradient>
		<path class="st73" d="M156.57,173.8c-0.32,0-0.59-0.23-0.64-0.56c-1.72-12.79-5.23-23.1-8.32-32.2
			c-4.96-14.58-8.87-26.1-2.11-39.05c0.16-0.32,0.56-0.44,0.87-0.27c0.32,0.16,0.44,0.55,0.27,0.87
			c-6.51,12.46-2.67,23.75,2.19,38.04c3.11,9.15,6.64,19.53,8.38,32.44c0.05,0.35-0.2,0.68-0.55,0.72
			C156.62,173.8,156.59,173.8,156.57,173.8z"/>
	</g>
	<g>
		<path class="st46" d="M166.82,294.34c-0.26,0-0.51-0.16-0.6-0.42c-4.52-11.99-7.33-43.85-2.8-85.44c0.04-0.35,0.35-0.61,0.71-0.57
			c0.35,0.04,0.61,0.36,0.57,0.71c-4.5,41.38-1.74,72.99,2.73,84.85c0.13,0.33-0.04,0.7-0.38,0.83
			C166.97,294.33,166.89,294.34,166.82,294.34z"/>
	</g>
	<g>
		<path class="st46" d="M124.61,302.97c-0.26,0-0.5-0.15-0.6-0.41c-2.57-6.46-5.59-12.77-8.51-18.88
			c-8.52-17.8-17.34-36.21-16.21-60.94c0.02-0.36,0.33-0.63,0.67-0.61c0.35,0.02,0.63,0.32,0.61,0.67
			c-1.11,24.41,7.63,42.67,16.09,60.33c2.93,6.12,5.96,12.45,8.55,18.96c0.13,0.33-0.03,0.71-0.36,0.84
			C124.77,302.96,124.68,302.97,124.61,302.97z"/>
	</g>
	<g>
		<linearGradient id="SVGID_62_" gradientUnits="userSpaceOnUse" x1="259.2888" y1="258.2153" x2="235.0953" y2="191.7443">
			<stop  offset="0.1616" style="stop-color:#D12E2B"/>
			<stop  offset="1" style="stop-color:#FFA861"/>
		</linearGradient>
		<path class="st74" d="M291.87,227.28c0,0,0.64,10.95-50.26,37.37c-2.58-9.66-3.87-23.84-25.13-40.59
			c-10.48-8.25-16.02-12.63-18.9-14.9c5.56-1.09,9.66-3.81,19.03-9.03c3.75-2.08,8.09-4.37,13.05-6.41
			c9.94-0.08,24.23-0.73,34.5,5.21C277.1,206.4,291.87,227.28,291.87,227.28z"/>
		<linearGradient id="SVGID_63_" gradientUnits="userSpaceOnUse" x1="275.1749" y1="250.0841" x2="209.0007" y2="194.5573">
			<stop  offset="0" style="stop-color:#7A2C29"/>
			<stop  offset="1" style="stop-color:#CB604B"/>
		</linearGradient>
		<path class="st75" d="M241.62,265.29c-0.09,0-0.18-0.02-0.26-0.05c-0.18-0.08-0.31-0.23-0.36-0.42c-0.28-1.06-0.55-2.17-0.83-3.34
			c-2.24-9.34-5.31-22.13-24.08-36.91c-10.48-8.25-16.02-12.63-18.9-14.9c-0.2-0.16-0.29-0.41-0.23-0.66s0.26-0.43,0.5-0.48
			c4.53-0.89,8.1-2.9,14.56-6.56c1.3-0.73,2.71-1.53,4.27-2.4c3.6-2,7.98-4.33,13.12-6.44c0.08-0.03,0.16-0.05,0.24-0.05
			c0.72-0.01,1.47-0.02,2.23-0.02c9.67-0.12,22.92-0.28,32.6,5.32c12.91,7.46,27.3,27.68,27.91,28.54c0.07,0.1,0.11,0.21,0.12,0.33
			c0.03,0.46,0.09,11.67-50.6,37.98C241.82,265.27,241.72,265.29,241.62,265.29z M199.05,209.49c3.11,2.45,8.53,6.72,17.83,14.06
			c19.12,15.06,22.25,28.1,24.53,37.63c0.21,0.88,0.41,1.72,0.62,2.53c45.49-23.71,48.92-34.81,49.17-36.25
			c-1.53-2.12-15.36-21.03-27.36-27.97c-9.38-5.42-22.42-5.26-31.94-5.14c-0.72,0.01-1.43,0.02-2.11,0.02
			c-5.03,2.08-9.32,4.37-12.86,6.33c-1.56,0.87-2.97,1.66-4.26,2.4C206.71,206.46,203.18,208.45,199.05,209.49z"/>
	</g>
	<g>
		<path class="st76" d="M230.02,218.26c8.89,4.27,17.57,17.14,20.71,26.93c1.66,5.2,3.71,12.35,5.27,17.92
			c1.16,4.14,6.11,5.82,9.55,3.24v0c1.95-1.46,2.85-3.94,2.28-6.31c-2.2-9.13-8.92-31.64-23.63-41.79
			c-3.75-2.59-7.09-5.15-7.09-5.15L230.02,218.26z"/>
		<path class="st77" d="M261.88,268.22c-0.73,0-1.46-0.12-2.17-0.36c-2.11-0.72-3.73-2.43-4.33-4.58
			c-1.47-5.25-3.57-12.61-5.26-17.9c-3.05-9.53-11.7-22.39-20.37-26.55c-0.2-0.1-0.34-0.3-0.36-0.52c-0.02-0.23,0.08-0.45,0.26-0.58
			l7.09-5.15c0.23-0.17,0.55-0.16,0.77,0.01c0.03,0.03,3.37,2.59,7.06,5.14c14.87,10.25,21.66,32.9,23.89,42.17
			c0.63,2.62-0.36,5.36-2.52,6.98C264.74,267.76,263.32,268.22,261.88,268.22z M231.24,218.16c8.75,4.78,17.01,17.18,20.09,26.83
			c1.7,5.31,3.81,12.69,5.28,17.95c0.49,1.76,1.77,3.11,3.51,3.7c1.73,0.59,3.57,0.3,5.04-0.8c1.75-1.31,2.55-3.52,2.04-5.64
			c-2.19-9.12-8.86-31.41-23.37-41.41c-2.99-2.06-5.74-4.13-6.73-4.88L231.24,218.16z"/>
	</g>
	<g>
		<linearGradient id="SVGID_64_" gradientUnits="userSpaceOnUse" x1="232.5634" y1="219.3371" x2="224.7477" y2="197.8638">
			<stop  offset="0.2326" style="stop-color:#87BE9D"/>
			<stop  offset="0.9147" style="stop-color:#C6E1B6"/>
		</linearGradient>
		<path class="st78" d="M253.86,202.79c-1.66,4.52-5.15,10.95-14.82,14.17c-19.99,6.66-36.08-9.66-41.88-9.02
			c1.93-0.64,4.58-1.13,5.8-0.64c3.22,1.29,12,5.12,13.53,5.8c5.41,2.4,17.8,2.29,27.06-2.58c9.68-5.09,12.11-16.62,8.25-22.51
			l0.13-0.05C251.92,187.97,256.79,194.77,253.86,202.79z"/>
		<path class="st79" d="M229.22,219.21c-9.66,0-17.96-4.34-23.96-7.47c-3.57-1.86-6.38-3.35-8.03-3.16c-0.32,0.04-0.63-0.18-0.7-0.5
			s0.11-0.65,0.43-0.75c1.97-0.66,4.79-1.22,6.24-0.63c3.29,1.31,12.21,5.21,13.55,5.81c5.56,2.46,17.81,2.01,26.5-2.56
			c4.54-2.39,7.87-6.55,9.13-11.43c0.98-3.79,0.56-7.59-1.12-10.15c-0.11-0.17-0.14-0.37-0.07-0.56s0.21-0.34,0.4-0.4l0.13-0.05
			c0.27-0.09,0.57,0,0.74,0.23c0.21,0.29,5.03,7.17,2.01,15.42c0,0,0,0,0,0c-2.67,7.28-7.65,12.04-15.22,14.56
			C235.78,218.73,232.42,219.21,229.22,219.21z M200.18,207.87c1.58,0.59,3.45,1.57,5.68,2.73c7.8,4.07,19.58,10.22,32.98,5.76
			c7.18-2.39,11.89-6.9,14.42-13.78l0,0c0.82-2.24,1-4.39,0.84-6.31c-0.09,0.86-0.24,1.72-0.47,2.59
			c-1.35,5.23-4.91,9.69-9.78,12.25c-9.16,4.82-21.67,5.23-27.62,2.6c-1.33-0.59-10.24-4.48-13.51-5.79
			C202.23,207.7,201.29,207.71,200.18,207.87z M253.86,202.79L253.86,202.79L253.86,202.79z"/>
	</g>
	<g>
		<linearGradient id="SVGID_65_" gradientUnits="userSpaceOnUse" x1="230.9543" y1="215.4092" x2="222.6217" y2="192.5155">
			<stop  offset="0.2326" style="stop-color:#87BE9D"/>
			<stop  offset="0.9147" style="stop-color:#C6E1B6"/>
		</linearGradient>
		<path class="st80" d="M197.16,207.95c1.93-0.64,4.58-1.13,5.8-0.64c3.22,1.29,12.01,5.12,13.53,5.8c5.41,2.4,17.8,2.3,27.06-2.58
			c12.24-6.44,12.89-23.2,3.87-25.77c-5.54-1.58-12.93,6.42-18.04,7.73C214.71,196.26,199.55,204.6,197.16,207.95z"/>
		<linearGradient id="SVGID_66_" gradientUnits="userSpaceOnUse" x1="243.5346" y1="213.7477" x2="212.9618" y2="188.094">
			<stop  offset="0" style="stop-color:#3D4C42"/>
			<stop  offset="1" style="stop-color:#509A8B"/>
		</linearGradient>
		<path class="st81" d="M225.8,215.3c-3.81,0-7.21-0.57-9.57-1.61c-1.54-0.68-10.29-4.5-13.51-5.79c-0.88-0.35-3.18-0.07-5.36,0.66
			c-0.27,0.09-0.56,0-0.72-0.23c-0.17-0.22-0.17-0.53-0.01-0.76c2.52-3.53,17.65-11.87,32.58-15.71c1.86-0.48,4.09-1.93,6.46-3.46
			c4.04-2.62,8.23-5.32,11.92-4.27c3.62,1.03,6.05,4.33,6.52,8.81c0.6,5.83-2.35,13.99-10.26,18.16
			C238.33,214,231.59,215.3,225.8,215.3z M201.61,206.46c0.61,0,1.16,0.07,1.59,0.24c3.23,1.29,12.01,5.12,13.55,5.81
			c5.56,2.46,17.81,2.02,26.5-2.56c7.38-3.88,10.14-11.47,9.58-16.88c-0.41-4-2.45-6.8-5.59-7.7c-3.14-0.9-7.07,1.65-10.87,4.11
			c-2.46,1.59-4.78,3.09-6.84,3.62c-12.91,3.32-25.45,9.87-30.16,13.59C200.14,206.55,200.91,206.46,201.61,206.46z"/>
	</g>
	<g>
		<path class="st47" d="M322.66,325.88c-0.2,10.11,2.26,7.78,6.72,7.3c1.11-2.14,2.18-4.33,3.2-6.58
			C330.49,328.75,325.04,330.93,322.66,325.88z"/>
		<path class="st48" d="M325.42,334.07c-0.64,0-1.19-0.14-1.66-0.54c-1.1-0.93-1.51-3.15-1.42-7.66c0-0.15,0.11-0.28,0.25-0.31
			c0.15-0.03,0.3,0.04,0.36,0.18c0.77,1.63,1.92,2.59,3.42,2.84c2.16,0.36,4.65-0.83,5.98-2.2c0.11-0.11,0.28-0.13,0.41-0.04
			c0.13,0.09,0.18,0.26,0.11,0.4c-0.95,2.12-2,4.27-3.21,6.59c-0.05,0.1-0.14,0.16-0.25,0.17c-0.69,0.07-1.32,0.19-1.93,0.3
			C326.72,333.94,326.03,334.07,325.42,334.07z M322.97,327.06c0.01,3.42,0.39,5.28,1.21,5.98c0.69,0.59,1.8,0.39,3.19,0.13
			c0.54-0.1,1.16-0.21,1.8-0.29c0.92-1.78,1.75-3.47,2.52-5.12c-1.51,1.04-3.57,1.77-5.43,1.45
			C324.92,328.99,323.8,328.25,322.97,327.06z"/>
	</g>
	<g>
		<path class="st47" d="M325.65,302.6c3.77,1.27,8.54-1.5,11.01-3.74c0,0,1.23,6.49-0.75,10.3c-10.26-6.56-16.88,5.63-12.82,9.72
			c2.56-6.04,8.47-6.7,10.34-1.72c0.45,1.19,1.34,2.75,1.29,3.87c4.51-14.82,8.7-30.67,6.47-52.49c-2.6-25.48-13.56-37.72-20-46.74
			c7.73,11.6,7.94,24.52,3.02,29.85c-4.92,5.34-8.37,3.26-8.14-2.04c-1.18,7.83,5.84,22.54,18.39,9.18
			c1.82,4.26,1.97,7.46,2.19,9.87c-12.29-4-22.86,5.56-16.07,16.03c-1.34-7.96,15.54-13.6,16.5-0.48c0.21,2.9,0.58,5.27-2.41,8.22
			c-5.61,5.53-12.42,1.65-13.89-4.84C313.79,294.7,318.98,300.33,325.65,302.6z"/>
		<path class="st48" d="M334.72,321.35c-0.02,0-0.04,0-0.05,0c-0.16-0.03-0.27-0.17-0.27-0.33c0.03-0.74-0.42-1.77-0.82-2.67
			c-0.16-0.37-0.32-0.73-0.45-1.07c-0.73-1.94-2.14-3.07-3.87-3.11c-0.03,0-0.06,0-0.08,0c-2.27,0-4.53,1.89-5.79,4.84
			c-0.04,0.1-0.13,0.17-0.24,0.19c-0.11,0.02-0.21-0.01-0.29-0.09c-2.01-2.02-1.68-5.96,0.74-8.96c2.33-2.89,6.74-4.75,12.17-1.45
			c1.38-3.03,0.88-7.62,0.65-9.21c-2.44,2.04-7.04,4.72-10.88,3.42h0c-4.45-1.51-7.53-4.22-8.24-7.25
			c-0.63-2.67,0.47-5.46,3.26-8.29c0.08-0.08,0.21-0.12,0.32-0.08c0.11,0.03,0.2,0.12,0.23,0.24c0.77,3.4,3.1,6.13,5.94,6.96
			c2.53,0.74,5.16-0.07,7.4-2.29c2.72-2.68,2.56-4.8,2.35-7.49l-0.04-0.48c-0.25-3.46-1.66-5.85-4.07-6.92
			c-2.66-1.19-6.4-0.56-9.09,1.52c-2.07,1.6-3.05,3.72-2.7,5.81c0.03,0.15-0.06,0.3-0.2,0.35c-0.14,0.06-0.3,0-0.39-0.13
			c-2.87-4.43-2.92-9.04-0.15-12.65c3.32-4.33,9.76-5.91,16.13-4.01l-0.01-0.09c-0.2-2.27-0.44-5.08-1.93-8.74
			c-5.69,5.87-9.89,5.67-12.43,4.43c-4.57-2.22-6.92-9.28-6.17-14.24c0.03-0.17,0.18-0.29,0.35-0.27c0.17,0.02,0.3,0.16,0.29,0.33
			c-0.1,2.39,0.58,4.13,1.83,4.65c1.44,0.6,3.54-0.44,5.76-2.84c4.63-5.02,4.78-17.71-3.05-29.45c-0.1-0.15-0.06-0.34,0.08-0.44
			c0.14-0.1,0.34-0.07,0.45,0.08c0.68,0.95,1.4,1.93,2.16,2.96c6.57,8.88,15.56,21.05,17.89,43.94c2.21,21.66-1.8,37.24-6.48,52.61
			C334.99,321.26,334.86,321.35,334.72,321.35z M329.17,313.52c0.03,0,0.07,0,0.1,0c2.01,0.04,3.64,1.33,4.46,3.53
			c0.12,0.32,0.27,0.67,0.43,1.03c0.23,0.52,0.47,1.06,0.63,1.57c4.49-14.89,8.21-30.14,6.07-51.08
			c-2.18-21.38-10.23-33.35-16.61-42.04c1.98,4.1,3.19,8.41,3.5,12.52c0.41,5.42-0.8,10.09-3.32,12.82c-2.45,2.65-4.75,3.72-6.48,3
			c-0.68-0.28-1.21-0.81-1.59-1.55c0.52,4.05,2.63,8.36,5.82,9.91c3.43,1.67,7.59,0.06,12.02-4.65c0.07-0.08,0.19-0.11,0.29-0.1
			c0.11,0.02,0.2,0.09,0.24,0.19c1.7,3.98,1.97,7.11,2.16,9.39l0.05,0.57c0.01,0.11-0.04,0.21-0.12,0.28
			c-0.08,0.07-0.2,0.09-0.3,0.05c-6.26-2.04-12.64-0.57-15.88,3.64c-2.37,3.08-2.52,6.97-0.48,10.8c0.13-1.87,1.18-3.67,3.01-5.09
			c2.87-2.22,6.88-2.88,9.75-1.6c1.84,0.82,4.11,2.78,4.45,7.47l0.04,0.48c0.21,2.74,0.39,5.11-2.54,8
			c-2.42,2.39-5.27,3.25-8.03,2.45c-2.9-0.85-5.3-3.51-6.25-6.87c-2.33,2.52-3.24,4.96-2.69,7.27c0.66,2.81,3.59,5.35,7.82,6.79
			c3.32,1.12,7.86-1.12,10.69-3.67c0.09-0.08,0.21-0.1,0.32-0.07c0.11,0.04,0.19,0.13,0.21,0.25c0.05,0.27,1.23,6.64-0.78,10.5
			c-0.04,0.08-0.12,0.14-0.2,0.16c-0.09,0.02-0.18,0.01-0.26-0.04c-6.56-4.2-10.56-0.2-11.63,1.12c-2.04,2.53-2.48,5.87-1.1,7.73
			C324.4,315.32,326.73,313.52,329.17,313.52z"/>
	</g>
</g>
</svg>
