<?xml version="1.0" encoding="utf-8"?>
<!-- Generator: Adobe Illustrator 23.0.0, SVG Export Plug-In . SVG Version: 6.00 Build 0)  -->
<svg version="1.1" id="图层_1" xmlns="http://www.w3.org/2000/svg" xmlns:xlink="http://www.w3.org/1999/xlink" x="0px" y="0px"
	 viewBox="0 0 500 500" style="enable-background:new 0 0 500 500;" xml:space="preserve">
<style type="text/css">
	.st0{fill:#6D3D41;}
	.st1{fill:#592F34;}
	.st2{fill:#436DB4;}
	.st3{fill:#F8C9C9;}
	.st4{fill:#DA9CA7;}
	.st5{fill:none;stroke:#000000;stroke-width:5.7077;stroke-miterlimit:10;}
	.st6{fill:#EE8387;}
	.st7{fill:#8F5458;}
	.st8{fill:#B86563;}
	.st9{fill:#AA5756;}
	.st10{fill:#00B7EE;}
	.st11{fill:#1C8799;}
	.st12{fill:#FFFEEA;}
	.st13{fill:none;stroke:#000000;stroke-width:5.7077;stroke-linecap:round;stroke-miterlimit:10;}
	.st14{fill:#CC2D46;}
	.st15{fill:#EFD5DB;}
</style>
<g>
	<path class="st0" d="M86.23,304.21c-3.23-0.04-5.85-2.7-5.85-5.93v-18.81c-1.58-4.33-6.87-22.92,5.34-52.05
		c-0.62,0.21-1.27,0.33-1.93,0.33c-2.97,0-5.43-2.13-5.86-5.06c-1.65-11.21-3.08-49.5,47.63-71.77c0.28-0.12,0.55-0.22,0.84-0.3
		c2.1-0.57,21.14-5.56,42.34-5.56c1.7,0,3.38,0.03,5.03,0.1c6.7-10.88,36.13-54.12,80.37-54.12c2.24,0,4.52,0.11,6.77,0.34
		l0.11,0.01c2.08,0.27,20.38,2.93,23.62,13.29c1.68,5.38-0.92,11.22-7.72,17.37c-0.18,0.16-0.38,0.32-0.57,0.46
		c-0.33,0.23-1.97,1.41-4.31,3.31c9.55-4.03,21.71-7.42,35.57-7.42c18.79,0,37.05,6.21,54.29,18.45c0.22,0.16,0.42,0.32,0.62,0.5
		c2.34,2.17,7.7,7.86,6.9,13.68c-0.2,1.44-0.83,3.29-2.57,4.93c17.67,8.74,61.73,35.98,54.24,87.07
		c4.67,5.88,20.78,30.03,0.92,62.29c-1.07,1.73-3,2.81-5.04,2.81L86.23,304.21z"/>
	<g>
		<path d="M254.14,94.85c2.1,0,4.23,0.1,6.39,0.32c0,0,35.38,4.59,13.84,24.06c-0.07,0.06-0.14,0.12-0.21,0.17
			c-0.88,0.62-7.04,5.04-13.47,11.66c-1.42,1.46-0.18,3.62,1.49,3.62c0.34,0,0.7-0.09,1.06-0.29c9.93-5.63,25.53-12.18,44.37-12.18
			c15.6,0,33.43,4.5,52.08,17.75c0.08,0.06,0.15,0.12,0.23,0.18c1.14,1.06,10.55,10.14,2.64,14.22c-1.56,0.8-1.51,3.07,0.08,3.8
			c16.1,7.46,62.57,33.69,54.58,85.01c-0.09,0.61,0.07,1.22,0.46,1.69c3.53,4.24,20.37,27.14,1.09,58.46c-0.38,0.62-1.07,1-1.8,1
			c-0.01,0-0.02,0-0.03,0l-330.66-3.92c-1.16-0.01-2.09-0.96-2.09-2.12v-19.12c0-0.26-0.05-0.51-0.14-0.76
			c-1.11-2.89-7.96-23.65,8.61-57c0.79-1.59-0.52-3.08-1.93-3.08c-0.53,0-1.07,0.21-1.52,0.7c-1.24,1.35-2.53,2.76-3.86,4.22
			c-0.43,0.48-1,0.69-1.55,0.69c-0.98,0-1.93-0.68-2.1-1.81c-1.76-11.98-2.26-46.81,45.39-67.74c0.1-0.04,0.2-0.08,0.31-0.11
			c1.89-0.51,20.59-5.42,41.34-5.42c1.94,0,3.89,0.04,5.85,0.14c0.03,0,0.07,0,0.1,0c0.74,0,1.42-0.38,1.81-1.01
			C181.08,140.36,210.29,94.85,254.14,94.85 M254.14,87.24c-43.97,0-73.67,40.42-82.43,54.05c-0.98-0.02-1.97-0.03-2.97-0.03
			c-21.68,0-41.18,5.1-43.33,5.69c-0.47,0.13-0.93,0.29-1.38,0.49c-22.29,9.79-37.47,23.63-45.14,41.14
			c-6.39,14.61-5.7,27.99-4.72,34.67c0.53,3.59,2.91,6.44,6.1,7.66c-9.71,26.37-5.48,43.86-3.69,49.21v18.17
			c0,5.3,4.31,9.67,9.61,9.73l330.66,3.92l0.05,0l0.07,0c3.35,0,6.53-1.77,8.28-4.62c19.9-32.33,5.76-57.21-0.18-65.33
			c1.57-12.31,0.37-24.15-3.58-35.25c-3.51-9.85-9.19-19.15-16.9-27.63c-10.61-11.68-23.12-19.72-32.21-24.58
			c0.39-0.94,0.66-1.94,0.8-2.98c1.04-7.58-5.31-14.41-8.09-16.99c-0.32-0.29-0.64-0.56-1-0.81c-17.89-12.71-36.9-19.15-56.49-19.15
			c-7.73,0-14.95,1.01-21.52,2.59c2.84-4.62,3.57-9.19,2.18-13.65c-3.86-12.36-22.97-15.43-26.76-15.93l-0.11-0.01l-0.11-0.01
			C258.91,87.36,256.51,87.24,254.14,87.24L254.14,87.24z"/>
	</g>
</g>
<g>
	<path class="st1" d="M85.71,281.56c1.93,2.24,3.31,4.96,3.98,7.84c-0.03-3.66-0.06-7.33-0.1-10.99c0-0.43,0.07-0.97,0.48-1.1
		c0.41-0.13,0.55,0.78,0.16,0.61c-2.41-6.04-2.69-12.91-0.79-19.13c0.28-0.91,0.83-1.98,1.78-1.98c0.54,0,1,0.36,1.39,0.74
		c2.25,2.2,3.26,5.36,3.9,8.44c1.12,5.36,1.37,10.85,1.61,16.32c0.32,7.12,5.9,31.31-8.58,26.48
		C79.77,305.53,83.94,288.62,85.71,281.56z"/>
</g>
<g>
	<path class="st1" d="M422.18,283.23c-2.19,1.36-3.9,3.17-4.94,5.22c0.51-2.75,1.01-5.49,1.52-8.24c0.06-0.32,0.06-0.74-0.33-0.91
		c-0.39-0.17-0.64,0.49-0.23,0.43c3.16-4.13,4.33-9.25,3.26-14.25c-0.16-0.73-0.56-1.63-1.5-1.79c-0.53-0.09-1.04,0.1-1.46,0.32
		c-2.5,1.27-3.91,3.47-4.94,5.68c-1.8,3.84-2.76,7.93-3.71,11.99c-1.24,5.3-9.88,22.53,5.02,21.36
		C424.92,302.26,423.01,288.84,422.18,283.23z"/>
</g>
<g>
	<path class="st1" d="M220.03,120.1c-0.06,2.53-0.89,5.04-2.36,7.11c1.04-3.25,4.03-5.78,7.41-6.26c0.3,2.12-0.2,4.34-1.38,6.13
		c1.69-2.4,4.63-3.88,7.57-3.81c0.75,1.89-0.12,4.28-1.91,5.25c3.92-7.19,12.5-11.54,20.62-10.46c-1.89,4.9-5.15,9.26-9.32,12.45
		c3.1-2.21,7.37-2.64,10.85-1.09c-0.94,1.3-1.88,2.61-2.81,3.91c3.04-1.33,6.46-1.76,9.74-1.23c-2.39,2.67,0.89,7.16,4.46,7.37
		c3.57,0.21,6.76-2.02,9.91-3.73c6.96-3.76,15.15-5.22,22.98-4.08c2.27,0.33,5.13,2.65,3.49,4.25c5.49-1.92,11.52-2.26,17.19-0.97
		c-0.28,1.68-1.29,3.21-2.73,4.12c5.41-1.1,11.32,0.6,15.3,4.42c-2.09,0.74-4.18,1.49-6.27,2.23c8.61-1.82,18.15,2.2,22.87,9.63
		c-2.6,0.68-5.21,1.35-7.81,2.03c8.26-2.5,17.69,5.86,16.19,14.37c-1.5,8.5-13.22,13.13-20.13,7.96s-5.75-17.72,1.99-21.55
		c4.2-1.73,8.83,1.34,11.84,4.74c3.01,3.41,5.74,7.55,10.09,8.87c2.08,0.63,4.3,0.53,6.47,0.64c11.56,0.56,22.58,7.63,27.9,17.91
		c-1.69,0.14-3.37,0.29-5.06,0.43c0.86,1.92,3.53,1.98,5.35,3.04c1.82,1.06,1.13,5.03-0.63,3.89c5.94,1.71,10.25,7.09,12.31,12.92
		s2.22,12.12,2.36,18.3c-2.31-0.08-4.24-1.67-5.99-3.19c-12.52-10.85-25.03-21.69-37.55-32.54c-9.13-7.91-18.38-15.9-29.09-21.5
		c-20.29-10.61-44.12-11.8-67.01-11.03c-28.16,0.95-56.63,4.64-82.61,15.57c-12.92,5.43-25.03,12.58-37.1,19.69
		c-10.59,6.25-21.3,12.59-30,21.28c-5.71,5.71-10.46,12.37-14.17,19.55c-1.49-6.33,0.52-13.37,5.13-17.95
		c-1.35,0.53-2.91,0.52-4.26-0.04c2.43-5.26,5.81-10.08,9.93-14.16c-2.95-1.02-6.08-1.5-9.2-1.41c0.56-5.31,5.53-9.77,10.86-9.77
		c-1.91-0.23-3.82-0.45-5.73-0.68c1.22-4.07,5.65-6.9,9.86-6.3c-1.86,0.15-3.78-0.68-4.93-2.16c3.5-3.29,8.34-5.11,13.14-4.93
		c-4.46-1.09-8.92-2.18-13.38-3.27c4.62-6.55,13.42-9.84,21.21-7.93c-3,1.03-5.6-3.35-4.13-6.16c1.47-2.81,5.05-3.8,8.22-3.74
		c9.13,0.17,17.66,6.46,26.71,5.19c9.63-1.35,15.84-10.49,21.75-18.22c4.64-6.07,9.82-11.69,15.42-16.88
		C208.44,123.81,212.14,117.06,220.03,120.1z"/>
</g>
<g>
	<ellipse class="st2" cx="253.23" cy="271.37" rx="159.08" ry="131.88"/>
	<g>
		<path d="M253.23,142.34c86.28,0,156.23,57.77,156.23,129.03s-69.95,129.03-156.23,129.03S97.01,342.62,97.01,271.36
			S166.95,142.34,253.23,142.34 M253.23,136.63c-43.05,0-83.58,13.89-114.1,39.1c-14.95,12.35-26.7,26.75-34.93,42.81
			c-8.56,16.72-12.9,34.49-12.9,52.82c0,18.33,4.34,36.1,12.9,52.82c8.22,16.06,19.98,30.46,34.93,42.81
			c30.53,25.21,71.05,39.1,114.1,39.1s83.58-13.89,114.1-39.1c14.95-12.35,26.7-26.75,34.93-42.81c8.56-16.72,12.9-34.49,12.9-52.82
			c0-18.33-4.34-36.1-12.9-52.82c-8.22-16.06-19.98-30.46-34.93-42.81C336.81,150.52,296.29,136.63,253.23,136.63L253.23,136.63z"/>
	</g>
</g>
<g>
	<path class="st3" d="M120.88,382.39c-34.7,0-46.26-24.97-47.55-28.02c-17.63-30.34,2.75-47.69,2.96-47.87
		c7.57-6.63,15.65-10.02,23.94-10.02c23.61,0,40.15,27.24,40.84,28.4l0.31,0.51l9.81,51.56l-2.88,0.89
		C138.54,380.86,129.32,382.39,120.88,382.39C120.88,382.39,120.88,382.39,120.88,382.39z"/>
	<path d="M100.23,299.86c21.97,0,37.94,26.75,37.94,26.75l9.13,48c-10.09,3.12-18.84,4.4-26.43,4.4
		c-34.29,0-44.51-26.15-44.51-26.15c-16.59-28.34,2.07-43.76,2.07-43.76C86.08,302.41,93.44,299.86,100.23,299.86 M100.23,293.1
		c-9.12,0-17.94,3.66-26.2,10.88c-0.98,0.83-6.23,5.59-9.23,14.14c-2.81,8.03-4.12,21.08,5.5,37.76c0.87,2,4.01,8.46,10.79,14.94
		c7.14,6.82,19.83,14.94,39.78,14.94c8.78,0,18.34-1.58,28.42-4.7l5.77-1.78l-1.13-5.93l-9.13-48l-0.22-1.17l-0.61-1.03
		C143.24,321.92,125.73,293.1,100.23,293.1L100.23,293.1z"/>
</g>
<path class="st4" d="M82.69,313.69c1.26,0.78,2.89,0.78,4.41,0.75c-1.51-0.05-3.04,0.39-4.24,1.23c1.08,1.33,2.91,2.12,4.72,2.03
	c-0.65,0.53-1.3,1.06-1.96,1.59c2.87,3.39,8.15,3.79,12.59,5.17c4.57,1.42,6.69,2.01,10.96,2.04c5.75,0.04,8.45,0.31,12.67,3.9
	c8.48,7.19,13.97,17.28,15.16,27.83c0.58,5.2,7.01,14.08,3.58,18.25c-2.58-1.99-10.78-8.32-12.31-11.08
	c-1.53-2.76-3.86-5.55-7.19-6.01c-1.19-0.16-2.39-0.01-3.59,0.04c-6.87,0.31-13.8-3.01-17.47-8.36c-3.67-5.35-3.93-12.52-0.66-18.08
	c-4.51-2.42-9.83-3.54-15.03-3.15c5.78-1.96,11.86-3.16,18-3.56c4.67-0.31,10.53,1.18,15.01,0.1c8.24-1.97,4.06-16.52-0.65-20.78
	c-1.83-1.65-4.3-2.57-6.75-3.28c-5.53-1.59-11.57-2.3-17.09-0.67C89.85,302.55,76.68,309.97,82.69,313.69z"/>
<g>
	<path d="M119.19,344.62c-0.01-0.06-0.12-0.3-0.2-0.46l-0.27-0.56c-0.19-0.37-0.4-0.75-0.62-1.13c-0.44-0.75-0.91-1.49-1.43-2.21
		c-1.02-1.44-2.18-2.8-3.47-4.04c-2.56-2.48-5.61-4.5-9.04-5.77c-3.42-1.3-7.19-1.87-11-1.73c-3.82,0.12-7.67,0.86-11.41,2.04
		c3.5-1.77,7.24-3.16,11.19-3.93c1.97-0.4,4-0.61,6.06-0.62c2.06-0.04,4.13,0.18,6.18,0.58c4.12,0.8,8.09,2.56,11.6,5
		c1.76,1.22,3.41,2.6,4.93,4.13c0.77,0.76,1.49,1.56,2.19,2.4c0.35,0.42,0.69,0.85,1.02,1.3l0.5,0.69c0.17,0.26,0.31,0.45,0.53,0.82
		L119.19,344.62z"/>
</g>
<path class="st5" d="M125.05,352.87c0,0-5.96,13.34-21.22,5c-6.07-3.31-11.7-17.09,0-29.47"/>
<g>
	<path class="st3" d="M381.29,381.73c-6.33,0-13.02-1.05-19.91-3.12l-2.41-0.72v-52.21l0.48-0.8c0.69-1.16,17.23-28.4,40.84-28.4
		c8.3,0,16.38,3.39,24.02,10.08c0.13,0.11,20.56,17.5,2.82,47.91C426,356.74,412.73,381.73,381.29,381.73z"/>
	<path d="M400.3,299.86c6.79,0,14.15,2.56,21.79,9.25c0,0,18.67,15.42,2.07,43.76c0,0-12.39,25.48-42.88,25.48
		c-5.67,0-11.97-0.88-18.93-2.97v-48.77C362.36,326.61,378.34,299.86,400.3,299.86 M400.31,293.1v6.75V293.1L400.31,293.1
		c-25.51,0-43.01,28.82-43.75,30.04l-0.96,1.6v1.86v48.77v5.02l4.81,1.45c7.2,2.16,14.22,3.26,20.88,3.26
		c32.93,0,47.2-25.87,48.81-29.01c9.76-16.78,8.45-29.9,5.62-37.97c-3-8.55-8.26-13.31-9.23-14.14
		C418.24,296.76,409.43,293.1,400.31,293.1L400.31,293.1z"/>
</g>
<path class="st4" d="M419.73,312.63c-1.26,0.78-2.89,0.78-4.41,0.75c1.51-0.05,3.04,0.39,4.24,1.23c-1.08,1.33-2.91,2.12-4.72,2.03
	c0.65,0.53,1.3,1.06,1.96,1.59c-2.87,3.39-8.15,3.79-12.59,5.17c-4.57,1.42-6.69,2.01-10.96,2.04c-5.75,0.04-8.45,0.31-12.67,3.9
	c-8.48,7.19-13.97,17.28-15.16,27.83c-0.58,5.2-7.01,14.08-3.58,18.25c2.58-1.99,10.78-8.32,12.31-11.08
	c1.53-2.76,3.86-5.55,7.19-6.01c1.19-0.16,2.39-0.01,3.59,0.04c6.87,0.31,13.8-3.01,17.47-8.36c3.67-5.35,3.93-12.52,0.66-18.08
	c4.51-2.42,9.83-3.54,15.03-3.15c-5.78-1.96-11.86-3.16-18-3.56c-4.67-0.31-10.53,1.18-15.01,0.1c-8.24-1.97-4.06-16.52,0.65-20.78
	c1.83-1.65,4.3-2.57,6.75-3.28c5.53-1.59,11.57-2.3,17.09-0.67C412.57,301.49,425.74,308.91,419.73,312.63z"/>
<g>
	<path d="M374.57,341.14c0.22-0.37,0.35-0.56,0.53-0.82l0.5-0.69c0.33-0.45,0.67-0.88,1.02-1.3c0.7-0.84,1.42-1.64,2.19-2.4
		c1.52-1.53,3.17-2.92,4.93-4.13c3.51-2.44,7.49-4.2,11.6-5c2.05-0.4,4.13-0.63,6.18-0.58c2.05,0.02,4.08,0.22,6.06,0.62
		c3.95,0.77,7.7,2.17,11.19,3.93c-3.74-1.18-7.59-1.93-11.41-2.04c-3.81-0.14-7.58,0.43-11,1.73c-3.43,1.27-6.48,3.29-9.04,5.77
		c-1.28,1.24-2.44,2.59-3.47,4.04c-0.52,0.71-0.99,1.46-1.43,2.21c-0.22,0.37-0.43,0.75-0.62,1.13l-0.27,0.56
		c-0.08,0.16-0.18,0.4-0.2,0.46L374.57,341.14z"/>
</g>
<path class="st5" d="M376.31,352.87c0,0,5.96,13.34,21.22,5c6.07-3.31,11.7-17.09,0-29.47"/>
<g>
	<path class="st3" d="M250.89,409.61c-51.86,0-86.77-10.94-106.73-33.43c-19.82-22.34-22.49-53.09-22.49-80.21
		c0-62.67,57.97-113.65,129.22-113.65S380.1,233.3,380.1,295.96c0,28.88-2.59,58.58-21.35,80.19
		C339.21,398.67,303.92,409.61,250.89,409.61z"/>
	<g>
		<path d="M250.89,185.69c69.5,0,125.84,49.37,125.84,110.27c0,60.9-12.78,110.27-125.84,110.27
			c-110.08,0-125.84-49.37-125.84-110.27C125.05,235.06,181.39,185.69,250.89,185.69 M250.89,178.94
			c-35.25,0-68.43,12.06-93.43,33.97c-25.25,22.13-39.16,51.62-39.16,83.05c0,27.76,2.77,59.27,23.34,82.46
			c20.63,23.26,56.37,34.57,109.25,34.57c28.18,0,50.9-2.94,69.46-9c17.57-5.73,30.97-14.12,40.96-25.62
			c19.49-22.44,22.18-52.87,22.18-82.4c0-31.43-13.91-60.92-39.16-83.05C319.32,191,286.14,178.94,250.89,178.94L250.89,178.94z"/>
	</g>
</g>
<path class="st4" d="M145.17,372.17c0,0,43.82-22.63,89.5,12.92h34.82c0,0,43.46-25.38,88.97-13.88l-3.26,3.87l-45.26,16.55
	l-105.9,9.27l-54.97-24.42L145.17,372.17z"/>
<ellipse class="st6" cx="175.16" cy="334.42" rx="25.29" ry="16.56"/>
<ellipse class="st6" cx="329.56" cy="334.42" rx="25.29" ry="16.56"/>
<path class="st4" d="M133.27,300.34c0,0,49.45,15.28,76.57-17.5c0,0,11.09,3.98,22.73-10.15c0,0,35.87,41.65,74.55,10.15l65.69,21.4
	l8.31-32.42l-1.94-33.37l-61.63-33.81l-90.37-2.23l-65.42,16.21l-23.01,28.43L133.27,300.34z"/>
<g>
	<path d="M231.87,335.57c-0.15-2.41,0.31-4.79,1.08-7.1c0.8-2.3,1.99-4.54,3.68-6.52c1.66-2,3.88-3.69,6.43-4.8
		c1.28-0.55,2.63-0.91,4-1.16c1.35-0.2,2.81-0.27,4-0.21c2.49,0.09,5.04,0.46,7.52,1.32c1.24,0.45,2.46,0.96,3.61,1.67
		c1.16,0.66,2.24,1.5,3.21,2.43c3.94,3.77,5.44,9.41,4.07,13.98c-1.82-4.36-4.51-7.59-7.72-9.32c-3.18-1.78-6.92-2.38-10.91-2.48
		c-1.06-0.04-1.84-0.03-2.71,0.07c-0.85,0.1-1.69,0.24-2.51,0.5c-0.83,0.23-1.63,0.58-2.45,0.95c-0.8,0.41-1.6,0.89-2.39,1.44
		C237.62,328.55,234.75,331.83,231.87,335.57z"/>
</g>
<g>
	<path class="st7" d="M131.25,357.23c-5.19,0-9.61-2.08-12.78-6c-9.02-11.16-6.43-35.28-4.58-46.6c-0.61,0.06-1.21,0.09-1.8,0.09
		c0,0,0,0,0,0c-12.28,0-16.03-11.91-16.3-18.21c-3.4-54.3,48.93-93.68,51.16-95.33l0.28-0.21l45.08-21.93l0.23-0.08
		c22.16-7.54,45.49-11.36,69.32-11.36c46.88,0,79.41,14.56,80.77,15.17c30.46,13.23,48.84,26.51,53.1,38.38
		c1.61,4.49,0.75,7.51,0.3,8.62c-1.55,4.51-5.01,7.41-9.91,8.42c35.79,26.24,32.25,45.54,32.06,46.43l-0.03,0.13l-0.04,0.13
		c-3.02,10.49-11.75,16.26-24.58,16.26c-1.47,0-2.86-0.08-4.1-0.19c5.77,29.02,5.08,47.47-2.06,56.33
		c-2.92,3.62-6.88,5.53-11.46,5.53c-3.33,0-5.98-1.03-6.79-1.39c-3.08-1.11-5.5-3.42-7.01-6.7c-6.5-14.11,4.29-46.72,8.92-59.31
		c-9.2-1.84-15.75-7.84-20.09-13.62c-0.05,0.08-0.1,0.16-0.15,0.24c-1.24,1.96-2.82,2.67-3.62,2.92c-3.11,1.03-6.43,1.56-9.86,1.56
		c-13.86,0-27.13-8.44-34.85-14.47c-1.41,12.96-11.4,18.92-17.64,20.4c-3.34,1.07-6.85,1.62-10.45,1.62
		c-29.81,0-60.34-37.16-71.96-52.94c-8.74,32.32-20.2,48.69-34.11,48.69c-2.28,0-4.21-0.48-5.72-1.07
		c-5.15,6.63-10.8,9.99-16.82,9.99c-1.98,0-3.8-0.38-5.44-0.96c8.39,33.97,9.12,55.76,2.18,64.84c-3.07,4.02-6.76,4.45-8.2,4.45
		c-0.1,0-0.2,0-0.29-0.01C133.05,357.17,132.13,357.23,131.25,357.23z"/>
	<g>
		<path d="M261.85,161.39c46.59,0,79.2,14.83,79.2,14.83c59.71,25.94,51.41,42.17,51.41,42.17c-1.65,4.98-6.07,6.37-10.48,6.37
			c-5.55,0-11.09-2.2-11.09-2.2c48.12,29.59,43.56,51.26,43.56,51.26c-3.24,11.26-13.36,13.51-20.93,13.51c-5.03,0-8.94-1-8.94-1
			c11.9,55.04-0.76,62.66-8.68,62.66c-3.04,0-5.38-1.12-5.38-1.12c-17.88-6.11,5.79-65.71,5.79-65.71
			c-20.3-0.42-28.65-24.04-28.65-24.04c2.9,12.22-1.66,13.19-1.66,13.19c-2.88,0.96-5.8,1.38-8.72,1.38
			c-19.77,0-38.99-19.29-38.99-19.29c3.73,21.26-14.52,25.35-14.52,25.35c-3.1,1.02-6.25,1.48-9.43,1.48
			c-35.42,0-73.61-58.09-73.61-58.09c-10.94,45.95-24.46,53.85-32.46,53.85c-4.19,0-6.87-2.17-6.87-2.17
			c-5.71,8.51-11.15,11.1-15.67,11.1c-6.97,0-11.71-6.17-11.71-6.17c19.39,71.52,3.1,74.5,0.25,74.5c-0.26,0-0.41-0.02-0.41-0.02
			c-0.92,0.13-1.79,0.2-2.62,0.2c-24.11,0-12.57-53.75-12.57-53.75c-2.51,0.86-4.69,1.23-6.59,1.23
			c-11.88,0-12.49-14.57-12.49-14.57c-3.32-52.93,49.62-92.11,49.62-92.11l44.55-21.67C218.11,164.27,241.34,161.39,261.85,161.39
			 M261.85,153.78c-24.25,0-47.98,3.89-70.54,11.56l-0.45,0.15l-0.43,0.21l-44.55,21.67l-0.63,0.31l-0.57,0.42
			c-0.57,0.43-14.22,10.61-27.52,27.64c-17.92,22.95-26.63,47.5-25.17,71.02c0.05,0.87,0.38,5.37,2.45,9.98
			c2.99,6.65,8.41,10.78,15.08,11.62c-0.41,3.12-0.79,6.74-1.02,10.57c-0.95,16.1,1.41,27.77,6.99,34.69
			c3.92,4.85,9.37,7.42,15.74,7.42c0.95,0,1.92-0.06,2.91-0.17c0.04,0,0.07,0,0.11,0c2.01,0,7.12-0.58,11.22-5.94
			c7.35-9.61,7.32-30.09-0.15-62.39c0.13,0,0.26,0,0.39,0c6.58,0,12.66-3.16,18.14-9.42c1.32,0.3,2.79,0.5,4.4,0.5
			c14.64,0,26.61-14.86,35.67-44.21c3.97,5.04,9.02,11.04,14.83,17.08c20.04,20.82,38.73,31.38,55.57,31.38
			c3.97,0,7.85-0.6,11.54-1.78c1.62-0.43,6.85-2.06,11.64-6.36c2.78-2.49,5.69-6.12,7.39-11.18c8.32,5.7,20.08,11.77,32.37,11.77
			c3.82,0,7.53-0.58,11.02-1.74c0.65-0.2,1.49-0.54,2.39-1.13c3.87,4.3,8.94,8.33,15.38,10.56c-1.56,4.51-3.47,10.41-5.19,16.78
			c-5.32,19.66-6.05,33.25-2.24,41.53c1.93,4.19,5.06,7.17,9.06,8.65c1.23,0.53,4.33,1.66,8.2,1.66c5.68,0,10.8-2.47,14.42-6.95
			c7.46-9.25,8.7-27.2,3.73-54.73c14.19-0.17,24.28-7.08,27.71-19.01l0.08-0.27l0.06-0.27c0.5-2.36,3.22-21.13-28.31-46.29
			c2.76-1.91,4.82-4.63,6-8.03c0.71-1.81,1.67-5.76-0.29-11.22c-4.68-13.06-23.24-26.71-55.17-40.59
			C341.97,168.29,308.95,153.78,261.85,153.78L261.85,153.78z"/>
	</g>
</g>
<g>
	<path class="st0" d="M373.55,303.21c0.83,3.61,1.09,7.36,0.76,11.05c-0.17-2.97,1.19-5.98,3.52-7.83c0.36,2.3,0.71,4.59,1.07,6.89
		c0.13-6.06,0.92-12.1,2.35-17.99c2.87,12.9,3.07,26.38,0.58,39.36c-0.47,2.47-1.58,5.43-4.08,5.7c-0.24-3.58-0.48-7.16-0.73-10.74
		c-1.61-0.63-3.65,0.62-3.82,2.34c-1.16-1.18-0.62-4.04-2.27-4.04c-0.74,0-1.24,0.73-1.53,1.41c-0.9,2.09-0.92,4.59-1.1,6.79
		C361.47,330.81,370.3,309.24,373.55,303.21z"/>
</g>
<g>
	<path class="st8" d="M372.71,317.3c0.5-0.89,1.7-1.82,2.36-1.05c0.22,0.26,0.26,0.63,0.28,0.97c0.21,3.22-0.16,6.48-1.1,9.58
		c-0.18-2,0.72-4.07,2.3-5.31c0.51,1.96,0.56,4.03,0.15,6.01c-0.14-1.35,0.34-2.76,1.29-3.73c0.48,0.54,0.68,1.31,0.52,2.01
		c-0.48-3.45,0.27-7.06,2.08-10.04c1.65,7.5,0.56,15.57-3.03,22.36c-1.15-1.45-1.58-3.43-1.14-5.23c-0.2,2.31-1.45,4.4-3.41,5.51
		c-0.96-2.03-0.47-4.23-1.19-6.24c-0.35-0.97-2.44-0.32-2.77-1.56C368.13,326.98,371.01,320.35,372.71,317.3z"/>
</g>
<g>
	<path class="st0" d="M124.42,303.49c1.46,3.27,2.49,6.74,3.05,10.28c-0.25-2.99-0.03-6.02,0.66-8.94c1.42,1.74,2.48,3.77,3.1,5.92
		c-0.78-6.01-1.55-12.01-2.33-18.02c1.58,0.36,2.42,2.05,2.99,3.56c3.92,10.24,5.84,21.24,5.63,32.2c-0.05,2.82-0.37,5.91-2.38,7.88
		c-2.85,2.79-5.65-3.99-7.39-5.26c-2.2-1.62-4.79-1.12-6.39-3.74c-1.75-2.88-0.86-8.59-0.52-11.78
		C121.04,313.71,124.82,304.38,124.42,303.49z"/>
</g>
<g>
	<path class="st8" d="M121.12,313.38c0.66-0.58,1.46,0.57,1.58,1.45c0.41,3.11,0.52,6.27,0.32,9.4c-0.08-2.05,0.38-4.12,1.33-5.94
		c1,2.31,1.42,4.88,1.21,7.39c0.4-1.38,1-2.69,1.77-3.9c0.37,1.3,0.75,2.6,1.12,3.9c-0.09-4.13,0.45-8.27,1.61-12.23
		c0.71-0.44,1.41,0.58,1.6,1.39c1.69,6.99,1.72,14.39,0.08,21.39c-2.51-0.12-4.49-2.97-3.72-5.36c0.28,2.66-0.45,5.41-2.02,7.58
		c-1.14-1.68-1.71-3.74-1.57-5.77c-0.12,1.81-0.57,3.78-1.5,5.15C116.94,334.82,120.12,318.74,121.12,313.38z"/>
</g>
<g>
	<path class="st0" d="M362.41,199.08c5,2.79,10.09,6.57,11.46,12.13c-2.15,0.38-4.46-0.35-5.99-1.9c1.5,1.69,2.65,3.69,3.35,5.83
		c-0.95,0.61-2.23,0.62-3.2,0.05c-2.04,1.3-4.6,1.76-6.97,1.24c2.73,3.01,5.19,6.28,7.33,9.74c-2.2,0.85-4.85,0.37-6.6-1.21
		c12.7,9.35,26.02,19.5,31.66,34.22c1.04,2.71,1.76,5.83,0.47,8.42c-1.29,2.59-5.42,3.71-7.1,1.35c1.8,1.41-0.35,4.6-2.63,4.39
		c-2.28-0.21-3.89-2.24-5.22-4.11c0.73,1.58,0.89,3.41,0.45,5.1c-2.48-1.25-4.96-2.51-7.44-3.76c0.33,1.12,0.65,2.24,0.98,3.37
		c-8.53-1.04-14.41-9.15-17.48-17.18c-3.08-8.02-4.57-16.84-9.55-23.84c-3.55-4.98-8.61-8.65-13.58-12.22
		c-4.31-3.1-8.62-6.2-12.92-9.3c5.82-5.03,16.34,1.46,22.06-3.67c4.32-3.87-0.01-10.92,3.85-13.88
		C349.46,190.69,358.86,197.1,362.41,199.08z"/>
</g>
<g>
	<path class="st0" d="M314.63,253.5c2.05,2.08,4.56,4.11,7.37,3.92c-1.16-3.16-2.79-6.11-4.81-8.72c1.97,2.35,4.81,3.82,7.74,4.01
		c-0.52-1.74-1.48-3.33-2.75-4.55c1.58,1.12,3.15,2.24,4.73,3.37c0.49-1.01,0.42-2.31-0.17-3.26c0.95,0.57,1.91,1.14,2.86,1.71
		c-0.17-0.68-0.34-1.37-0.52-2.05c2.24,2.17,4.98,3.74,7.9,4.54c1.11-3.83-1.85-7.52-4.55-10.28c1.47,1.12,3.02,2.14,4.63,3.03
		c0.06-4.32-2.79-10.51-5.89-13.23c-2.62-2.29-6.63-6.96-11.63-6.8c-1.18,0.04,1.3,1.41,0.17,1.18s-2.46,0.24-2.92,1.38
		c-0.63,1.56,0.6,3.43,0.04,5.02c-0.07,0.19-5.31-2.13-5.9-2.11c-1.19,0.04-2,1.17-3.51,1.24c-1.93,0.1-5.43-2.62-6.15,0.16
		c-0.63,2.43,4.15,9.24,5.37,11.21C308.92,246.99,311.61,250.43,314.63,253.5z"/>
</g>
<g>
	<path class="st0" d="M225.67,230.55c9.43-3.13,19-5.86,28.67-8.16c4.77-1.14,9.82-2.17,14.5-0.73c3.04,0.93,5.68,2.83,8.19,4.77
		c8.25,6.36,15.87,13.53,22.74,21.36c-2.12-0.8-4.25-1.59-6.37-2.39c0.54,1.67,1.09,3.35,1.63,5.02c-2.48-0.7-4.87-1.71-7.1-3
		c0.58,2.11,1.16,4.22,1.73,6.32c-1.43-0.4-2.87-0.8-4.3-1.2c0.62,2.35,0.89,4.79,0.81,7.22c-0.02,0.71-0.1,1.48-0.59,1.99
		c-0.77,0.8-2.08,0.57-3.15,0.28c-2.71-0.74-5.42-1.49-8.12-2.23c0.27,1.09,0.54,2.17,0.81,3.26c-1.89-0.63-3.68-1.6-5.24-2.85
		c0.6,1.67,0.86,3.46,0.76,5.22c-3.15-0.54-6.21-1.56-9.06-3.01c0.82,1.95,1.64,3.89,2.46,5.84c-18.29-6.1-31.99-21.06-44.83-35.44
		C219.37,232.82,225.54,230.59,225.67,230.55z"/>
</g>
<g>
	<path class="st0" d="M107.22,269.68c2.15-2.11,3.8-4.74,4.76-7.59c-1.01,3-0.43,6.48,1.5,8.99c0.69-1.17,1.38-2.34,2.07-3.51
		c0.05,1.91,0.11,3.83,0.16,5.74c0.63-0.2,1.25-0.41,1.88-0.61c0.31,4.82,1.29,9.6,2.9,14.16c0.2,0.57,0.48,1.2,1.04,1.4
		c1,0.36,1.82-0.81,2.24-1.79c1.46-3.45,2.91-6.89,4.37-10.34c2.95-0.68,5.41-3.16,6.06-6.12c0.48,1.84,3.22,2.57,4.55,1.21
		c0.27,1.91,2.68,2.87,4.54,2.35c1.86-0.52,3.24-2.03,4.53-3.47c0.19,0.66,0.38,1.32,0.57,1.98c1.54,0.55,3.02-0.9,3.97-2.23
		c4.76-6.67,8.05-14.38,9.59-22.42c0.33-1.73,0.43-3.85-1-4.88c-0.73-0.52-1.69-0.59-2.59-0.59c-3.31,0-6.61,0.73-9.61,2.13
		c-1.01,0.47-2.04,1.03-3.16,0.99c-1.83-0.07-3.16-1.68-4.37-3.06c-2.41-2.75-5.52-5.15-9.15-5.59c-3.63-0.45-7.73,1.65-8.53,5.22
		c2.27-1.61,3.06-5,1.72-7.44c-0.28-0.5-0.66-0.99-1.21-1.16c-4.05-1.28-10.87,12.3-12.21,15.45
		C109.08,254.97,107.3,262.65,107.22,269.68z"/>
</g>
<g>
	<path class="st8" d="M305.48,240.03c1.35,1.59,2.99,3.26,4.9,3.07c0.48-2.53-0.26-5.32-1.87-7.11c1.3,2.08,2.99,3.82,4.92,5.08
		c0.87,0.57,1.94,1.03,2.84,0.53c0.9-0.51,0.99-2.42,0-2.61c1.92,2.6,4.28,4.75,6.92,6.29c0.26,0.15,0.54,0.3,0.82,0.21
		c0.4-0.12,0.58-0.66,0.66-1.13c0.42-2.5-0.24-5.22-1.73-7.1c1.5,1.15,3.11,2.08,4.8,2.78c0.64,0.27,1.35,0.5,2,0.27
		c1.13-0.4,1.62-2.07,1.31-3.39s-1.16-2.37-1.99-3.35c-4.67-5.55-9.35-11.1-14.02-16.65c-1.81-2.15-4.47-4.48-6.74-3.02
		c0.63,4.99,3.18,9.62,6.84,12.38c-2.68-0.97-5.37-1.93-8.05-2.9c-0.32,2.22,0.46,4.61,1.97,6.03c-0.97-2.48-3.03-4.35-5.34-4.86
		c-0.96-0.21-2.36,0.36-2.08,1.43c-1.04-4.03-6.53-6.58-9.39-4.44C294.82,228.32,300.99,234.74,305.48,240.03z"/>
</g>
<g>
	<path class="st8" d="M335.14,218.99c2.53,1.2,5.45,2.33,7.52,0.99c-1.03-3.41-3.59-6.44-6.56-7.75c2.78,1.83,5.8,3.03,8.79,3.47
		c1.35,0.2,2.87,0.17,3.58-0.98c0.71-1.15-0.37-3.57-1.62-3.24c3.81,2.12,7.86,3.43,11.83,3.83c0.39,0.04,0.81,0.06,1.07-0.21
		c0.38-0.38,0.25-1.15,0.05-1.78c-1.08-3.34-3.52-6.32-6.39-7.8c2.43,0.56,4.86,0.8,7.23,0.69c0.9-0.04,1.85-0.15,2.46-0.81
		c1.05-1.14,0.57-3.49-0.6-4.95s-2.8-2.27-4.36-3.01c-8.8-4.2-17.61-8.39-26.41-12.59c-3.42-1.63-7.9-2.99-9.6,0.12
		c3.82,5.83,9.62,10.1,15.52,11.43c-3.67,0.34-7.35,0.68-11.02,1.03c1.01,2.93,3.39,5.45,6,6.35c-2.65-2.52-6.17-3.66-9.14-2.96
		c-1.23,0.29-2.48,1.8-1.49,2.97c-3.7-4.4-11.57-4.4-13.51-0.11C315.66,210.59,326.72,215.01,335.14,218.99z"/>
</g>
<g>
	<path class="st8" d="M347.47,233.39c4.98,2.61,9.06,7.07,11.32,12.4c-0.96-2.13-1.47-4.48-1.5-6.83c2.54,1,4.61,3.21,5.51,5.89
		c-0.6-1.52-1.21-3.04-1.81-4.55c0.78,0.5,1.57,1,2.35,1.5c-2.41-3.92-4.51-8.04-6.28-12.31c2.99,0,5.42,2.47,7.27,4.94
		c4.24,5.67,7.33,12.29,8.99,19.28c0.04-3.83-0.77-7.67-2.35-11.13c2.79,2.46,5.31,5.24,7.51,8.28c-2.28-3.98-4.57-7.95-6.85-11.93
		c7.12,5.55,12.84,13.07,16.41,21.58c0.82,1.97,1.1,5-0.87,5.58c-0.87,0.26-1.78-0.17-2.58-0.62c-2.84-1.58-5.51-3.5-7.94-5.71
		c0.98,0.51,1.56,1.73,1.35,2.85c-2.36,0.36-4.77-0.21-6.83-1.43c2.61,3.36,1.44,5.27-2.03,5.17c-3.61-0.1-7.48-4.31-9.72-6.8
		c-3.21-3.57-5.88-7.68-7.9-12.1C350.68,245.65,348.39,233.87,347.47,233.39z"/>
</g>
<g>
	<path class="st8" d="M212.7,217.87c-0.23-1.12-0.39-2.39,0.28-3.31c1.26-1.74,3.99-0.76,5.75,0.47c5.7,3.97,10.6,9.06,14.35,14.91
		c-1.2-2.2-2.07-4.59-2.55-7.05c-0.14-0.7-0.21-1.53,0.29-2.03c0.72-0.72,1.93-0.22,2.77,0.36c2.79,1.93,5.17,4.43,6.96,7.3
		c-1.97-2.3,0.93-6.16,3.95-5.94c3.02,0.22,5.27,2.92,6.56,5.66c-1.42-2.32-2.32-4.95-2.6-7.66c3.23-1.1,7.13,0.39,8.81,3.36
		c-2.32-3.35-3.82-7.26-4.34-11.3c-0.1-0.75-0.15-1.56,0.24-2.2c0.51-0.84,1.6-1.11,2.58-1.19c4.24-0.31,8.38,1.8,11.45,4.74
		c3.07,2.94,5.26,6.67,7.41,10.34c-1.01-1.65-2.06-3.39-2.14-5.32c-0.08-1.93,1.19-4.07,3.12-4.22c1.93-0.15,3.42,1.58,4.55,3.15
		c2.59,3.59,5.14,7.2,7.65,10.84c2.58,3.73,5.24,8.12,4.08,12.51c-3.36,0.73-7.1-0.72-9.08-3.53c1.33,1.83,2.05,4.1,2,6.36
		c-1.53-0.73-3.05-1.45-4.58-2.18c0.71,1.84,1.41,3.68,2.12,5.52c-1.22-0.14-2.4-0.55-3.45-1.18c1.01,1.96,2.03,3.99,2.13,6.19
		s-1.02,4.61-3.11,5.3c-2.26,0.74-4.59-0.7-6.53-2.07c-4.01-2.84-8.03-5.69-12.04-8.53c2.92,2.94,4.94,6.77,5.71,10.84
		c-3.01-1.72-5.86-3.73-8.48-6c2.81,2.3,4.13,6.29,3.24,9.81c-3.24-0.93-6.15-3-8.09-5.75c1.71,2.08,2.76,4.68,2.97,7.36
		c0.07,0.87-12.84-7.13-13.84-7.96c-3.77-3.12-8.12-5.52-11.8-8.91C220.81,238.98,214.94,228.83,212.7,217.87z"/>
</g>
<g>
	<path class="st8" d="M138.6,226.84c2.24-1.94,5.04-3.24,7.98-3.69c0.08,1.67,0.16,3.35,0.24,5.02c1.62,0.09,3.23,0.17,4.85,0.26
		c0.09,1.35,0.18,2.71,0.27,4.06c1.16-0.23,2.33-0.46,3.49-0.69c0.64,1.81,0.94,3.74,0.88,5.65c2.6-6.61,7.64-12.23,13.93-15.53
		c1.12-0.59,2.72-1,3.45,0.02c0.42,0.59,0.33,1.39,0.2,2.1c-0.75,4.26-1.88,8.46-3.36,12.52c1.48-3.51,3.37-6.86,5.6-9.95
		c1-1.38,2.32-2.83,4.02-2.8c1.69,0.03,3.02,1.64,3.34,3.3c0.32,1.67-0.14,3.37-0.59,5c0.71-1.87,1.42-3.73,2.12-5.6
		c0.68-1.79,2-3.95,3.86-3.53c1.71,0.38,2.14,2.59,2.13,4.34c0,7.2-1.25,14.4-3.68,21.18c-1.29,3.6-3,7.21-5.95,9.65
		c-2.95,2.44-7.39,3.4-10.65,1.4c-1.44-4.26-1.53-8.97-0.25-13.28c-1.14,2.42-2.63,4.68-4.43,6.66c-1.79,1.98-4.17,3.8-6.84,3.62
		c-2.67-0.18-5.01-3.42-3.48-5.6c-0.67,2.01-1.41,4.12-3.04,5.47c-1.63,1.35-4.43,1.51-5.63-0.23c-1.33-1.94,0.09-4.52,1.48-6.42
		c-4.11,7.19-10.01,13.36-17.02,17.78c-1.35,0.85-2.82,1.66-4.41,1.67c-3,0.02-5.35-2.95-5.68-5.93s0.86-5.91,2.16-8.61
		c2.07-4.3,4.48-8.43,7.22-12.34c-2.84,4.03-7.13,7.03-11.9,8.3c-1.54-4.91,0.39-10.71,4.56-13.72c-1.37,1.82-3.52,3.04-5.78,3.28
		c-2.97,0.31,8.94-14.71,9.4-15.17c3.98-3.99,7.45-8.9,12.94-10.6C141.3,218.5,140.56,223.05,138.6,226.84z"/>
</g>
<g>
	<path class="st0" d="M142.72,211.4c0.68,1.27,1.36,2.54,2.04,3.81c1.51,0.08,3.04-0.62,3.96-1.82c0.13,1.03,1.52,1.47,2.47,1.05
		c0.95-0.42,1.54-1.36,2.07-2.26c1.92,3.96,4.64,7.53,7.94,10.44c1.07-2.89,2.14-5.78,3.21-8.68c1.5,2.18,3.29,4.17,5.3,5.89
		c1.08-1.79,1.85-3.76,2.29-5.8c0.98,1.13,2.2,2.05,3.56,2.68c0.33-1.4,0.66-2.8,1-4.19c0.7,1.06,1.39,2.11,2.09,3.17
		c0.33-1.08,0.66-2.15,0.99-3.23c2.19,5.03,6.08,9.31,10.89,11.95c1.12-4.43,1.41-9.06,0.84-13.59c2.83,1.82,5.9,3.26,9.1,4.29
		c-0.03-1.64-0.06-3.29-0.1-4.93c0.66,1.17,1.7,2.13,2.92,2.71c1.24-1.02,1.92-2.68,1.76-4.28c0.75,0.44,1.51,0.89,2.26,1.33
		c1.21-1.18,1.85-2.91,1.72-4.59c4.32,3.76,9.08,7.03,14.14,9.72c1.69,0.9,4.2,1.52,5.16-0.14c0.36-0.62,0.34-1.39,0.28-2.1
		c-0.4-4.63-2.22-9.13-5.16-12.73c2.37,1.57,4.75,3.14,7.12,4.71c1.81,1.2,4.01,2.45,6.03,1.66c2.03-0.78,1.98-4.69-0.19-4.5
		c1.15-0.15,2.31-0.3,3.46-0.46c-0.43-1.95-1.19-3.83-2.25-5.53c8.05,3.13,17.21,3.34,25.4,0.59c-1.4-5.3-5.42-9.85-10.51-11.88
		c4.41,0.05,8.82,0.09,13.23,0.14c-0.78-3.16-2.94-5.95-5.8-7.51c2.08,1.72,5.79,0.3,6.3-2.36c0.51-2.65-2.23-5.32-4.89-4.88
		c5.9,0.19,11.83-0.88,17.29-3.11c-3.69-5.27-13.59-6.08-20.01-5.57c-38.42,3.07-75.58,10.01-108.32,30.34
		c-7.36,4.57-16.08,13.19-16.86,22.52C134.26,214.39,143.48,212.81,142.72,211.4z"/>
</g>
<g>
	<path class="st9" d="M314.58,275.65c-3.36,0-7.35-0.77-11.87-2.28c-17.54-5.87-16.89-14.17-15.8-17.47
		c1.71-5.17,7.36-8.38,14.75-8.38c3,0,6.07,0.52,9.13,1.54c10.9,3.65,17.49,12.36,15.01,19.83
		C324.97,271.41,322.4,275.65,314.58,275.65z"/>
	<g>
		<path d="M301.66,250.89c2.54,0,5.29,0.44,8.06,1.37c8.97,3,14.74,9.97,12.88,15.57c-1.04,3.14-4.02,4.44-8.02,4.44
			c-3.12,0-6.86-0.79-10.79-2.1c-8.97-3-15.52-7.61-13.66-13.2C291.4,253.09,295.99,250.89,301.66,250.89 M301.66,244.14
			L301.66,244.14c-8.89,0-15.76,4.1-17.95,10.7c-1.41,4.26-2.49,14.9,17.93,21.73c4.86,1.63,9.22,2.45,12.94,2.45
			c10.31,0,13.53-6.34,14.43-9.07c3.07-9.27-4.46-19.85-17.15-24.1C308.46,244.72,305.03,244.14,301.66,244.14L301.66,244.14z"/>
	</g>
</g>
<g>
	<path class="st0" d="M305.55,265.99c-8.05-2.69-14.14-6.68-13.97-11.51c-0.65,0.73-1.15,1.55-1.46,2.48
		c-1.86,5.6,4.7,10.2,13.66,13.2s16.96,3.26,18.81-2.34c0.2-0.61,0.31-1.23,0.33-1.86C319.8,269.08,313.02,268.49,305.55,265.99z"/>
</g>
<g>
	<path class="st9" d="M192.53,278.15c-7.82,0-10.39-4.23-11.23-6.75c-2.48-7.48,4.12-16.19,15.01-19.83
		c3.06-1.02,6.13-1.54,9.13-1.54c7.38,0,13.03,3.21,14.74,8.38c1.09,3.3,1.74,11.6-15.8,17.47
		C199.88,277.38,195.89,278.15,192.53,278.15C192.53,278.15,192.53,278.15,192.53,278.15z"/>
	<g>
		<path d="M205.45,253.39c5.67,0,10.26,2.2,11.54,6.07c1.86,5.6-4.7,10.2-13.66,13.2c-3.93,1.32-7.67,2.1-10.79,2.1
			c-4,0-6.98-1.3-8.02-4.44c-1.86-5.6,3.91-12.57,12.88-15.57C200.17,253.83,202.92,253.39,205.45,253.39 M205.45,246.64
			c-3.37,0-6.8,0.58-10.2,1.72c-12.69,4.25-20.22,14.83-17.15,24.1c0.9,2.73,4.12,9.07,14.43,9.07c3.72,0,8.07-0.83,12.94-2.45
			c20.42-6.83,19.34-17.48,17.93-21.73C221.22,250.74,214.34,246.64,205.45,246.64L205.45,246.64z"/>
	</g>
</g>
<path d="M134.57,269.61c0,0,14.63,14.8,22.9-3.31c0,0,18.61,12.45,26.69-30.78c0,0-10.58,34.67-27.33,24.75
	C156.84,260.28,151.75,276.52,134.57,269.61z"/>
<path d="M125.05,345.13c0,0,26.12,9.77,8.23-47.04C133.28,298.09,142.34,343.51,125.05,345.13z"/>
<path d="M368.82,342.39c0,0,25.23,11.91,12.09-46.19C380.91,296.2,386.18,342.22,368.82,342.39z"/>
<path d="M232.89,235.53c0,0,29.34,47.23,58.68,32.01C291.57,267.54,263.96,295.96,232.89,235.53z"/>
<path d="M376.31,235.53c0,0,35.78,20,28.04,35.83c0,0-4.59,9.45-16.32,10.13c0,0,10.04-3.66,12.09-15.12
	C402.17,254.9,382.83,239.28,376.31,235.53z"/>
<path d="M351.03,155.89c0,0,14.52-1.13,2.93-13.55C353.96,142.34,359.24,150.91,351.03,155.89z"/>
<path d="M376.73,207.75c0,0-14.51-26.67-86.92-34.58C289.8,173.17,354.06,188.7,376.73,207.75z"/>
<g>
	<path class="st10" d="M167.95,200.53c-7.76,0-15.27-1.13-22.35-3.35c-6.8-2.13-11.3-8.59-10.94-15.7l6.28-126.03
		c0.09-1.89,1.32-3.53,3.1-4.16c0.51-0.18,1.04-0.27,1.56-0.27c1.3,0,2.57,0.54,3.47,1.54l86.45,96.06
		c4.4,4.89,5.05,12.24,1.57,17.87c-4.62,7.46-14.68,18.25-36.4,27.29C189.9,198.25,178.89,200.53,167.95,200.53z"/>
	<g>
		<path d="M145.6,55.67l86.45,96.06c3.06,3.4,3.48,8.4,1.07,12.29c-4.16,6.72-13.49,16.81-34.22,25.43
			c-11.55,4.8-22.06,6.4-30.94,6.4c-8.75,0-15.93-1.55-20.95-3.13c-4.76-1.5-7.93-6.01-7.68-11.02L145.6,55.67 M145.6,46.35
			c-1.05,0-2.1,0.18-3.12,0.54c-3.56,1.27-6,4.55-6.19,8.32l-6.28,126.03c-0.46,9.23,5.38,17.62,14.2,20.39
			c7.52,2.36,15.51,3.56,23.74,3.56c11.55,0,23.17-2.4,34.52-7.12c22.86-9.51,33.6-21.09,38.57-29.14
			c4.56-7.38,3.71-17.02-2.07-23.44l-86.45-96.06C150.73,47.43,148.19,46.35,145.6,46.35L145.6,46.35z"/>
	</g>
</g>
<g>
	<path class="st11" d="M151.59,64.08l-6.38-7.09l-6.23,125.15c-0.25,4.97,2.9,9.46,7.63,10.94c8.64,2.71,23.68,5.35,42.2,0.02
		L151.59,64.08z"/>
</g>
<g>
	<path class="st12" d="M167.95,198.72c-7.47,0-15.01-1.13-21.8-3.26c-1.67-0.52-3.22-1.36-4.59-2.48l-3.03-2.47l3.27-2.13
		c15.88-10.35,38.37-31.5,55.36-73.53l1.71-4.23l23.96,26.62l-0.69,1.67c-6.19,14.85-18.42,37.01-41.53,58.3l-0.65,0.6l-0.88,0.13
		C175.38,198.45,171.63,198.72,167.95,198.72C167.95,198.72,167.95,198.72,167.95,198.72z"/>
	<g>
		<path d="M199.81,115.91l19.69,21.88c-6.66,15.98-18.83,37.04-40.83,57.3c-3.79,0.54-7.37,0.77-10.73,0.77
			c-8.75,0-15.92-1.55-20.95-3.13c-1.36-0.43-2.59-1.11-3.65-1.97C158.52,180.88,182.19,159.48,199.81,115.91 M197.94,105.3
			l-3.42,8.47c-16.71,41.34-38.74,62.08-54.28,72.21l-6.55,4.27l6.06,4.94c1.66,1.35,3.52,2.36,5.54,2.99
			c7.17,2.25,14.8,3.39,22.66,3.39c3.82,0,7.7-0.28,11.54-0.83l1.75-0.25l1.3-1.2c23.49-21.63,35.93-44.19,42.23-59.3l1.39-3.33
			l-2.41-2.68l-19.69-21.88L197.94,105.3L197.94,105.3z"/>
	</g>
</g>
<g>
	<path class="st12" d="M139.8,114.76l0.35-0.6c1.1-1.88,2.25-3.78,3.43-5.74c5.74-9.53,12.25-20.33,16.82-34.35l1.54-4.73
		l20.98,23.55l-0.67,1.65c-9.5,23.21-22.79,44.68-39.52,63.83l-5.41,6.19L139.8,114.76z"/>
	<g>
		<path d="M163.11,74.95l16.49,18.51c-7.77,18.99-19.96,41.21-39.03,63.03l2.04-40.89C149.14,104.46,157.51,92.17,163.11,74.95
			 M160.76,63.74l-3.08,9.45c-4.47,13.72-10.89,24.37-16.55,33.76c-1.2,1.99-2.34,3.87-3.45,5.77l-0.71,1.21l-0.07,1.4l-2.04,40.89
			l-0.82,16.42l10.82-12.38c16.94-19.38,30.4-41.12,40.01-64.62l1.35-3.3l-2.37-2.66l-16.49-18.51L160.76,63.74L160.76,63.74z"/>
	</g>
</g>
<g>
	<path class="st12" d="M143.42,73.26c-12.1,0-21.94-9.88-21.94-22.03s9.84-22.03,21.94-22.03c12.1,0,21.94,9.88,21.94,22.03
		S155.52,73.26,143.42,73.26z"/>
	<g>
		<path d="M143.42,33c10.02,0,18.14,8.16,18.14,18.23s-8.12,18.23-18.14,18.23c-10.02,0-18.14-8.16-18.14-18.23S133.41,33,143.42,33
			 M143.42,25.39c-14.2,0-25.75,11.59-25.75,25.84s11.55,25.84,25.75,25.84s25.75-11.59,25.75-25.84S157.62,25.39,143.42,25.39
			L143.42,25.39z"/>
	</g>
</g>
<g>
	<path class="st3" d="M199.42,468.87c-8.94,0-19.15-0.92-30.37-2.73c-2.85-0.21-32.67-3.03-36.72-27.24l-0.02-0.11l-0.01-0.12
		c-0.15-1.53-3.5-37.69,10.67-54.7c4.33-5.19,9.83-8.13,16.36-8.72c0.43-0.07,1.41-0.22,2.58-0.22c4.13,0,6.24,1.69,7.27,3.11
		l0.55,0.76c1.75-0.79,7.86-3.32,14.27-3.32c6.81,0,11.95,2.8,14.94,8.12c0.59-0.12,2.6-0.48,5.52-0.48c4.97,0,12.46,1.04,19.89,6
		l0.24,0.16l0.07-0.1l1.34-0.22c0.15-0.02,1.49-0.24,3.49-0.24c5.51,0,18.62,1.72,21.46,17.61l0.07,0.38l-0.02,0.39
		c-0.16,3.01-1.65,29.15-5.14,38.13C245.37,449.43,240.82,468.87,199.42,468.87z"/>
	<g>
		<path d="M161.91,378.42c1.54,0,3.51,0.31,4.54,1.72c0,0-12.38,26.86-3.8,52.92c0,0-5.22-34.15,8.08-50.89c0,0,6.54-3.2,13.27-3.2
			c4.85,0,9.8,1.66,12.5,7.36c0,0-14.11,23.11-7.07,52.62c0,0-1.23-36.88,10.1-51.91c0,0,1.91-0.43,4.94-0.43
			c4.43,0,11.25,0.92,18.01,5.43c0,0-9.11,23.15-4.75,48.69c0,0-0.18-36.21,8.83-48.33c0,0,1.16-0.19,2.93-0.19
			c5.22,0,15.78,1.67,18.13,14.83c0,0-1.58,29.37-5.08,37.5c0,0-0.62,20.95-43.13,20.95c-8.3,0-18.19-0.8-29.98-2.71
			c0,0-30.01-1.91-33.77-24.44c0,0-5.59-57.22,24.11-59.74C159.77,378.61,160.71,378.42,161.91,378.42 M161.91,371.66L161.91,371.66
			c-1.31,0-2.41,0.14-3.03,0.24c-7.39,0.71-13.62,4.04-18.51,9.91c-15.06,18.08-11.59,55.6-11.43,57.19l0.02,0.23l0.04,0.23
			c1.94,11.63,9.68,20.55,22.38,25.8c7.96,3.29,15.49,4.09,17.25,4.24c11.35,1.82,21.71,2.75,30.79,2.75
			c42.46,0,48.78-20.22,49.72-26.01c3.51-9.59,4.97-33.91,5.24-38.84l0.04-0.78l-0.14-0.77c-2.28-12.77-11.54-20.4-24.78-20.4
			c-2.23,0-3.76,0.24-4.05,0.29l-0.22,0.04c-7.8-4.87-15.55-5.92-20.76-5.92c-1.52,0-2.83,0.09-3.86,0.2
			c-3.71-5.09-9.48-7.84-16.6-7.84c-5.26,0-10.21,1.48-13.26,2.63C168.6,372.78,165.53,371.66,161.91,371.66L161.91,371.66z"/>
	</g>
</g>
<g>
	<path class="st3" d="M311.14,468.03c-44.45,0-48.74-20.45-49.15-24.64c-3.27-9.07-4.15-35.24-4.24-38.25l-0.01-0.39l0.08-0.38
		c3.13-15.44,15.88-17.11,21.21-17.11c2.35,0,3.96,0.3,4.14,0.33l1.33,0.26l0.07,0.1l0.25-0.16c7.22-4.58,14.42-5.54,19.18-5.54
		c3.37,0,5.69,0.47,6.34,0.62c3.03-5.09,8.03-7.77,14.56-7.77c6.62,0,12.98,2.81,14.76,3.67l0.57-0.75c1.03-1.34,3.08-2.94,7-2.94
		c1.33,0,2.45,0.19,2.92,0.28c6.51,0.75,11.94,3.81,16.15,9.1c13.76,17.34,9.56,53.41,9.38,54.93l-0.01,0.11l-0.02,0.11
		c-4.62,24.11-34.5,26.22-37.35,26.37C328.39,467.34,319.25,468.03,311.14,468.03C311.14,468.03,311.14,468.03,311.14,468.03z"/>
	<g>
		<path d="M347.24,378.44c1.32,0,2.39,0.24,2.39,0.24c29.63,3.21,22.7,60.29,22.7,60.29c-4.3,22.43-34.34,23.64-34.34,23.64
			c-10.36,1.43-19.24,2.04-26.85,2.04c-45.68,0-45.81-22-45.81-22c-3.31-8.22-4.2-37.61-4.2-37.61c2.56-12.63,12.52-14.4,17.9-14.4
			c2.1,0,3.5,0.27,3.5,0.27c8.73,12.33,7.7,48.52,7.7,48.52c4.96-25.43-3.6-48.78-3.6-48.78c6.49-4.11,12.95-5.01,17.38-5.01
			c3.47,0,5.68,0.55,5.68,0.55c10.98,15.29,8.88,52.13,8.88,52.13c7.73-29.33-5.83-52.77-5.83-52.77c2.73-5.45,7.49-7.07,12.18-7.07
			c6.91,0,13.68,3.52,13.68,3.52c12.9,17.05,6.88,51.06,6.88,51.06c9.19-25.85-2.55-52.99-2.55-52.99
			C343.92,378.75,345.74,378.44,347.24,378.44 M347.24,371.68c-3.43,0-6.39,1.04-8.49,2.97c-3.14-1.27-8.34-2.95-13.84-2.95
			c-6.82,0-12.42,2.62-16.13,7.46c-1.23-0.16-2.85-0.3-4.77-0.3c-4.99,0-12.42,0.96-19.98,5.44l-0.22-0.04
			c-0.34-0.07-2.17-0.39-4.78-0.39c-12.84,0-22,7.41-24.52,19.82l-0.16,0.77l0.02,0.78c0.15,4.93,1.04,29.28,4.32,38.95
			c0.82,5.96,6.94,27.21,52.44,27.21c8.23,0,17.48-0.69,27.5-2.06c1.76-0.11,9.31-0.73,17.35-3.83
			c12.82-4.95,20.77-13.68,22.98-25.26l0.04-0.23l0.03-0.23c0.19-1.58,4.54-39.01-10.08-57.44c-4.75-5.99-10.9-9.47-18.28-10.34
			C350,371.88,348.72,371.68,347.24,371.68L347.24,371.68z"/>
	</g>
</g>
<path class="st13" d="M199.8,341.53c0,0-6.69,15.17,52.36,12.25c57.32-2.24,50.24-14.43,50.24-14.43"/>
<path d="M283.13,315.59c0,0,9.52-28.57,67.9-21.37v13.3C351.03,307.52,307.82,302.77,283.13,315.59z"/>
<path d="M157.49,308.34c0,0,43.21-4.75,67.9,8.07c0,0-9.52-28.57-67.9-21.37"/>
<g>
	<path class="st14" d="M175.16,322.47c-0.21,2.26-0.61,4.47-1.06,6.67c-0.45,2.2-1,4.37-1.57,6.53c-0.61,2.15-1.24,4.3-1.98,6.42
		c-0.73,2.12-1.52,4.22-2.49,6.28c0.21-2.26,0.6-4.47,1.06-6.67c0.45-2.2,1-4.37,1.58-6.53c0.61-2.15,1.24-4.3,1.98-6.42
		C173.4,326.62,174.19,324.52,175.16,322.47z"/>
</g>
<g>
	<path class="st14" d="M180.67,322.47c-0.21,2.26-0.61,4.47-1.06,6.67c-0.45,2.2-1,4.37-1.57,6.53c-0.61,2.15-1.24,4.3-1.98,6.42
		c-0.73,2.12-1.52,4.22-2.49,6.28c0.21-2.26,0.6-4.47,1.06-6.67c0.45-2.2,1-4.37,1.58-6.53c0.61-2.15,1.24-4.3,1.98-6.42
		C178.91,326.62,179.7,324.52,180.67,322.47z"/>
</g>
<g>
	<path class="st14" d="M185.84,322.85c-0.21,2.26-0.61,4.47-1.06,6.67c-0.45,2.2-1,4.37-1.57,6.53c-0.61,2.15-1.24,4.3-1.98,6.42
		c-0.73,2.12-1.52,4.22-2.49,6.28c0.21-2.26,0.6-4.47,1.06-6.67c0.45-2.2,1-4.37,1.58-6.53c0.61-2.15,1.24-4.3,1.98-6.42
		C184.08,327.01,184.87,324.9,185.84,322.85z"/>
</g>
<g>
	<path class="st14" d="M159.09,322.27c-0.21,2.26-0.61,4.47-1.06,6.67c-0.45,2.2-1,4.37-1.57,6.53c-0.61,2.15-1.24,4.3-1.98,6.42
		c-0.73,2.12-1.52,4.22-2.49,6.28c0.21-2.26,0.6-4.47,1.06-6.67c0.45-2.2,1-4.37,1.58-6.53c0.61-2.15,1.24-4.3,1.98-6.42
		C157.32,326.43,158.11,324.33,159.09,322.27z"/>
</g>
<g>
	<path class="st14" d="M164.6,322.27c-0.21,2.26-0.61,4.47-1.06,6.67c-0.45,2.2-1,4.37-1.57,6.53c-0.61,2.15-1.24,4.3-1.98,6.42
		c-0.73,2.12-1.52,4.22-2.49,6.28c0.21-2.26,0.6-4.47,1.06-6.67c0.45-2.2,1-4.37,1.58-6.53c0.61-2.15,1.24-4.3,1.98-6.42
		C162.83,326.43,163.62,324.33,164.6,322.27z"/>
</g>
<g>
	<path class="st14" d="M169.77,322.66c-0.21,2.26-0.61,4.47-1.06,6.67c-0.45,2.2-1,4.37-1.57,6.53c-0.61,2.15-1.24,4.3-1.98,6.42
		c-0.73,2.12-1.52,4.22-2.49,6.28c0.21-2.26,0.6-4.47,1.06-6.67c0.45-2.2,1-4.37,1.58-6.53c0.61-2.15,1.24-4.3,1.98-6.42
		C168,326.81,168.79,324.71,169.77,322.66z"/>
</g>
<g>
	<path class="st14" d="M190.99,322.85c-0.21,2.26-0.61,4.47-1.06,6.67c-0.45,2.2-1,4.37-1.57,6.53c-0.61,2.15-1.24,4.3-1.98,6.42
		c-0.73,2.12-1.52,4.22-2.49,6.28c0.21-2.26,0.6-4.47,1.06-6.67c0.45-2.2,1-4.37,1.58-6.53c0.61-2.15,1.24-4.3,1.98-6.42
		C189.23,327.01,190.02,324.9,190.99,322.85z"/>
</g>
<g>
	<path class="st14" d="M195.87,322.85c-0.21,2.26-0.61,4.47-1.06,6.67c-0.45,2.2-1,4.37-1.57,6.53c-0.61,2.15-1.24,4.3-1.98,6.42
		c-0.73,2.12-1.52,4.22-2.49,6.28c0.21-2.26,0.6-4.47,1.06-6.67c0.45-2.2,1-4.37,1.58-6.53c0.61-2.15,1.24-4.3,1.98-6.42
		C194.11,327.01,194.9,324.9,195.87,322.85z"/>
</g>
<g>
	<path class="st14" d="M329.56,322.18c-0.21,2.26-0.61,4.47-1.06,6.67c-0.45,2.2-1,4.37-1.57,6.53c-0.61,2.15-1.24,4.3-1.98,6.42
		c-0.73,2.12-1.52,4.22-2.49,6.28c0.21-2.26,0.6-4.47,1.06-6.67c0.45-2.2,1-4.37,1.58-6.53c0.61-2.15,1.24-4.3,1.98-6.42
		C327.8,326.33,328.59,324.23,329.56,322.18z"/>
</g>
<g>
	<path class="st14" d="M335.07,322.18c-0.21,2.26-0.61,4.47-1.06,6.67c-0.45,2.2-1,4.37-1.57,6.53c-0.61,2.15-1.24,4.3-1.98,6.42
		c-0.73,2.12-1.52,4.22-2.49,6.28c0.21-2.26,0.6-4.47,1.06-6.67c0.45-2.2,1-4.37,1.58-6.53c0.61-2.15,1.24-4.3,1.98-6.42
		C333.31,326.33,334.1,324.23,335.07,322.18z"/>
</g>
<g>
	<path class="st14" d="M340.24,322.56c-0.21,2.26-0.61,4.47-1.06,6.67c-0.45,2.2-1,4.37-1.57,6.53c-0.61,2.15-1.24,4.3-1.98,6.42
		c-0.73,2.12-1.52,4.22-2.49,6.28c0.21-2.26,0.6-4.47,1.06-6.67c0.45-2.2,1-4.37,1.58-6.53c0.61-2.15,1.24-4.3,1.98-6.42
		C338.48,326.72,339.27,324.62,340.24,322.56z"/>
</g>
<g>
	<path class="st14" d="M313.48,321.99c-0.21,2.26-0.61,4.47-1.06,6.67c-0.45,2.2-1,4.37-1.57,6.53c-0.61,2.15-1.24,4.3-1.98,6.42
		c-0.73,2.12-1.52,4.22-2.49,6.28c0.21-2.26,0.6-4.47,1.06-6.67c0.45-2.2,1-4.37,1.58-6.53c0.61-2.15,1.24-4.3,1.98-6.42
		C311.72,326.14,312.51,324.04,313.48,321.99z"/>
</g>
<g>
	<path class="st14" d="M318.99,321.99c-0.21,2.26-0.61,4.47-1.06,6.67c-0.45,2.2-1,4.37-1.57,6.53c-0.61,2.15-1.24,4.3-1.98,6.42
		c-0.73,2.12-1.52,4.22-2.49,6.28c0.21-2.26,0.6-4.47,1.06-6.67c0.45-2.2,1-4.37,1.58-6.53c0.61-2.15,1.24-4.3,1.98-6.42
		C317.23,326.14,318.02,324.04,318.99,321.99z"/>
</g>
<g>
	<path class="st14" d="M324.16,322.37c-0.21,2.26-0.61,4.47-1.06,6.67c-0.45,2.2-1,4.37-1.57,6.53c-0.61,2.15-1.24,4.3-1.98,6.42
		c-0.73,2.12-1.52,4.22-2.49,6.28c0.21-2.26,0.6-4.47,1.06-6.67c0.45-2.2,1-4.37,1.58-6.53c0.61-2.15,1.24-4.3,1.98-6.42
		C322.4,326.53,323.19,324.42,324.16,322.37z"/>
</g>
<g>
	<path class="st14" d="M345.39,322.56c-0.21,2.26-0.61,4.47-1.06,6.67c-0.45,2.2-1,4.37-1.57,6.53c-0.61,2.15-1.24,4.3-1.98,6.42
		c-0.73,2.12-1.52,4.22-2.49,6.28c0.21-2.26,0.6-4.47,1.06-6.67c0.45-2.2,1-4.37,1.58-6.53c0.61-2.15,1.24-4.3,1.98-6.42
		C343.62,326.72,344.42,324.62,345.39,322.56z"/>
</g>
<g>
	<path class="st14" d="M350.27,322.56c-0.21,2.26-0.61,4.47-1.06,6.67c-0.45,2.2-1,4.37-1.57,6.53c-0.61,2.15-1.24,4.3-1.98,6.42
		c-0.73,2.12-1.52,4.22-2.49,6.28c0.21-2.26,0.6-4.47,1.06-6.67c0.45-2.2,1-4.37,1.58-6.53c0.61-2.15,1.24-4.3,1.98-6.42
		C348.51,326.72,349.3,324.62,350.27,322.56z"/>
</g>
<path class="st4" d="M338.28,441.72c-21.61,3.85-37.02,2.09-47.98-2.69c-0.02,0.13-0.04,0.26-0.07,0.39c0,0,0-0.15,0.01-0.42
	c-20.19-8.84-25.25-27.97-26.18-41.25c-1.29,1.9-2.32,4.28-2.93,7.28c0,0,0.89,29.4,4.2,37.61c0,0,0.18,29.94,72.66,19.96
	c0,0,30.04-1.2,34.34-23.64c0,0,0.88-7.27,0.67-16.76C360.49,438.53,338.28,441.72,338.28,441.72z"/>
<path class="st4" d="M242.47,396.79c-0.36,12.88-4.32,33.7-24.74,43.58c0,0.23,0,0.35,0,0.35c-0.02-0.11-0.03-0.22-0.05-0.33
	c-11.05,5.33-26.89,7.47-49.58,3.43c0,0-20.12-2.89-32.85-17.24c-0.06,6.93,0.41,11.77,0.41,11.77
	c3.77,22.53,33.77,24.44,33.77,24.44c72.23,11.68,73.11-18.25,73.11-18.25c3.5-8.14,5.08-37.5,5.08-37.5
	C246.78,402.26,244.84,399,242.47,396.79z"/>
<path class="st15" d="M158.3,87.35c-4.99,11.08-10.84,19.98-15.69,28.25l-2.04,40.89c11.1-12.7,19.85-25.53,26.77-37.78L158.3,87.35
	z"/>
<path class="st15" d="M178.02,156.39c-12.51,17.62-25.23,28.22-34.66,34.37c1.06,0.86,2.28,1.54,3.65,1.97
	c6.95,2.18,18.01,4.32,31.67,2.36c2.76-2.54,5.37-5.1,7.82-7.65L178.02,156.39z"/>
<g>
	<path class="st0" d="M216.99,259.55c-0.34-1.04-0.93-1.95-1.7-2.74c-0.18,4.68-6.2,8.54-14.06,11.17
		c-7.34,2.45-14.02,3.09-17.27,0.21c-0.01,0.78,0.09,1.55,0.34,2.29c1.87,5.63,9.91,5.37,18.94,2.35
		C212.26,269.82,218.86,265.19,216.99,259.55z"/>
</g>
<path class="st15" d="M161.01,55.96c-0.26-0.33-0.57-0.61-0.95-0.8c-1.01-0.51-2.5-0.07-2.77,1.03c0.88-2.11,1.42-5.2-0.67-6.13
	c-1.29-0.58-2.85,0.23-3.61,1.42c-0.1,0.15-0.18,0.31-0.26,0.48c0.19-1.3,0.25-2.6,0.04-3.89c-0.42-2.49-2.13-4.94-4.61-5.4
	c-0.52-0.1-1.08-0.1-1.54,0.17c-0.48,0.28-0.77,0.79-1.01,1.29c-1.49,3.06-2.22,6.48-2.14,9.88c-0.35-0.57-0.94-1.01-1.61-1.09
	c-1.39-0.18-2.72,0.88-3.19,2.2c0.71-1.28,0.28-3.08-0.95-3.89c-1.22-0.81-3.05-0.51-3.95,0.65c1.47-1.3,1.03-4.11-0.77-4.89
	c-0.95-0.41-2.05-0.16-2.88,0.45c0.62-2.21,0.07-4.77-1.43-6.51c-1.9,2.87-3.01,6.3-3.01,10c0,9.99,8.06,18.1,18.01,18.1
	C151.92,69.01,158.83,63.5,161.01,55.96z"/>
</svg>
