<svg t="1621073370935" class="icon" viewBox="0 0 1024 1024" version="1.1" xmlns="http://www.w3.org/2000/svg" p-id="12567" width="200" height="200"><path d="M351.1 120.7c-2.8 0-5.6 0.6-8.3 1.7-65.5 28.3-122.5 72.5-166.1 127.8-10.4 13.3-2.9 32.9 13.9 35l320.1 40c1 0.1 1.9 0.2 2.9 0.2 18.4 0 28.5-22.8 14.9-36.5L366.6 127.1c-4.1-4.2-9.8-6.4-15.5-6.4zM301.8 491.3c-5.2 0-10.5 1.9-14.9 6.3L125.1 659.5c-6.2 6.2-8.2 15.8-4.7 23.8 28.3 65.5 72.5 122.5 127.8 166.2 4.2 3.3 9 4.8 13.6 4.8 10.2 0 19.9-7.2 21.3-18.7l40-320.1c1.8-14.1-9.4-24.2-21.3-24.2zM510.5 702.7c-18.4 0-28.5 22.8-14.9 36.5L657.4 901c4.2 4.2 9.8 6.4 15.5 6.4 2.8 0 5.6-0.5 8.3-1.7 65.5-28.3 122.5-72.5 166.1-127.8 10.5-13.3 2.9-32.9-13.9-35l-320.1-40c-0.9-0.1-1.8-0.2-2.8-0.2zM762.2 173.9c-10.2 0-19.9 7.2-21.3 18.6l-40 320.2c-1.8 14 9.5 24.1 21.4 24.1 5.2 0 10.5-1.9 14.9-6.3L899 368.7c6.2-6.2 8.2-15.8 4.7-23.8-28.3-65.5-72.5-122.5-127.8-166.1-4.2-3.4-9-4.9-13.7-4.9z" fill="#009F72" p-id="12568"></path><path d="M511.7 87.4c-16.8 0-33.6 1-50.3 3-16.8 2-25.3 21.2-14.9 34.5l198.1 254.7c4.5 5.7 10.6 8.3 16.6 8.3 10.9 0 21.5-8.3 21.6-21.4V137.6c0-8.8-5.3-16.9-13.5-20.2-50.5-20-104-30-157.6-30z" fill="#F9DB88" p-id="12569"></path><path d="M135.6 343.3c-8.8 0-16.9 5.3-20.2 13.5C89.1 423.1 80 494.7 88.3 564.6c1.4 11.7 11.2 19.4 21.6 19.4 4.4 0 8.9-1.4 12.9-4.5l254.7-198.1c16-12.5 7.2-38.2-13.1-38.2l-228.8 0.1zM362.8 640.3c-10.9 0-21.5 8.3-21.6 21.4v228.8c0 8.8 5.3 17 13.5 20.2 50.5 20 104 30.1 157.6 30.1 16.8 0 33.6-1 50.3-3 16.8-2 25.3-21.2 14.9-34.5L379.4 648.5c-4.4-5.7-10.5-8.2-16.6-8.2z" fill="#009F72" p-id="12570"></path><path d="M914.2 444c-4.4 0-9 1.4-13 4.5L646.5 646.6c-16 12.5-7.2 38.2 13.1 38.2h228.8c8.8 0 17-5.3 20.2-13.5a427.86 427.86 0 0 0 27.1-207.9c-1.4-11.7-11.2-19.4-21.5-19.4z" fill="#F9DB88" p-id="12571"></path></svg>